SplineFontDB: 3.0
FontName: Spinelo
FullName: Spinelo
FamilyName: Spinelo
Weight: Medium
Copyright: Copyright (c) 2009 Barry Schwartz\n\nPermission is hereby granted, free of charge, to any person obtaining a copy\nof this software and associated documentation files (the "Software"), to deal\nin the Software without restriction, including without limitation the rights\nto use, copy, modify, merge, publish, distribute, sublicense, and/or sell\ncopies of the Software, and to permit persons to whom the Software is\nfurnished to do so, subject to the following conditions:\n\nThe above copyright notice and this permission notice shall be included in\nall copies or substantial portions of the Software.\n\nTHE SOFTWARE IS PROVIDED "AS IS", WITHOUT WARRANTY OF ANY KIND, EXPRESS OR\nIMPLIED, INCLUDING BUT NOT LIMITED TO THE WARRANTIES OF MERCHANTABILITY,\nFITNESS FOR A PARTICULAR PURPOSE AND NONINFRINGEMENT. IN NO EVENT SHALL THE\nAUTHORS OR COPYRIGHT HOLDERS BE LIABLE FOR ANY CLAIM, DAMAGES OR OTHER\nLIABILITY, WHETHER IN AN ACTION OF CONTRACT, TORT OR OTHERWISE, ARISING FROM,\nOUT OF OR IN CONNECTION WITH THE SOFTWARE OR THE USE OR OTHER DEALINGS IN\nTHE SOFTWARE.\n
Version: 001.000
ItalicAngle: 0
UnderlinePosition: -204
UnderlineWidth: 102
Ascent: 1536
Descent: 512
LayerCount: 3
Layer: 0 0 "Back"  1
Layer: 1 0 "Fore"  0
Layer: 2 0 "backup"  1
NeedsXUIDChange: 1
XUID: [1021 658 797806517 16667957]
FSType: 0
OS2Version: 3
OS2_WeightWidthSlopeOnly: 0
OS2_UseTypoMetrics: 1
CreationTime: 1200988961
ModificationTime: 1248511590
PfmFamily: 17
TTFWeight: 400
TTFWidth: 5
LineGap: 184
VLineGap: 0
Panose: 2 0 5 3 0 0 0 0 0 0
OS2TypoAscent: 0
OS2TypoAOffset: 1
OS2TypoDescent: 0
OS2TypoDOffset: 1
OS2TypoLinegap: 184
OS2WinAscent: 0
OS2WinAOffset: 1
OS2WinDescent: 0
OS2WinDOffset: 1
HheadAscent: 0
HheadAOffset: 1
HheadDescent: 0
HheadDOffset: 1
OS2SubXSize: 1331
OS2SubYSize: 1434
OS2SubXOff: 0
OS2SubYOff: 287
OS2SupXSize: 1331
OS2SupYSize: 1434
OS2SupXOff: 0
OS2SupYOff: 983

StartChar: .notdef
Encoding: 65536 -1 0
Width: 1024
Flags: HMW
HStem: 0 102<205 819 205 922> 922 102<205 819 205 205>
VStem: 102 102<102 102 102 922> 819 102<102 922 922 922>
LayerCount: 3
Fore
SplineSet
102 0 m 1
 102 1024 l 1
 922 1024 l 1
 922 0 l 1
 102 0 l 1
205 102 m 1
 819 102 l 1
 819 922 l 1
 205 922 l 1
 205 102 l 1
EndSplineSet
Validated: 1
EndChar

StartChar: exclam
Encoding: 33 33 2
Width: 614
GlyphClass: 2
Flags: HMW
HStem: -45 279<293 367 291 369> 1423 41G<330 332 332 359>
VStem: 190 279<57 131>
LayerCount: 3
Fore
SplineSet
190 94 m 0
 190 168 252 233 330 233 c 0
 404 233 469 172 469 94 c 0
 469 20 408 -45 330 -45 c 0
 256 -45 190 16 190 94 c 0
199 1311 m 0
 199 1442 295 1464 330 1464 c 2
 332 1464 l 2
 387 1464 461 1422 461 1311 c 0
 461 1213 418 1020 371 334 c 1
 289 334 l 1
 254 946 199 1237 199 1311 c 0
EndSplineSet
Validated: 1
EndChar

StartChar: quotedbl
Encoding: 34 34 3
Width: 958
GlyphClass: 2
Flags: HMW
VStem: 229 156<1406 1445 1406 1447> 573 156<1406 1445 1406 1447>
LayerCount: 3
Fore
SplineSet
229 1421 m 0
 229 1472 276 1487 307 1487 c 2
 309 1487 l 2
 348 1487 385 1466 385 1423 c 0
 385 1388 357 1204 322 1061 c 1
 293 1061 l 1
 256 1198 229 1370 229 1421 c 0
573 1421 m 0
 573 1472 620 1487 651 1487 c 2
 653 1487 l 2
 692 1487 729 1466 729 1423 c 0
 729 1388 701 1204 666 1061 c 1
 637 1061 l 1
 600 1198 573 1370 573 1421 c 0
EndSplineSet
Validated: 1
EndChar

StartChar: numbersign
Encoding: 35 35 4
Width: 1064
GlyphClass: 2
Flags: HMW
HStem: 397 106<152 283 152 314 152 384 414 554 686 821> 727 106<246 377 246 407 509 647 246 479 780 915>
LayerCount: 3
Fore
SplineSet
152 397 m 1
 152 504 l 1
 314 504 l 1
 377 727 l 1
 246 727 l 1
 246 834 l 1
 407 834 l 1
 481 1098 l 1
 586 1098 l 1
 509 834 l 1
 677 834 l 1
 752 1098 l 1
 856 1098 l 1
 780 834 l 1
 915 834 l 1
 915 727 l 1
 750 727 l 1
 686 504 l 1
 821 504 l 1
 821 397 l 1
 655 397 l 1
 575 119 l 1
 475 119 l 1
 554 397 l 1
 384 397 l 1
 303 119 l 1
 205 119 l 1
 283 397 l 1
 152 397 l 1
414 504 m 1
 584 504 l 1
 647 727 l 1
 479 727 l 1
 414 504 l 1
EndSplineSet
Validated: 1
EndChar

StartChar: dollar
Encoding: 36 36 5
Width: 872
GlyphClass: 2
Flags: HMW
HStem: -43 96<387 387 387 473> 883 96<387 387 387 473>
VStem: 86 135<688 753> 90 55<55 293 293 293> 387 86<-217 -43 -217 -43 53 362 578 883 981 1135> 635 143<177 244> 659 74<653 903>
LayerCount: 3
Fore
SplineSet
86 670 m 0
 86 836 240 942 387 979 c 1
 387 1135 l 1
 473 1135 l 1
 473 981 l 1
 577 979 676 936 733 903 c 1
 733 653 l 1
 659 653 l 1xea
 645 725 633 863 473 883 c 1
 473 551 l 1
 629 498 778 424 778 266 c 0
 778 84 645 -20 473 -43 c 1
 473 -217 l 1
 387 -217 l 1
 387 -43 l 1
 260 -37 160 4 90 55 c 1
 90 293 l 1
 145 293 l 1xdc
 159 240 176 76 387 53 c 1
 387 389 l 1
 264 442 86 492 86 670 c 0
221 737 m 0xe8
 221 639 330 603 387 578 c 1
 387 883 l 1
 285 869 221 809 221 737 c 0xe8
473 53 m 1
 594 67 635 143 635 211 c 0xcc
 635 277 588 317 473 362 c 1
 473 53 l 1
EndSplineSet
Validated: 1
EndChar

StartChar: percent
Encoding: 37 37 6
Width: 1224
GlyphClass: 2
Flags: HMW
HStem: -61 43G<326 326> -29 63<889 953 889 971> 420 70<871 941> 481 63<293 357 293 375> 930 70<319 322 319 345>
VStem: 61 119<671 805> 442 125<667 764> 657 119<161 236 236 238 161 295> 1038 125<199 203 203 233 233 236 157 254>
LayerCount: 3
Fore
SplineSet
61 731 m 0
 61 878 180 999 319 999 c 2
 322 999 l 1
 455 997 567 884 567 743 c 0
 567 589 442 481 307 481 c 0
 160 481 61 602 61 731 c 0
180 745 m 0x1f80
 180 595 265 545 322 545 c 0
 394 545 442 615 442 713 c 0
 442 815 391 930 299 930 c 0
 252 930 180 886 180 745 c 0x1f80
254 -16 m 1
 895 1010 l 1
 967 965 l 1
 326 -61 l 1x8f80
 254 -16 l 1
657 221 m 0
 657 368 776 489 915 489 c 0
 1050 489 1161 375 1163 236 c 1
 1163 233 l 2
 1163 79 1038 -29 903 -29 c 0
 756 -29 657 92 657 221 c 0
776 236 m 2
 776 86 861 35 918 35 c 0
 990 35 1038 105 1038 199 c 2
 1038 203 l 2
 1038 305 987 420 895 420 c 0x6f80
 848 420 776 379 776 238 c 2
 776 236 l 2
EndSplineSet
Validated: 1
EndChar

StartChar: ampersand
Encoding: 38 38 7
Width: 1198
GlyphClass: 2
Flags: HMW
HStem: -104 100<525 686> 414 100<610 645 590 1174 975 975 975 1153> 662 100<616 641 641 647> 1155 102<528 582 582 584>
VStem: 59 205<248 388> 170 186<929 997> 723 195<1032 1080> 866 152<227 229 229 271>
LayerCount: 3
Fore
SplineSet
59 305 m 0xf9
 59 471 176 629 356 682 c 1
 356 686 l 1
 250 704 170 798 170 911 c 0
 170 1083 353 1257 584 1257 c 0
 742 1257 918 1186 918 1063 c 0
 918 1000 865 946 793 946 c 0
 783 946 711 952 711 985 c 0
 711 997 723 1016 723 1049 c 0
 723 1112 668 1155 584 1155 c 2
 582 1155 l 2
 476 1155 356 1085 356 958 c 0xf6
 356 899 387 807 496 774 c 0
 535 762 575 762 616 762 c 2
 674 762 l 2
 680 762 682 758 682 754 c 0
 682 752 670 672 662 666 c 0
 658 662 653 662 647 662 c 2
 641 662 l 2
 412 662 264 504 264 338 c 0
 264 158 432 -4 618 -4 c 0
 761 -4 866 98 866 227 c 2
 866 229 l 2xf9
 866 295.57578125 836.83125 414 645 414 c 2
 590 414 l 1
 610 514 l 1
 1174 514 l 1
 1153 414 l 1
 975 414 l 1
 973 410 l 1
 1004 363 1018 309 1018 254 c 0
 1018 51 819 -104 553 -104 c 0
 229 -104 59 110 59 305 c 0xf9
EndSplineSet
Validated: 1
EndChar

StartChar: quotesingle
Encoding: 39 39 8
Width: 614
GlyphClass: 2
Flags: HMW
VStem: 229 156<1406 1445 1406 1447>
LayerCount: 3
Fore
SplineSet
229 1421 m 0
 229 1472 276 1487 307 1487 c 2
 309 1487 l 2
 348 1487 385 1466 385 1423 c 0
 385 1388 357 1204 322 1061 c 1
 293 1061 l 1
 256 1198 229 1370 229 1421 c 0
EndSplineSet
Validated: 1
EndChar

StartChar: parenleft
Encoding: 40 40 9
Width: 614
GlyphClass: 2
Flags: HMW
VStem: 76 186<462 751 462 796>
LayerCount: 3
Fore
SplineSet
76 606 m 0
 76 985 258 1323 457 1554 c 1
 537 1493 l 1
 324 1217 262 895 262 606 c 0
 262 317 324 -5 537 -281 c 1
 457 -342 l 1
 254 -106 76 233 76 606 c 0
EndSplineSet
Validated: 1
EndChar

StartChar: parenright
Encoding: 41 41 10
Width: 614
GlyphClass: 2
Flags: HMW
VStem: 352 186<462 751>
LayerCount: 3
Fore
SplineSet
78 -281 m 1
 291 -5 352 317 352 606 c 0
 352 895 291 1217 78 1493 c 1
 158 1554 l 1
 361 1318 539 979 539 606 c 0
 539 227 357 -111 158 -342 c 1
 78 -281 l 1
EndSplineSet
Validated: 1
EndChar

StartChar: asterisk
Encoding: 42 42 11
Width: 684
GlyphClass: 2
Flags: HMW
HStem: 743 250<159 312> 995 164<581 602 566 608> 1032 166<109 109> 1051 43G<332 348>
VStem: 274 164<1265 1294>
LayerCount: 3
Fore
SplineSet
25 1108 m 0
 25 1149 55 1198 102 1198 c 0
 141 1198 152 1182 293 1055 c 0
 295 1053 305 1046 305 1036 c 0
 305 1020 289 1020 281 1020 c 2
 109 1032 l 1xa8
 99 1034 25 1034 25 1108 c 0
92 829 m 0
 92 870 127 891 141 897 c 1
 295 989 299 993 307 993 c 0
 317 993 324 985 324 977 c 0
 324 971 324 973 254 805 c 0
 242 774 225 743 182 743 c 0
 135 743 92 788 92 829 c 0
274 1272 m 0
 274 1317 311 1346 354 1346 c 0x98
 401 1346 438 1317 438 1274 c 0
 438 1256 432 1239 428 1229 c 0
 354 1057 356 1051 340 1051 c 0
 324 1051 322 1069 322 1071 c 0
 283 1231 274 1252 274 1272 c 0
352 979 m 0
 352 987 359 995 369 995 c 0xc8
 375 995 381 991 387 987 c 0
 541 854 555 852 555 811 c 0
 555 762 506 727 465 727 c 0
 408 727 395 781 393 797 c 1
 354 969 l 2
 354 971 352 975 352 979 c 0
369 1030 m 0
 369 1042 383 1049 408 1065 c 0
 512 1128 551 1159 582 1159 c 0
 623 1159 659 1122 659 1069 c 0
 659 1026 631 995 586 995 c 0
 576 995 563 997 561 997 c 2
 391 1014 l 2
 381 1014 369 1018 369 1030 c 0
EndSplineSet
Validated: 1
EndChar

StartChar: plus
Encoding: 43 43 12
Width: 1064
GlyphClass: 2
Flags: HMW
HStem: 532 106<66 479 66 479 586 1001>
VStem: 479 106<102 532 102 532 639 1065>
LayerCount: 3
Fore
SplineSet
66 532 m 1
 66 639 l 1
 479 639 l 1
 479 1065 l 1
 586 1065 l 1
 586 639 l 1
 1001 639 l 1
 1001 532 l 1
 586 532 l 1
 586 102 l 1
 479 102 l 1
 479 532 l 1
 66 532 l 1
EndSplineSet
Validated: 1
EndChar

StartChar: comma
Encoding: 44 44 13
Width: 614
GlyphClass: 2
Flags: HMW
HStem: -20 260<274 314>
VStem: 168 313<20 139> 344 137<-69 51>
LayerCount: 3
Fore
SplineSet
168 100 m 0
 168 178 235 240 313 240 c 0
 403 240 481 162 481 53 c 2
 481 51 l 2xc0
 481 -10 456 -91 403 -150 c 0
 346 -213 252 -252 211 -266 c 1
 172 -182 l 1
 272 -139 344 -107 344 -31 c 0
 344 -21 344 -22 340 -18 c 1
 330 -20 319 -20 309 -20 c 0xa0
 225 -20 168 26 168 100 c 0
EndSplineSet
Validated: 1
EndChar

StartChar: hyphen
Encoding: 45 45 14
Width: 647
GlyphClass: 2
Flags: HMW
HStem: 442 172<68 580 68 580>
VStem: 68 512<442 614 442 614>
LayerCount: 3
Fore
SplineSet
68 442 m 1
 68 614 l 1
 580 614 l 1
 580 442 l 1
 68 442 l 1
EndSplineSet
Validated: 1
EndChar

StartChar: period
Encoding: 46 46 15
Width: 614
GlyphClass: 2
Flags: HMW
HStem: -53 281<270 345>
VStem: 168 281<47 126>
LayerCount: 3
Fore
SplineSet
168 86 m 0
 168 166 233 227 307 227 c 0
 383 227 449 166 449 86 c 0
 449 8 383 -53 307 -53 c 0
 233 -53 168 8 168 86 c 0
EndSplineSet
Validated: 1
EndChar

StartChar: slash
Encoding: 47 47 16
Width: 880
GlyphClass: 2
Flags: W
LayerCount: 3
Fore
SplineSet
25 -276 m 1
 739 1530 l 1
 856 1530 l 1
 141 -276 l 1
 25 -276 l 1
EndSplineSet
Validated: 1
EndChar

StartChar: zero
Encoding: 48 48 17
Width: 1214
GlyphClass: 2
Flags: HMW
HStem: -35 94<540 730 540 758> 895 100<627 631 627 666>
VStem: 61 203<374 595 374 608> 948 205<381 587>
LayerCount: 3
Fore
SplineSet
61 461 m 0
 61 756 324 995 627 995 c 2
 631 995 l 1
 930 993 1153 768 1153 510 c 0
 1153 252 928 -35 588 -35 c 0
 281 -35 61 197 61 461 c 0
264 498 m 0
 264 250 442 59 637 59 c 0
 823 59 948 232 948 449 c 0
 948 725 754 895 578 895 c 0
 381 895 264 693 264 498 c 0
EndSplineSet
Validated: 1
EndChar

StartChar: one
Encoding: 49 49 18
Width: 743
GlyphClass: 2
Flags: HMW
HStem: 0 82<25 199 199 212 541 719 25 199> 870 82<25 213 25 719 522 532 532 719>
VStem: 274 195<360 592>
LayerCount: 3
Fore
SplineSet
25 0 m 1
 25 82 l 1
 199 82 l 2
 226 82 264 82 268 133 c 1
 272 209 274 284 274 360 c 2
 274 592 l 2
 274 643 272 832 264 850 c 1
 254 868 229 870 213 870 c 2
 25 870 l 1
 25 952 l 1
 719 952 l 1
 719 870 l 1
 532 870 l 2
 512 870 477 870 475 827 c 0
 471 749 469 670 469 592 c 2
 469 293 l 2
 469 103 473 82 541 82 c 2
 719 82 l 1
 719 0 l 1
 25 0 l 1
EndSplineSet
Validated: 1
EndChar

StartChar: two
Encoding: 50 50 19
Width: 940
GlyphClass: 2
Flags: HMW
HStem: 0 166<391 788> 864 137<498 500 500 505>
VStem: 631 205<610 719 719 721 610 728>
LayerCount: 3
Fore
SplineSet
66 12 m 0
 66 22 71 23 231 168 c 0
 459 376 631 512 631 678 c 0
 631 778 557 864 453 864 c 0
 326 864 239 747 147 610 c 1
 82 645 l 1
 225.33747406 962.835268568 374.149765915 1001 498 1001 c 2
 500 1001 l 2
 684 1001 836 891 836 721 c 2
 836 719 l 2
 836 502 551 280 389 174 c 1
 391 166 l 1
 860 166 l 2
 864 166 868 164 868 160 c 0
 868 154 809 14 807 10 c 0
 801 0 794 0 788 0 c 2
 84 0 l 2
 74 0 66 2 66 12 c 0
EndSplineSet
Validated: 1
EndChar

StartChar: three
Encoding: 51 51 20
Width: 833
GlyphClass: 2
Flags: HMW
HStem: -385 86<-20 -2> 297 70<109 141> 856 137<318 461>
VStem: 506 201<735 763> 563 209<111 201>
LayerCount: 3
Fore
SplineSet
-20 -299 m 1
 254 -244 563 -78 563 145 c 0xe8
 563 256 485 338 358 338 c 0
 315 338 247 328 141 297 c 1
 109 367 l 1
 265 435 506 590 506 737 c 0
 506 788 473 856 371 856 c 0
 267 856 166 793 113 754 c 1
 66 819 l 1
 209 960 375 993 459 993 c 2
 461 993 l 2xf0
 604 993 707 912 707 795 c 0xf0
 707 676 594 578 481 498 c 1
 483 492 l 1
 487 492 l 2
 626 492 772 379 772 195 c 0
 772 -37 524.945619657 -291.820591646 -2 -385 c 1
 -20 -299 l 1
EndSplineSet
Validated: 1
EndChar

StartChar: four
Encoding: 52 52 21
Width: 1060
GlyphClass: 2
Flags: HMW
HStem: 0 141<219 629 219 631 803 1004> 967 41G<786 792>
VStem: 629 174<141 662 662 662>
LayerCount: 3
Fore
SplineSet
4 12 m 0
 4 18 8 25 10 27 c 0
 778.961867336 1007.77773419 774.232302508 1008 788 1008 c 0
 794 1008 803 1005 803 989 c 2
 803 141 l 1
 1004 141 l 1
 1004 0 l 1
 801 0 l 1
 801 -403 l 1
 631 -403 l 1
 631 0 l 1
 23 0 l 2
 13 0 4 2 4 12 c 0
217 145 m 1
 219 141 l 1
 629 141 l 1
 629 662 l 1
 625 664 l 1
 217 145 l 1
EndSplineSet
Validated: 1
EndChar

StartChar: five
Encoding: 53 53 22
Width: 778
GlyphClass: 2
Flags: HMW
HStem: -418 84<-10 6> 422 180<326 328 328 347> 778 174<276 670 276 276>
VStem: 524 188<116 231 231 233 67 241>
LayerCount: 3
Fore
SplineSet
-10 -334 m 1
 247.338338213 -291.566550614 524 -95.3199032792 524 168 c 0
 524 313 428 422 266 422 c 0
 153 422 39 375 33 375 c 0
 25 375 20 381 20 391 c 0
 20 403 31 422 41 453 c 1
 223 951 219 952 233 952 c 2
 729 952 l 2
 739 952 748 950 748 942 c 0
 748 928 719 874 686 788 c 0
 682 780 678 778 670 778 c 2
 276 778 l 1
 209 594 l 1
 211 590 l 1
 248 598 287 602 326 602 c 2
 328 602 l 2
 557 602 713 454 713 233 c 2
 713 231 l 2
 713 -99 401 -340 6 -418 c 1
 -10 -334 l 1
EndSplineSet
Validated: 1
EndChar

StartChar: six
Encoding: 54 54 23
Width: 1046
GlyphClass: 2
Flags: HMW
HStem: -61 90<460 590 460 636> 719 117<577 579> 1380 41G<915 915>
VStem: 61 209<382 590> 786 199<278 432 432 434 278 531>
LayerCount: 3
Fore
SplineSet
61 449 m 0
 61 732 215 970 381 1118 c 0
 531 1251 729 1351 915 1421 c 1
 948 1339 l 1
 721 1247 270 1002 270 494 c 0
 270 228 379 29 541 29 c 0
 639 29 786 118 786 401 c 0
 786 661 626 719 530 719 c 0
 469 719 407 696 360 655 c 1
 326 696 l 1
 400 770 514 836 639 836 c 0
 809 836 985 706 985 434 c 2
 985 432 l 2
 985 123 754 -61 518 -61 c 0
 283.0046875 -61 61 122.76015625 61 449 c 0
EndSplineSet
Validated: 1
EndChar

StartChar: seven
Encoding: 55 55 24
Width: 958
GlyphClass: 2
Flags: HMW
HStem: 758 195<43 930 121 750>
LayerCount: 3
Fore
SplineSet
37 766 m 0
 37 768 107 944 111 948 c 0
 113 950 117 952 121 952 c 2
 930 952 l 2
 936 952 942 950 942 942 c 0
 942 911 651 451 403 -389 c 0
 399 -403 391 -408 375 -408 c 2
 209 -408 l 2
 199 -408 190 -405 190 -395 c 0
 190 -393 390 140 752 754 c 1
 750 758 l 1
 47 758 l 2
 39 758 37 762 37 766 c 0
EndSplineSet
Validated: 1
EndChar

StartChar: eight
Encoding: 56 56 25
Width: 1056
GlyphClass: 2
Flags: HMW
HStem: -45 88<441 599 441 669> 633 150<449 614> 1288 86<458 591>
VStem: 61 168<244 406> 98 188<966 1094> 782 152<994 1108> 813 182<270 401>
LayerCount: 3
Fore
SplineSet
61 313 m 0xf2
 61 497 217 619 344 672 c 1
 344 678 l 1
 180 739 98 881 98 1006 c 0xe8
 98 1182 258 1374 539 1374 c 0
 762 1374 934 1247 934 1057 c 0xec
 934 932 846 811 711 741 c 1
 711 737 l 1
 928 671 995 512 995 379 c 0
 995 162 830 -45 508 -45 c 0
 248 -45 61 110 61 313 c 0xf2
229 322 m 0xf2
 229 166 364 43 518 43 c 0
 680 43 813 176 813 330 c 0
 813 473 701 543 584 592 c 0
 537 612 473 633 461 633 c 0
 436 633 229 510 229 322 c 0xf2
287 1065 m 0
 287 866 582 782 602 782 c 0
 627 782 782 890 782 1042 c 0xec
 782 1173 657 1288 524 1288 c 0
 391 1288 287 1180 287 1065 c 0
EndSplineSet
Validated: 1
EndChar

StartChar: nine
Encoding: 57 57 26
Width: 1079
GlyphClass: 2
Flags: HMW
HStem: -438 43G<80 80> 104 113<466 473> 907 82<461 510 510 512>
VStem: 61 201<399 654> 807 211<412 639>
LayerCount: 3
Fore
SplineSet
47 -346 m 1
 336 -254 558 -90 664 45 c 1
 770 182 807 340 807 483 c 0
 807 794 631 907 512 907 c 2
 510 907 l 2
 412 907 262 838 262 535 c 0
 262 265 416 217 516 217 c 0
 594 217 639 246 684 291 c 1
 719 260 l 1
 647 119 503 104 442 104 c 0
 213 104 61 277 61 506 c 0
 61 803 276 989 530 989 c 0
 784 989 1018 809 1018 508 c 0
 1018 76 555 -280 80 -438 c 1
 47 -346 l 1
EndSplineSet
Validated: 1
EndChar

StartChar: colon
Encoding: 58 58 27
Width: 614
GlyphClass: 2
Flags: HMW
HStem: -53 281<270 345> 608 281<268 345>
VStem: 168 281<47 126 711 785>
LayerCount: 3
Fore
SplineSet
168 86 m 0
 168 166 233 227 307 227 c 0
 383 227 449 166 449 86 c 0
 449 8 383 -53 307 -53 c 0
 233 -53 168 8 168 86 c 0
168 748 m 0
 168 824 229 889 307 889 c 0
 383 889 449 828 449 748 c 0
 449 670 383 608 307 608 c 0
 229 608 168 674 168 748 c 0
EndSplineSet
Validated: 1
EndChar

StartChar: semicolon
Encoding: 59 59 28
Width: 614
GlyphClass: 2
Flags: HMW
HStem: -20 260<274 314> 608 281<268 345>
VStem: 168 281<711 785> 168 313<20 139> 344 137<-69 51>
LayerCount: 3
Fore
SplineSet
168 100 m 0
 168 178 235 240 313 240 c 0
 403 240 481 162 481 53 c 2
 481 51 l 2xd0
 481 -10 456 -91 403 -150 c 0
 346 -213 252 -252 211 -266 c 1
 172 -182 l 1
 272 -139 344 -107 344 -31 c 0xc8
 344 -21 344 -22 340 -18 c 1
 330 -20 319 -20 309 -20 c 0
 225 -20 168 26 168 100 c 0
168 748 m 0xe0
 168 824 229 889 307 889 c 0
 383 889 449 828 449 748 c 0
 449 670 383 608 307 608 c 0
 229 608 168 674 168 748 c 0xe0
EndSplineSet
Validated: 1
EndChar

StartChar: less
Encoding: 60 60 29
Width: 1064
GlyphClass: 2
Flags: W
LayerCount: 3
Fore
SplineSet
66 535 m 1
 66 639 l 1
 1001 1098 l 1
 1001 979 l 1
 213 596 l 1
 213 578 l 1
 1001 195 l 1
 1001 76 l 1
 66 535 l 1
EndSplineSet
Validated: 1
EndChar

StartChar: equal
Encoding: 61 61 30
Width: 1064
GlyphClass: 2
Flags: HMW
HStem: 387 106<66 1001 66 1001> 682 106<66 1001 66 1001>
LayerCount: 3
Fore
SplineSet
66 387 m 1
 66 494 l 1
 1001 494 l 1
 1001 387 l 1
 66 387 l 1
66 682 m 1
 66 788 l 1
 1001 788 l 1
 1001 682 l 1
 66 682 l 1
EndSplineSet
Validated: 1
EndChar

StartChar: greater
Encoding: 62 62 31
Width: 1064
GlyphClass: 2
Flags: W
LayerCount: 3
Fore
SplineSet
66 76 m 1
 66 195 l 1
 854 578 l 1
 854 596 l 1
 66 979 l 1
 66 1098 l 1
 1001 639 l 1
 1001 535 l 1
 66 76 l 1
EndSplineSet
Validated: 1
EndChar

StartChar: question
Encoding: 63 63 32
Width: 921
GlyphClass: 2
Flags: HMW
HStem: -53 281<438 512> 1251 129<424 465 465 467>
VStem: 104 205<943 1146> 336 279<47 126> 414 98 668 199<1002 1115>
LayerCount: 3
Fore
SplineSet
104 977 m 0
 104 1139 293 1380 555 1380 c 0
 745 1380 866 1250 866 1090 c 0
 866 916 731 761 647 655 c 0
 569 557 512 467 512 301 c 2
 512 293 l 2
 512 260 493 258 473 258 c 2
 461 258 l 2xec
 429.6359375 258 414 261.5390625 414 420 c 0
 414 725 668 862 668 1057 c 0
 668 1174 571 1251 467 1251 c 2
 465 1251 l 2
 369 1251 309 1180 309 1112 c 0
 309 1077 324 1045 324 1008 c 0
 324 928 262 858 201 858 c 0
 144 858 104 909 104 977 c 0
336 86 m 0xf4
 336 166 401 227 475 227 c 0
 549 227 614 166 614 86 c 0
 614 8 549 -53 475 -53 c 0
 401 -53 336 8 336 86 c 0xf4
EndSplineSet
Validated: 1
EndChar

StartChar: at
Encoding: 64 64 33
Width: 1996
GlyphClass: 2
Flags: HMW
HStem: -442 96<812 1079> -27 127<1185 1351> -27 160<712 896> 895 94<1186 1195> 922 41G<1397 1559 1559 1559> 1372 125<1057 1063 1057 1057>
VStem: 100 186<217 548 217 780> 555 184<211 319> 1098 176<35 179> 1729 168<739 741 741 791 791 793 660 933>
LayerCount: 3
Fore
SplineSet
100 465 m 0
 100 1096 595 1497 1130 1497 c 0
 1564 1497 1896 1215 1896 793 c 2
 1896 791 l 2
 1896 342.855556224 1542.64450217 -27 1219 -27 c 0
 1151 -27 1098 -6 1098 76 c 0
 1098 127 1108 156 1167 332 c 1
 1163 334 l 1xcfc0
 1155.36083356 319.358264325 957.806690188 -27 752 -27 c 0
 672 -27 555 31 555 207 c 0
 555 432 754 818 1069 958 c 0
 1128 984 1173 989 1198 989 c 0xb7c0
 1280 989 1341 946 1366 883 c 1
 1368 883 l 1
 1397 963 l 1
 1559 963 l 1
 1326 322 1274 203 1274 156 c 0
 1274 129 1296 100 1327 100 c 0
 1470.87932811 100 1729 385.255444687 1729 739 c 2
 1729 741 l 2
 1729 1124 1428 1372 1063 1372 c 2
 1057 1372 l 1
 893 1370 727 1312 602 1206 c 1
 377 1011 287 666 287 430 c 0
 287 4 553 -346 1071 -346 c 0
 1143 -346 1251 -340 1425 -299 c 1
 1442 -358 l 1
 1336 -395 1169 -442 989 -442 c 0
 502 -442 100 -84 100 465 c 0
739 258 m 0
 739 164 805 133 848 133 c 0
 944 133 1024 233 1085 317 c 0
 1116 360 1294 596 1296 729 c 1
 1296 731 l 2
 1296 817 1235 895 1155 895 c 0
 973 895 739 459 739 258 c 0
EndSplineSet
Validated: 1
EndChar

StartChar: A
Encoding: 65 65 34
Width: 1536
GlyphClass: 2
Flags: HMW
HStem: 0 94<39 156 156 181 410 549 39 156 956 1079 1079 1086 1430 1497> 469 98<545 948 545 997 502 948> 1395 41G<788 803 803 806>
LayerCount: 3
Fore
SplineSet
39 0 m 1
 39 94 l 1
 156 94 l 2
 207 94 221 107 283 258 c 0
 756 1413 758 1421 762 1425 c 0
 768 1433 774 1436 788 1436 c 2
 803 1436 l 2
 809 1436 821 1433 825 1419 c 1
 1366 88 1348 112 1389 98 c 1
 1430 94 l 1
 1497 94 l 1
 1497 0 l 1
 956 0 l 1
 956 94 l 1
 1079 94 l 2
 1093 94 1126 94 1126 123 c 0
 1126 156 1079 264 997 469 c 1
 502 469 l 1
 373 145 373 142 373 119 c 0
 373 99 387 94 410 94 c 2
 549 94 l 1
 549 0 l 1
 39 0 l 1
539 575 m 1
 545 567 l 1
 948 567 l 1
 954 573 l 1
 752 1096 l 1
 743 1096 l 1
 539 575 l 1
EndSplineSet
Validated: 1
EndChar

StartChar: B
Encoding: 66 66 35
Width: 1318
GlyphClass: 2
Flags: HMW
HStem: 0 94<39 176 176 197 39 358 39 176> 0 121 723 100<479 492 492 569 569 608 469 614> 1298 113 1317 94<39 180 39 328>
VStem: 233 209<360 682> 879 213<1043 1092> 1006 227<389 473 317 484>
LayerCount: 3
Fore
SplineSet
39 0 m 1
 39 94 l 1
 176 94 l 2
 230.513671875 94 233 109.7046875 233 360 c 2
 233 1024 l 2
 233 1301.37077146 240.668802653 1317 180 1317 c 2
 39 1317 l 1
 39 1411 l 1
 328 1411 l 2
 445 1411 561 1417 678 1417 c 2
 686 1417 l 2
 850 1417 948 1385 1016 1311 c 1
 1071 1254 1092 1178 1092 1106 c 2
 1092 1104 l 2xae
 1092 983 1037 881 881 805 c 1
 881 799 l 1
 1112 740 1233 555 1233 391 c 0
 1233 244 1133 81 918 20 c 1
 893 14 818 -8 666 -8 c 0
 564 -8 460 0 358 0 c 2
 39 0 l 1
442 170 m 2
 442 137 446 121 479 121 c 2
 537 121 l 2
 773 121 922 135 985 299 c 1
 997 334 1006 371 1006 408 c 0x65
 1006 562 889 684 754 713 c 0
 709 723 661 723 614 723 c 2
 492 723 l 2
 467 723 442 721 442 682 c 2
 442 170 l 2
444 856 m 2
 444 836 449 823 469 823 c 2
 569 823 l 2
 647 823 791 829 852 950 c 0
 870 985 879 1024 879 1063 c 0
 879 1120 856 1271 668 1294 c 0
 637 1298 606 1298 575 1298 c 2
 500 1298 l 2x36
 463 1298 444 1288 444 1245 c 2
 444 856 l 2
EndSplineSet
Validated: 33
EndChar

StartChar: C
Encoding: 67 67 36
Width: 1560
GlyphClass: 2
Flags: HMW
HStem: -45 139<763 978> 995 43G<1276 1376 1276 1276> 1327 119<794 992 665 993>
VStem: 109 250<544 878> 1276 100<995 1331> 1339 78<92 465>
LayerCount: 3
Fore
SplineSet
109 680 m 0
 109 1075 417 1446 911 1446 c 0
 1073 1446 1233 1405 1376 1331 c 1
 1376 995 l 1
 1276 995 l 1
 1266 1224 1085 1327 901 1327 c 0xf8
 686 1327 358 1161 358 731 c 0
 358 356 596 94 930 94 c 0
 1100 94 1250 166 1305 289 c 0
 1328 342 1333 418 1339 465 c 1
 1417 465 l 1
 1417 92 l 1xf4
 1237 -10 1055 -45 901 -45 c 0
 469 -45 109 244 109 680 c 0
EndSplineSet
Validated: 1
EndChar

StartChar: D
Encoding: 68 68 37
Width: 1566
GlyphClass: 2
Flags: HMW
HStem: -8 117<677 749> 0 94<39 180 180 199 39 369 39 180> 1290 121 1317 94<39 174 39 352>
VStem: 233 211<360 1024 1024 1028> 1231 227<636 743 743 745 607 828>
LayerCount: 3
Fore
SplineSet
39 0 m 1
 39 94 l 1
 180 94 l 2
 226.25228104 94 233 108.790944649 233 360 c 2
 233 1024 l 2
 233 1032 233 1270 229 1286 c 0
 221 1313 199 1317 174 1317 c 2
 39 1317 l 1
 39 1411 l 1
 352 1411 l 2x5c
 458 1411 568 1417 674 1417 c 2
 680 1417 l 2
 938 1417 1142 1368 1294 1196 c 0
 1394 1083 1458 927 1458 745 c 2
 1458 743 l 2
 1458 471 1321 206 1100 82 c 0
 973 11 821 -8 676 -8 c 0
 574 -8 471 0 369 0 c 2
 39 0 l 1
444 182 m 2
 444 164 444 141 477 135 c 0
 557 119 635 109 719 109 c 0
 869 109 1065 145 1169 385 c 0
 1210 479 1231 584 1231 688 c 0
 1231 969 1084 1169 877 1247 c 0
 766 1288 645 1290 528 1290 c 2
 494 1290 l 2
 453 1290 444 1272 444 1241 c 2xac
 444 182 l 2
EndSplineSet
Validated: 1
EndChar

StartChar: E
Encoding: 69 69 38
Width: 1183
GlyphClass: 2
Flags: HMW
HStem: 0 94<39 168 168 194 39 348 39 168> 0 133<39 481> 719 109<444 848 442 856> 936 41G<887 975 975 975> 1292 119 1317 94<39 193 39 348>
VStem: 233 209<360 719> 889 86<569 684 684 694> 1004 86<1112 1397> 1038 78<362 362>
LayerCount: 3
Fore
SplineSet
39 0 m 1
 39 94 l 1
 168 94 l 2
 224.092578125 94 233 116.2234375 233 360 c 2
 233 1024 l 2xb340
 233 1287.21711364 239.631761884 1317 193 1317 c 2
 39 1317 l 1
 39 1411 l 1
 348 1411 l 2xb740
 588 1411 829 1411 1069 1415 c 1
 1071 1415 l 2
 1085 1415 1090 1407 1090 1397 c 2
 1090 1112 l 1
 1004 1112 l 1
 998 1231 1001 1266 938 1272 c 0
 799 1286 660 1292 510 1292 c 2
 489 1292 l 2
 466 1292 444 1288 444 1257 c 2
 444 827 l 1
 856 827 l 2
 885 827 887 843 887 870 c 2
 887 977 l 1
 975 977 l 1
 975 569 l 1
 889 569 l 1
 889 684 l 2
 889 704 883 719 848 719 c 2
 442 719 l 1
 442 172 l 2
 442 156 444 133 473 133 c 0x7b80
 489 133 774 148 924 156 c 0
 1008 161 1015 210 1038 362 c 1
 1116 362 l 1
 1116 14 l 2
 1116 2 1112 -4 1100 -4 c 0
 1024 -4 948 0 348 0 c 2
 39 0 l 1
EndSplineSet
Validated: 33
EndChar

StartChar: F
Encoding: 70 70 39
Width: 1146
GlyphClass: 2
Flags: HMW
HStem: 0 94<39 168 168 185 506 647 39 168> 719 109<444 848 442 856> 936 41G<887 975 975 975> 1292 119 1317 94<39 193 39 348>
VStem: 233 211<827 1024 1024 1138> 889 86<569 684 684 694> 1004 86<1112 1397>
LayerCount: 3
Fore
SplineSet
39 0 m 1
 39 94 l 1
 168 94 l 2
 232.796426663 94 233 107.37079277 233 360 c 2
 233 1024 l 2xf7
 233 1287.21711364 239.631761884 1317 193 1317 c 2
 39 1317 l 1
 39 1411 l 1
 348 1411 l 2xef
 588 1411 829 1411 1069 1415 c 1
 1071 1415 l 2
 1085 1415 1090 1407 1090 1397 c 2
 1090 1112 l 1
 1004 1112 l 1
 998 1231 1001 1266 938 1272 c 0
 799 1286 660 1292 510 1292 c 2
 489 1292 l 2
 466 1292 444 1288 444 1257 c 2
 444 827 l 1
 856 827 l 2
 885 827 887 843 887 870 c 2
 887 977 l 1
 975 977 l 1
 975 569 l 1
 889 569 l 1
 889 684 l 2
 889 704 883 719 848 719 c 2
 442 719 l 1
 442 360 l 1
 441.993469388 320.004011662 l 2
 441.993469388 111.779591837 443.771428571 94 506 94 c 2
 647 94 l 1
 647 0 l 1
 39 0 l 1
EndSplineSet
Validated: 33
EndChar

StartChar: G
Encoding: 71 71 40
Width: 1634
GlyphClass: 2
Flags: HMW
HStem: -45 141<754 991 754 996> 573 106<946 1206 946 1583 1447 1464 1464 1583> 995 43G<1294 1395 1294 1294> 1327 119<821 942>
VStem: 109 250<558 735 735 737 558 809> 1243 184<201 469> 1294 100<995 995>
LayerCount: 3
Fore
SplineSet
109 684 m 0xfc
 109 1073.13001898 421.909326639 1446 903 1446 c 0
 1046 1446 1216 1411 1380 1313 c 1
 1395 995 l 1
 1294 995 l 1xfa
 1235 1308 981 1327 903 1327 c 0
 688 1327 360 1161 358 737 c 1
 358 735 l 2
 358 381 569 96 938 96 c 0
 1044 96 1157 121 1243 201 c 1
 1243 469 l 2
 1243 559 1241 573 1206 573 c 2
 946 573 l 1
 946 680 l 1
 1583 680 l 1
 1583 573 l 1
 1464 573 l 2
 1429 573 1427 559 1427 469 c 2
 1427 117 l 2
 1427 105 1425 100 1411 92 c 0
 1286 22 1100 -45 893 -45 c 0
 424 -45 109 293 109 684 c 0xfc
EndSplineSet
Validated: 1
EndChar

StartChar: H
Encoding: 72 72 41
Width: 1673
GlyphClass: 2
Flags: HMW
HStem: 0 94<39 162 162 188 514 639 39 162 1034 1157 1157 1184 1509 1634> 719 106<623 1049 625 1049 1049 1053 625 1130> 1317 94<39 166 39 639 482 508 508 639 1034 1161 1478 1503 1503 1634>
VStem: 233 211<360 700 838 842 842 1024> 1229 211<360 705 705 711 844 1024>
LayerCount: 3
Fore
SplineSet
268 1308 m 1
 78 1370 l 1
 78 1425 l 1
 662 1425 l 1
 662 1370 l 1
 472 1308 l 1
 472 785 l 1
 1203 785 l 1
 1203 1308 l 1
 1013 1370 l 1
 1013 1425 l 1
 1597 1425 l 1
 1597 1370 l 1
 1407 1308 l 1
 1407 117 l 1
 1597 55 l 1
 1597 0 l 1
 1013 0 l 1
 1013 55 l 1
 1203 117 l 1
 1203 685 l 1
 472 685 l 1
 472 117 l 1
 662 55 l 1
 662 0 l 1
 78 0 l 1
 78 55 l 1
 268 117 l 1
 268 1308 l 1
EndSplineSet
EndChar

StartChar: I
Encoding: 73 73 42
Width: 677
GlyphClass: 2
Flags: HMW
HStem: 0 94<39 162 162 188 514 639 39 162> 1317 94<39 170 39 639 482 508 508 639>
VStem: 233 211<360 1024>
LayerCount: 3
Fore
SplineSet
238 1308 m 1
 48 1370 l 1
 48 1425 l 1
 632 1425 l 1
 632 1370 l 1
 442 1308 l 1
 442 117 l 1
 632 55 l 1
 632 0 l 1
 48 0 l 1
 48 55 l 1
 238 117 l 1
 238 1308 l 1
EndSplineSet
EndChar

StartChar: J
Encoding: 74 74 43
Width: 703
GlyphClass: 2
Flags: HMW
HStem: -365 121<97 126> 1317 94<133 264 133 733 576 602 602 733>
VStem: -154 223<-220 -197 -220 -181> 327 211<135 1024 135 1024 135 1065>
LayerCount: 3
Fore
SplineSet
89 -133 m 1
 -15 -90 l 1
 -15 117 l 1
 30 117 l 1
 172 -33 l 1
 231 -27 318 20 318 426 c 2
 318 1308 l 1
 108 1370 l 1
 108 1425 l 1
 692 1425 l 1
 692 1370 l 1
 522 1308 l 1
 522 584 l 2
 522 108 435 -133 89 -133 c 1
EndSplineSet
EndChar

StartChar: K
Encoding: 75 75 44
Width: 1521
GlyphClass: 2
Flags: HMW
HStem: 0 94<39 162 162 188 512 618 39 162 809 956 956 962 1386 1483> 1317 94<39 170 39 639 482 508 508 639 858 981 1314 1374 1374 1413>
VStem: 233 209<360 668>
LayerCount: 3
Fore
SplineSet
39 0 m 1
 39 94 l 1
 162 94 l 2
 215 94 225 110 227 143 c 0
 231 215 233 288 233 360 c 2
 233 1024 l 2
 233 1106 233 1186 231 1268 c 0
 231 1309 209 1317 170 1317 c 2
 39 1317 l 1
 39 1411 l 1
 639 1411 l 1
 639 1317 l 1
 508 1317 l 2
 457 1317 446 1299 446 1268 c 0
 444 1186 444 1106 444 1024 c 2
 444 807 l 1
 446 807 l 1
 967.248495259 1227.29522938 1014 1256.39009856 1014 1292 c 0
 1014 1315 993 1317 981 1317 c 2
 858 1317 l 1
 858 1411 l 1
 1413 1411 l 1
 1413 1317 l 1
 1374 1317 l 2
 1253 1317 1260 1306 668 823 c 1
 1157 272 1218 202 1284 139 c 0
 1317 108 1335 94 1386 94 c 2
 1483 94 l 1
 1483 0 l 1
 809 0 l 1
 809 94 l 1
 956 94 l 2
 966 94 987 96 987 119 c 0
 987 146 905 242 893 256 c 2
 504 715 l 1
 442 668 l 1
 442 360 l 2
 442 111.7625 441.97265625 94 512 94 c 2
 618 94 l 1
 618 0 l 1
 39 0 l 1
EndSplineSet
Validated: 33
EndChar

StartChar: L
Encoding: 76 76 45
Width: 1179
GlyphClass: 2
Flags: HMW
HStem: 0 94<39 168 168 194 39 352 39 168> 0 123 1317 94<43 193 43 635 466 483 483 635>
VStem: 233 211<360 1024> 1026 86<346 346>
LayerCount: 3
Fore
SplineSet
39 0 m 1
 39 94 l 1
 168 94 l 2xb8
 224.092578125 94 233 116.2234375 233 360 c 2
 233 1024 l 2
 233 1287.21711364 239.631761884 1317 193 1317 c 2
 43 1317 l 1
 43 1411 l 1
 635 1411 l 1
 635 1317 l 1
 483 1317 l 2
 448 1317 446 1297 446 1266 c 0
 444 1186 444 1104 444 1024 c 2
 444 156 l 2
 444 125 452 123 487 123 c 2
 502 123 l 2x78
 1013.68621924 123 1004.93972381 135.397238109 1026 346 c 1
 1112 346 l 1
 1112 14 l 2
 1112 2 1110 -4 1096 -4 c 0
 1022 -4 946 0 352 0 c 2
 39 0 l 1
EndSplineSet
Validated: 33
EndChar

StartChar: M
Encoding: 77 77 46
Width: 1781
GlyphClass: 2
Flags: HMW
HStem: -14 43G<817 835> 0 94<39 172 172 195 393 535 39 172 1143 1272 1272 1289 1616 1743> 1317 94<39 197 39 489 1570 1589 1589 1743>
VStem: 233 106<360 1233> 1337 211<360 1169 1169 1174>
LayerCount: 3
Fore
SplineSet
39 0 m 1
 39 94 l 1
 172 94 l 2
 217 94 225 112 227 143 c 0
 231 215 233 288 233 360 c 2
 233 1274 l 2
 233 1294 232 1317 197 1317 c 2
 39 1317 l 1
 39 1411 l 1
 489 1411 l 2
 499 1411 508 1411 518 1384 c 2
 887 387 l 1
 895 387 l 1
 1290 1372 1300 1397 1300 1399 c 1
 1308 1411 1321 1411 1329 1411 c 2
 1743 1411 l 1
 1743 1317 l 1
 1589 1317 l 2
 1550 1317 1548 1293 1548 1270 c 2
 1548 293 l 2
 1548 113 1553 94 1616 94 c 2
 1743 94 l 1
 1743 0 l 1
 1143 0 l 1
 1143 94 l 1
 1272 94 l 2x78
 1336.79642666 94 1337 107.37079277 1337 360 c 2
 1337 1169 l 2
 1337 1177 1333 1180 1331 1180 c 0
 1325 1180 1323 1173 1321 1169 c 0
 866 12 866 10 856 -2 c 0
 850 -8 839 -14 829 -14 c 0
 804 -14 794 7 788 25 c 0
 355.293540474 1250 362 1247 350 1247 c 0xb8
 342 1247 340 1241 340 1233 c 2
 340 360 l 2
 340 130.140625 337.5078125 94 393 94 c 2
 535 94 l 1
 535 0 l 1
 39 0 l 1
EndSplineSet
Validated: 33
EndChar

StartChar: N
Encoding: 78 78 47
Width: 1574
GlyphClass: 2
Flags: HMW
HStem: -20 43G<1289 1307 1307 1323> 0 94<39 172 172 195 401 535 39 172> 1317 94<39 139 39 381 1040 1169 1399 1411 1411 1536>
VStem: 233 106<360 1155> 1235 106<516 807 807 1044>
LayerCount: 3
Fore
SplineSet
39 0 m 1
 39 94 l 1
 172 94 l 2x78
 217 94 225 112 227 143 c 0
 231 215 233 288 233 360 c 2
 233 1253 l 2
 233 1271 230 1271 205 1300 c 0
 191 1316 178 1317 139 1317 c 2
 39 1317 l 1
 39 1411 l 1
 381 1411 l 2
 418 1411 422 1407 434 1393 c 0
 1218 414 1221 412 1225 412 c 0
 1229 412 1235 414 1235 426 c 2
 1235 1085 l 2
 1235 1300 1232 1317 1169 1317 c 2
 1040 1317 l 1
 1040 1411 l 1
 1536 1411 l 1
 1536 1317 l 1
 1411 1317 l 2
 1386 1317 1352 1315 1348 1266 c 1
 1344 1192 1341 1118 1341 1044 c 2
 1341 807 l 2
 1341 225 1358 39 1358 14 c 0
 1358 -15 1343 -20 1323 -20 c 2
 1307 -20 l 2
 1272 -20 1263 -2 1247 18 c 0
 626.674945808 811.764302715 353.977972636 1165 348 1165 c 0
 344 1165 340 1163 340 1155 c 2xb8
 340 319 l 2
 340 116 342 94 401 94 c 2
 535 94 l 1
 535 0 l 1
 39 0 l 1
EndSplineSet
Validated: 1
EndChar

StartChar: O
Encoding: 79 79 48
Width: 1742
GlyphClass: 2
Flags: HMW
HStem: -45 129<798 1092 798 1092> 1317 129<840 844 840 840>
VStem: 109 242<672 674 674 877> 1391 244<541 721 721 725 526 855>
LayerCount: 3
Fore
SplineSet
109 672 m 2
 109 674 l 2
 109 1080 440 1446 911 1446 c 0
 1362 1446 1632 1085 1634 725 c 1
 1634 721 l 2
 1634 332 1310 -45 872 -45 c 0
 520 -45 109 195 109 672 c 2
350 735 m 0
 350 346 662 84 934 84 c 0
 1249 84 1391 412 1391 670 c 0
 1391 1041 1120 1317 844 1317 c 2
 840 1317 l 1
 588 1315 350 1077 350 735 c 0
EndSplineSet
Validated: 1
EndChar

StartChar: P
Encoding: 80 80 49
Width: 1148
GlyphClass: 2
Flags: HMWO
HStem: 0 94<19 144 144 169 486 615 19 144> 582 109<613 679 562 779> 1317 94<19 164 19 332>
VStem: 213 211<639 639 731 1110 1110 1146> 902 205<920 1060 904 1086>
LayerCount: 3
Fore
SplineSet
1105 1031 m 0
 1105 788 915 596 560 596 c 0
 502 596 480 600 420 606 c 1
 424 117 l 1
 614 55 l 1
 614 0 l 1
 30 0 l 1
 30 55 l 1
 220 117 l 1
 220 1308 l 1
 30 1370 l 1
 30 1425 l 1
 546 1425 l 2
 855 1425 1105 1346 1105 1031 c 0
916 973 m 0
 916 1140 842 1325 546 1325 c 2
 424 1325 l 1
 424 686 l 1
 495 674 523 673 560 673 c 0
 792 673 916 755 916 973 c 0
EndSplineSet
EndChar

StartChar: Q
Encoding: 81 81 50
Width: 1742
GlyphClass: 2
Flags: HMW
HStem: -371 84 -41 125<934 961> 1317 129<840 913 840 913>
VStem: 109 242<614 872> 1391 244<548 855>
LayerCount: 3
Fore
SplineSet
109 672 m 0
 109 1073 434 1446 911 1446 c 2
 913 1446 l 2
 1349 1446 1634 1098 1634 719 c 0
 1634 377 1407 115 1133 33 c 1
 1133 27 l 1
 1366 -82 1446 -269 1624 -287 c 0
 1644 -289 1669 -295 1669 -328 c 0
 1669 -378.3640625 1581.05546875 -389 1526 -389 c 0
 1333 -389 1224 -240 1036 -84 c 0
 1005 -59 979 -41 942 -41 c 0
 926 -41 901 -45 862 -45 c 0
 554.214734638 -45 109 173.714658555 109 672 c 0
350 735 m 0
 350 346 662 84 934 84 c 0
 1249 84 1391 412 1391 670 c 0
 1391 1041 1120 1317 844 1317 c 2
 840 1317 l 1
 588 1315 350 1077 350 735 c 0
EndSplineSet
Validated: 1
EndChar

StartChar: R
Encoding: 82 82 51
Width: 1425
GlyphClass: 2
Flags: HMW
HStem: 0 94<39 162 162 188 514 635 39 162 1296 1386> 1317 94<39 174 39 342>
VStem: 233 211<698 698 804 815 815 1171 1171 1237> 913 233<972 1061 1061 1063 962 1101>
LayerCount: 3
Fore
SplineSet
39 0 m 1
 39 94 l 1
 162 94 l 2
 215 94 225 110 227 143 c 0
 231 215 233 288 233 360 c 2
 233 1171 l 2
 233 1302 227 1317 174 1317 c 2
 39 1317 l 1
 39 1411 l 1
 342 1411 l 2
 453 1411 565 1417 676 1417 c 0
 821 1417 944 1401 1042 1307 c 0
 1108 1244 1147 1153 1147 1063 c 2
 1147 1061 l 2
 1147 862 948 754 848 711 c 1
 848 705 l 1
 991 558 1036 455 1231 127 c 0
 1246 103 1257 94 1296 94 c 2
 1386 94 l 1
 1386 0 l 1
 1165 0 l 2
 1083 0 1050 20 1001 94 c 0
 837 340 819 477 672 633 c 0
 600 709 639 659 444 698 c 1
 440 694 l 1
 440 324 l 2
 440 105 442 94 514 94 c 2
 635 94 l 1
 635 0 l 1
 39 0 l 1
444 815 m 2
 444 792 447 783 535 768 c 0
 560 764 585 762 612 762 c 0
 805 762 913 901 913 1042 c 0
 913 1132.68554687 859.0828125 1317 594 1317 c 2
 524 1317 l 2
 483 1317 444 1312 444 1253 c 2
 444 815 l 2
EndSplineSet
Validated: 1
EndChar

StartChar: S
Encoding: 83 83 52
Width: 1062
GlyphClass: 2
Flags: HMW
HStem: -45 143<487 625> 983 43G<801 897 801 801> 1303 143<443 485 485 487>
VStem: 68 188<1042 1142 1042 1163> 82 104<111 444 442 444> 801 96<983 1319> 807 188<292 366>
LayerCount: 3
Fore
SplineSet
68 1036 m 0
 68 1290 340 1446 547 1446 c 0
 682 1446 809 1382 897 1319 c 1
 897 983 l 1
 801 983 l 1
 785 1253 593 1303 487 1303 c 2
 485 1303 l 2
 329 1303 256 1194 256 1090 c 0xf4
 256 996 321 952 356 932 c 0
 579.29620292 803.575758943 995 764.224869179 995 410 c 0
 995 174 776 -45 473 -45 c 0
 240 -45 102 91 82 111 c 1
 82 442 l 1
 186 444 l 1
 196 301 202 244 274 193 c 1
 329 152 430 98 545 98 c 0xea
 721 98 807 225 807 334 c 0xea
 807 397 778 459 731 502 c 0
 649 578 555 580 367 664 c 0
 261 711 68 809 68 1036 c 0
EndSplineSet
Validated: 1
EndChar

StartChar: T
Encoding: 84 84 53
Width: 1328
GlyphClass: 2
Flags: HMW
HStem: 2 92<318 486 486 497 826 992 318 486> 1278 129<786 801 801 826>
VStem: 38 94<1077 1401> 550 211<360 1036> 1189 94<1077 1116 1116 1117>
LayerCount: 3
Fore
SplineSet
764 1290 m 1
 764 117 l 1
 954 55 l 1
 954 0 l 1
 370 0 l 1
 370 55 l 1
 560 117 l 1
 560 1290 l 1
 165 1290 l 1
 115 1077 l 1
 47 1077 l 1
 47 1425 l 1
 1277 1425 l 1
 1277 1077 l 1
 1209 1077 l 1
 1159 1290 l 1
 764 1290 l 1
EndSplineSet
Layer: 2
SplineSet
66 1077 m 5
 66 1401 l 6
 66 1415 70 1423 82 1423 c 4
 102 1423 362 1407 684 1407 c 6
 692 1407 l 6
 1016 1407 1278 1423 1298 1423 c 4
 1308 1423 1311 1417 1311 1407 c 6
 1311 1077 l 5
 1217 1077 l 5
 1217 1116 l 6
 1217 1118 1176 1264 1176 1264 c 5
 1100 1276 1022 1278 946 1278 c 6
 829 1278 l 6
 798 1278 791 1266 791 1237 c 4
 789 1169 788 1104 788 1036 c 6
 788 360 l 6
 788 102 788 94 854 94 c 6
 1020 94 l 5
 1020 2 l 5
 346 2 l 5
 346 94 l 5
 514 94 l 6
 537 94 567 96 571 139 c 5
 575 213 578 286 578 360 c 6
 578 1036 l 6
 578 1257.2921875 580.12109375 1278 541 1278 c 6
 420 1278 l 6
 303 1278 198 1267 182 1257 c 5
 159 1245 162 1231 160 1077 c 5
 66 1077 l 5
EndSplineSet
EndChar

StartChar: U
Encoding: 85 85 54
Width: 1566
GlyphClass: 2
Flags: HMW
HStem: -45 143<757 849> 1317 94<39 182 39 639 476 496 496 639 1016 1141 1383 1403 1403 1528>
VStem: 233 211 1210 123
LayerCount: 3
Fore
SplineSet
39 1317 m 1
 39 1411 l 1
 639 1411 l 1
 639 1317 l 1
 496 1317 l 2
 457 1317 446 1301 446 1270 c 0
 444 1188 444 1106 444 1024 c 2
 444 555 l 1
 455 381 l 1
 492 174 659 98 854 98 c 0
 1202 98 1210 350 1210 483 c 2
 1210 1024 l 2
 1210 1302.9965193 1212.96824348 1317 1141 1317 c 2
 1016 1317 l 1
 1016 1411 l 1
 1528 1411 l 1
 1528 1317 l 1
 1403 1317 l 2
 1364 1317 1341 1309 1339 1266 c 0
 1335 1186 1333 1104 1333 1024 c 2
 1333 518 l 2
 1333 360 1330 109 1047 -2 c 1
 971 -33 891 -45 807 -45 c 0
 653 -45 430 6 319 170 c 0
 272 240 242 322 240 406 c 2
 233 655 l 1
 233 1024 l 2
 233 1302.06875 243.17265625 1317 182 1317 c 2
 39 1317 l 1
EndSplineSet
Validated: 33
EndChar

StartChar: V
Encoding: 86 86 55
Width: 1554
GlyphClass: 2
Flags: HMW
HStem: -45 43G<757 768> 1317 94<39 135 39 606 477 485 485 606 1024 1145 1390 1413 1413 1516>
LayerCount: 3
Fore
SplineSet
39 1317 m 1
 39 1411 l 1
 606 1411 l 1
 606 1317 l 1
 485 1317 l 2
 469 1317 446 1315 446 1292 c 0
 446 1278 469 1206 489 1153 c 2
 803 334 l 1
 811 334 l 1
 969 725 1184 1247 1184 1284 c 0
 1184 1311 1165 1317 1145 1317 c 2
 1024 1317 l 1
 1024 1411 l 1
 1516 1411 l 1
 1516 1317 l 1
 1413 1317 l 2
 1366 1317 1351 1308 1337 1292 c 0
 1282 1233 804 -6 786 -35 c 1
 778 -43 770 -45 766 -45 c 0
 748 -45 741 -24 735 -10 c 0
 282 1116 232 1255 197 1296 c 1
 181 1312 166 1317 135 1317 c 2
 39 1317 l 1
EndSplineSet
Validated: 1
EndChar

StartChar: W
Encoding: 87 87 56
Width: 2138
GlyphClass: 2
Flags: HMW
HStem: -45 43G<663 678 1462 1484> 1317 94<39 152 39 618 463 471 471 618 856 950 1242 1251 1251 1380 1630 1753 1978 1997 1997 2099>
VStem: 1032 186<1184 1286>
LayerCount: 3
Fore
SplineSet
39 1317 m 1
 39 1411 l 1
 618 1411 l 1
 618 1317 l 1
 471 1317 l 2
 455 1317 436 1313 436 1290 c 0
 436 1278 453 1214 469 1165 c 2
 725 391 l 1
 733 391 l 1
 1003 1104 1032 1171 1032 1196 c 0
 1032 1216 1007 1288 1001 1298 c 0
 991 1312 975 1317 950 1317 c 2
 856 1317 l 1
 856 1411 l 1
 1380 1411 l 1
 1380 1317 l 1
 1251 1317 l 2
 1233 1317 1219 1311 1219 1288 c 2
 1219 1286 l 2
 1219 1263 1222 1255 1513 391 c 1
 1518 391 l 1
 1688 934 1790 1245 1790 1284 c 0
 1790 1311 1773 1317 1753 1317 c 2
 1630 1317 l 1
 1630 1411 l 1
 2099 1411 l 1
 2099 1317 l 1
 1997 1317 l 2
 1960 1317 1943 1311 1931 1278 c 0
 1886 1151 1845 1020 1507 -10 c 1
 1503 -26 1496 -45 1473 -45 c 0
 1453 -45 1444 -26 1438 -8 c 2
 1098 1028 l 1
 1092 1028 l 1
 694.108154636 -44.9782668047 701.829570109 -45 674 -45 c 0
 651 -45 643 -24 639 -8 c 1
 209 1284 215 1278 199 1298 c 0
 185 1314 162 1317 152 1317 c 2
 39 1317 l 1
EndSplineSet
Validated: 1
EndChar

StartChar: X
Encoding: 88 88 57
Width: 1546
GlyphClass: 2
Flags: HMW
HStem: 0 94<39 156 156 178 424 569 39 156 913 1053 1053 1065> 1317 94<115 197 115 721 582 588 588 721 983 1067 1342 1374 1374 1507>
LayerCount: 3
Fore
SplineSet
39 0 m 1
 39 94 l 1
 156 94 l 2
 226.071091233 94 191.152024161 65.3257077645 688 719 c 1
 688 727 l 1
 278.217830515 1316.95449065 295.498702971 1317 197 1317 c 2
 115 1317 l 1
 115 1411 l 1
 721 1411 l 1
 721 1317 l 1
 588 1317 l 2
 576 1317 547 1317 547 1292 c 0
 547 1282 571 1239 614 1176 c 2
 815 883 l 1
 819 883 l 1
 1100 1250 1110 1266 1110 1286 c 0
 1110 1311 1090 1317 1067 1317 c 2
 983 1317 l 1
 983 1411 l 1
 1507 1411 l 1
 1507 1317 l 1
 1374 1317 l 2
 1276.2 1317 1299.8885876 1319.44591656 885 788 c 1
 885 784 l 1
 1352 104 1350 106 1395 96 c 1
 1458 92 l 1
 1507 92 l 1
 1507 0 l 1
 913 0 l 1
 913 94 l 1
 1053 94 l 2
 1078 94 1096 101 1096 121 c 2
 1096 123 l 2
 1096 135 1090 146 758 627 c 1
 754 627 l 1
 410 168 389 137 389 117 c 0
 389 94 412 94 424 94 c 2
 569 94 l 1
 569 0 l 1
 39 0 l 1
EndSplineSet
Validated: 33
EndChar

StartChar: Y
Encoding: 89 89 58
Width: 1550
GlyphClass: 2
Flags: HMW
HStem: 0 94<430 602 602 612 938 1104 430 602> 1317 94<39 135 39 616 495 502 502 616 989 1141 1386 1407 1407 1511>
VStem: 662 211<360 612>
LayerCount: 3
Fore
SplineSet
39 1317 m 1
 39 1411 l 1
 616 1411 l 1
 616 1317 l 1
 502 1317 l 2
 488 1317 473 1312 473 1298 c 0
 473 1284 481 1274 813 791 c 1
 819 791 l 1
 1046 1113 1167 1278 1167 1298 c 0
 1167 1312 1155 1317 1141 1317 c 2
 989 1317 l 1
 989 1411 l 1
 1511 1411 l 1
 1511 1317 l 1
 1407 1317 l 2
 1366 1317 1350 1307 1268 1192 c 1
 903 694 l 1
 887 674 872 657 872 612 c 2
 872 360 l 2
 872 102 872 94 938 94 c 2
 1104 94 l 1
 1104 0 l 1
 430 0 l 1
 430 94 l 1
 602 94 l 2
 622 94 651 96 655 139 c 1
 659 213 662 286 662 360 c 2
 662 621 l 2
 662 654 658 667 633 702 c 0
 193.728972977 1316.97943783 216.929787015 1317 135 1317 c 2
 39 1317 l 1
EndSplineSet
Validated: 1
EndChar

StartChar: Z
Encoding: 90 90 59
Width: 1304
GlyphClass: 2
Flags: HMW
HStem: 0 133 1294 117
VStem: 100 98<1059 1391> 1124 82<383 383>
LayerCount: 3
Fore
SplineSet
39 20 m 0
 39 51 70 41 238 291 c 2
 905 1286 l 1
 903 1294 l 1
 250 1269 268 1274 248 1260 c 1
 223 1246 226 1239 199 1059 c 1
 100 1059 l 1
 100 1391 l 2
 100 1405 105 1411 119 1411 c 2
 471 1411 l 2
 1046 1411 1118 1419 1190 1419 c 0
 1227 1419 1235 1403 1235 1391 c 0
 1235 1381 1229 1372 1225 1366 c 0
 477 281 385 147 385 143 c 0
 385 137 389 133 393 133 c 0
 456 133 520 135 1020 139 c 0
 1086 140 1096 174 1102 219 c 2
 1124 383 l 1
 1206 383 l 1
 1206 23 l 2
 1206 7 1202 -4 1184 -4 c 0
 1129 -4 963 0 629 0 c 0
 295 0 127 -4 72 -4 c 0
 45 -4 39 10 39 20 c 0
EndSplineSet
Validated: 1
EndChar

StartChar: bracketleft
Encoding: 91 91 60
Width: 614
GlyphClass: 2
Flags: HMW
HStem: -313 106<340 504 340 504> 1423 106<316 340 340 504>
VStem: 106 176<-167 -147 -147 1364>
LayerCount: 3
Fore
SplineSet
106 -291 m 2
 106 1507 l 2
 106 1525 115 1530 129 1530 c 2
 504 1530 l 1
 504 1423 l 1
 340 1423 l 2
 293 1423 283 1403 283 1364 c 2
 283 -147 l 2
 283 -186 293 -207 340 -207 c 2
 504 -207 l 1
 504 -313 l 1
 131 -313 l 2
 115 -313 106 -309 106 -291 c 2
EndSplineSet
Validated: 1
EndChar

StartChar: backslash
Encoding: 92 92 61
Width: 880
GlyphClass: 2
Flags: W
LayerCount: 3
Fore
SplineSet
25 1530 m 1
 141 1530 l 1
 856 -276 l 1
 739 -276 l 1
 25 1530 l 1
EndSplineSet
Validated: 1
EndChar

StartChar: bracketright
Encoding: 93 93 62
Width: 614
GlyphClass: 2
Flags: HMW
HStem: -313 106<109 272 272 296 109 481 109 272> 1423 106<109 272 109 483>
VStem: 330 176<-147 1364 1364 1383>
LayerCount: 3
Fore
SplineSet
109 -207 m 1
 272 -207 l 2
 319 -207 330 -186 330 -147 c 2
 330 1364 l 2
 330 1403 319 1423 272 1423 c 2
 109 1423 l 1
 109 1530 l 1
 483 1530 l 2
 499 1530 506 1525 506 1507 c 2
 506 -291 l 2
 506 -309 499 -313 481 -313 c 2
 109 -313 l 1
 109 -207 l 1
EndSplineSet
Validated: 1
EndChar

StartChar: asciicircum
Encoding: 94 94 63
Width: 1024
GlyphClass: 2
Flags: W
LayerCount: 3
Fore
SplineSet
109 348 m 1
 455 1055 l 1
 569 1055 l 1
 915 348 l 1
 795 348 l 1
 522 905 l 1
 502 905 l 1
 229 348 l 1
 109 348 l 1
EndSplineSet
Validated: 1
EndChar

StartChar: underscore
Encoding: 95 95 64
Width: 1024
GlyphClass: 2
Flags: HMW
HStem: -250 106<-10 1034 -10 1034>
LayerCount: 3
Fore
SplineSet
-10 -143 m 1
 1034 -143 l 1
 1034 -250 l 1
 -10 -250 l 1
 -10 -143 l 1
EndSplineSet
Validated: 1
EndChar

StartChar: grave
Encoding: 96 96 65
Width: 819
GlyphClass: 2
Flags: HMW
PickledData: "(dp1
S'spacing_anchors_slanted'
p2
I00
s."
HStem: 1110 317<360 623>
VStem: 289 354<1133 1353>
LayerCount: 3
Fore
SplineSet
289 1329 m 0
 289 1376 342 1427 379 1427 c 0
 412 1427 441 1394 455 1378 c 0
 592 1218 643 1155 643 1139 c 0
 643 1127 630 1110 614 1110 c 0
 598 1110 567 1129 555 1135 c 0
 346 1248 289 1276 289 1329 c 0
EndSplineSet
Validated: 1
EndChar

StartChar: a
Encoding: 97 97 66
Width: 994
GlyphClass: 2
Flags: HW
PickledData: "(dp1
S'spacing_anchors_slanted'
p2
I00
s."
HStem: -34 135<314.846 506.744> 36 52<953.869 1006> 431 69<616.895 676> 889 75<401.427 608.263>
VStem: 96 187<130.519 337.581> 136 176<652 807.225> 676 188<88 103 148.162 431 500 816.731>
LayerCount: 3
Fore
SplineSet
636 622 m 2xba
 636 731 632 889 460 889 c 0
 368 889 272 804 272 652 c 1
 99 624 l 1
 97 635 96 656 96 667 c 0
 96 800 215 964 474 964 c 0
 773 964 824 794 824 574 c 2
 824 88 l 1
 966 88 l 9
 966 36 l 25x76
 646 -52 l 17
 646 103 l 1
 494 29 412 -34 327 -34 c 0
 191 -34 56 67 56 240 c 0
 56 285 70 409 185 428 c 2
 636 500 l 1
 636 622 l 2xba
636 165 m 1
 636 431 l 1
 401 374 l 2
 250 338 243 319 243 252 c 0
 243 153 288 101 385 101 c 0xba
 447 101 530 122 636 165 c 1
EndSplineSet
Layer: 2
SplineSet
101 230 m 0xba
 101 377 197 385 199 385 c 2
 676 490 l 1
 676 596 l 2
 676 784 627 882 499 882 c 0
 348 882 296 793 296 654 c 0
 296 644 297 634 297 624 c 1
 124 591 l 1
 122 603 121 610 121 622 c 0
 121 802 361 972 581 972 c 0
 727 972 864 887 864 654 c 2
 864 88 l 1
 1006 88 l 9
 1006 36 l 25x76
 686 -52 l 17
 686 103 l 1
 516 3 l 2
 483.048843188 -16.383033419 434 -34 372 -34 c 0
 236 -34 101 57 101 230 c 0xba
288 218 m 0xba
 288 164 321 101 420 101 c 0
 483 101 568 121 676 165 c 1
 676 421 l 1
 477 361 l 2
 298 307 288 291 288 218 c 0xba
EndSplineSet
EndChar

StartChar: b
Encoding: 98 98 67
Width: 1183
GlyphClass: 2
Flags: HMW
PickledData: "(dp1
S'spacing_anchors_slanted'
p2
I00
s."
HStem: -35 129<590 620> 852 158<550 851 591 851> 1358 98<10 124 10 10> 1442 41G<379 394>
VStem: 192 197<360 803> 907 195<453 627 492 521>
LayerCount: 3
Fore
SplineSet
702 958 m 0
 984 958 1116 746 1116 519 c 0
 1116 187 870 -32 618 -32 c 0
 503 -32 387 14 293 115 c 1
 253 0 l 1
 193 0 l 1
 193 1350 l 1
 10 1350 l 1
 9 1400 l 1
 337 1545 l 1
 381 1545 l 1
 381 849 l 1
 534 912 612 958 702 958 c 0
382 313 m 2
 382 148 498 59 622 59 c 0
 819 59 919 246 919 437 c 0
 919 652 805 841 593 841 c 0
 531 841 460 825 382 788 c 1
 382 313 l 2
EndSplineSet
Validated: 1
Layer: 2
SplineSet
524 1400 m 1
 852 1545 l 1
 896 1545 l 1
 896 849 l 1
 1000 896 1099 956 1188 956 c 0
 1483.37792969 956 1622.34082031 742.138671875 1622.34082031 513.717773438 c 0
 1622.34082031 223.041992188 1386.94335938 -20.953125 1133.05859375 -20.953125 c 0
 1022.21289062 -20.953125 907.841796875 25.5576171875 808 135 c 1
 808 0 l 1
 708 0 l 1
 708 1350 l 1
 525 1350 l 1
 524 1400 l 1
897 783 m 1
 897 333 l 2
 897 188.776367188 1040.19433594 96.30078125 1182.82421875 96.30078125 c 0
 1375.06835938 96.30078125 1466.31640625 247.370117188 1466.31640625 412.498046875 c 0
 1466.31640625 663.080078125 1279.28417969 830.9453125 1077.96191406 830.9453125 c 0
 1017.36523438 830.9453125 955.474609375 815.737304688 897 783 c 1
24 1400 m 1
 352 1545 l 1
 396 1545 l 1
 396 849 l 1
 499.73046875 896.109375 598.435546875 956.401367188 687.6640625 956.401367188 c 0
 940.041015625 956.401367188 1116.59909475 793.062406794 1116.59909475 493.51514228 c 0
 1116.59909475 186.25784345 893.764811489 -29.35069327 650.811500028 -29.35069327 c 0
 533.640764637 -29.35069327 411.790526948 20.7978841413 308 135 c 1
 308 0 l 1
 208 0 l 1
 208 1350 l 1
 25 1350 l 1
 24 1400 l 1
397 303 m 2
 397 170.813053019 502.963261003 96.3486641432 619.130851941 96.3486641432 c 0
 817.981352005 96.3486641432 916.388038031 276.680046488 916.388038031 461.163621743 c 0
 916.388038031 654.343018516 808.485712529 852.075269257 595.020047499 852.075269257 c 0
 536.18148182 852.075269257 469.972839612 836.940855634 397 803 c 1
 397 303 l 2
EndSplineSet
EndChar

StartChar: c
Encoding: 99 99 68
Width: 929
GlyphClass: 2
Flags: W
PickledData: "(dp1
S'spacing_anchors_slanted'
p2
I00
s."
HStem: -27 155<366.685 654.403> 870 102<353.912 596.819>
VStem: 47 142<327.476 655.402> 666 167<707 797.274>
LayerCount: 3
Fore
SplineSet
47 432 m 0
 47 788 322 972 547 972 c 0
 701 972 832 885 833 707 c 1
 666 659 l 1
 652 776 606 870 463 870 c 0
 278 870 189 684 189 534 c 0
 189 338 304 128 528 128 c 0
 749 128 785 252 785 260 c 1
 851 244 l 1
 848 240 786 -27 450 -27 c 0
 226 -27 47 136 47 432 c 0
EndSplineSet
Validated: 1
Layer: 2
SplineSet
47 432 m 4
 47 788 322 972 547 972 c 4
 701 972 832 885 833 707 c 5
 666 659 l 5
 652 776 606 870 463 870 c 4
 278 870 189 684 189 534 c 4
 189 338 304 128 528 128 c 4
 749 128 785 252 785 260 c 5
 851 244 l 5
 848 240 786 -27 450 -27 c 4
 226 -27 47 136 47 432 c 4
EndSplineSet
EndChar

StartChar: d
Encoding: 100 100 69
Width: 1176
GlyphClass: 2
Flags: HMW
PickledData: "(dp1
S'spacing_anchors_slanted'
p2
I00
s."
HStem: -35 143<396 610> 0 82<1032 1155 1032 1155> 862 123<458 625 551 625> 1358 98<596 711 596 596> 1442 41G<966 980>
VStem: 61 182<418 545> 780 195<437 438 438 541 437 768>
LayerCount: 3
Fore
SplineSet
778 160 m 1
 778 793 l 1
 711 835 634 857 560 857 c 0
 395 857 243 748 243 512 c 0
 243 251 420 109 600 109 c 0
 661 109 723 126 778 160 c 1
67 405 m 0
 67 711 342 953 636 953 c 0
 686 953 735 945 778 930 c 1
 778 1350 l 1
 575 1350 l 1
 574 1400 l 1
 922 1545 l 1
 966 1545 l 1
 966 88 l 1
 1118 88 l 1
 1118 36 l 1
 789 -52 l 1
 789 93 l 1
 640 20 579 -37 484 -37 c 0
 280 -37 67 138 67 405 c 0
EndSplineSet
Validated: 1
Layer: 2
SplineSet
778 160 m 1
 778 793 l 1
 711 835 634 857 560 857 c 0
 395 857 243 748 243 512 c 0
 243 251 420 109 600 109 c 0
 661 109 723 126 778 160 c 1
778 930 m 1
 778 1350 l 1
 575 1350 l 1
 574 1400 l 1
 922 1545 l 1
 966 1545 l 1
 966 88 l 1
 1118 88 l 1
 1118 36 l 1
 789 -52 l 1
 789 93 l 1
 640 20 579 -37 484 -37 c 0
 250 -37 77.2864784744 181.473346976 77.2864784744 383.839891229 c 0
 77.2864784744 648.181278955 270.050405955 953 638 953 c 0
 688 953 736 945 778 930 c 1
EndSplineSet
EndChar

StartChar: e
Encoding: 101 101 70
Width: 937
GlyphClass: 2
Flags: W
PickledData: "(dp1
S'spacing_anchors_slanted'
p2
I00
s."
HStem: -27 155<365.71 654.403> 553 70<193 655> 873 97<332.261 615.5>
VStem: 47 145<327.293 553 623 657.343>
LayerCount: 3
Fore
SplineSet
47 432 m 0
 47 711 222 970 544 970 c 0
 687 970 853 851 853 631 c 0
 853 609 852 587 847 559 c 1
 192 553 l 1
 193 352 280 128 528 128 c 0
 749 128 785 252 785 260 c 1
 851 244 l 1
 848 240 786 -27 450 -27 c 0
 226 -27 47 136 47 432 c 0
193 623 m 1
 655 632 l 1
 631 780 528 873 418 873 c 0
 308 873 209 782 193 623 c 1
EndSplineSet
Validated: 1
Layer: 2
SplineSet
47 432 m 0
 47 711 222 970 544 970 c 0
 687 970 853 851 853 631 c 0
 853 609 852 587 847 559 c 1
 192 553 l 1
 193 352 280 128 528 128 c 0
 749 128 785 252 785 260 c 1
 851 244 l 1
 848 240 786 -27 450 -27 c 0
 226 -27 47 136 47 432 c 0
193 623 m 1
 655 632 l 1
 631 780 528 873 418 873 c 0
 308 873 209 782 193 623 c 1
EndSplineSet
EndChar

StartChar: f
Encoding: 102 102 71
Width: 677
GlyphClass: 2
Flags: W
PickledData: "(dp1
S'spacing_anchors_slanted'
p2
I00
s."
HStem: 0 45<551.258 600> 820 110<65 208 396 671> 1398 148<568.86 783.5>
VStem: 208 188<105 820 930 1181.24>
LayerCount: 3
Fore
SplineSet
790 1330 m 1
 717 1366 639 1398 572 1398 c 0
 472 1398 396 1328 396 1099 c 2
 396 930 l 1
 671 930 l 1
 671 820 l 1
 396 820 l 1
 396 105 l 1
 600 45 l 1
 600 0 l 1
 65 0 l 1
 65 45 l 1
 208 105 l 1
 208 820 l 1
 65 820 l 1
 65 930 l 1
 208 930 l 1
 208 986 l 2
 208 1302 532 1546 743 1546 c 0
 782 1546 818 1537 847 1519 c 1
 790 1330 l 1
EndSplineSet
Validated: 1
Layer: 2
SplineSet
790 1330 m 1xb8
 717 1366 639 1398 572 1398 c 0
 472 1398 396 1328 396 1099 c 2
 396 920 l 1
 671 920 l 1
 671 820 l 1
 396 820 l 1xd8
 396 105 l 1
 600 45 l 1
 600 0 l 1
 65 0 l 1
 65 45 l 1
 208 105 l 1
 208 820 l 1
 65 820 l 1
 65 870 l 1
 208 915 l 1
 208 986 l 2
 208 1302 532 1546 743 1546 c 0
 782 1546 818 1537 847 1519 c 1
 790 1330 l 1xb8
EndSplineSet
EndChar

StartChar: g
Encoding: 103 103 72
Width: 1038
GlyphClass: 2
Flags: W
PickledData: "(dp1
S'spacing_anchors_slanted'
p2
I00
s."
HStem: -499 85<315.085 692.76> 836 90<785 973> 868 88<334.161 573.553>
VStem: 34 175<-324.918 -133.919> 114 165<519.055 767.487> 126 104<128 267.839> 675 166<520.815 762.215> 829 170<-279.699 -107.959>
LayerCount: 3
Fore
SplineSet
513 411 m 0xaa
 599 411 675 471 675 603 c 0
 675 725 597 868 450 868 c 0
 333 868 279 778 279 673 c 0
 279 513 399 411 513 411 c 0xaa
829 -199 m 0x91
 829 -126 765 -54 606 -40 c 0
 560 -36 584 -42 371 -27 c 1
 265 -65 209 -146 209 -220 c 0
 209 -348 353 -414 502 -414 c 0
 662 -414 829 -338 829 -199 c 0x91
34 -256 m 0
 34 -137 144 -44 288 -9 c 1
 223 15 126 84 126 172 c 0xc4
 126 266 198 298 318 340 c 1
 176 410 114 516 114 620 c 0
 114 790 280 956 535 956 c 0xa8
 597 956 655 945 699 926 c 1
 973 926 l 1
 973 836 l 1
 785 836 l 1
 820 788 841 736 841 676 c 0
 841 525 719 354 453 324 c 1
 346 313 230 259 230 221 c 0xc6
 230 69 999 239 999 -127 c 0
 999 -348 756 -499 453 -499 c 0
 236 -499 34 -412 34 -256 c 0
EndSplineSet
Validated: 1
Layer: 2
SplineSet
512 416 m 0xd5
 596 416 671 475 671 604 c 0
 671 724 595 864 451 864 c 0
 336 864 283 775 283 672 c 0
 283 515 400 416 512 416 c 0xd5
594 -33 m 0
 548 -33 572 -36 359 -40 c 1
 270 -81 223 -156 223 -230 c 0
 223 -320 298 -409 485 -409 c 0
 709 -409 830 -284 830 -180 c 0xc880
 830 -103 763 -33 594 -33 c 0
302 341 m 1
 180 401 123 504 123 622 c 0
 123 939 569 962 584 962 c 0xd4
 619 962 653 945 695 926 c 1
 973 926 l 1
 973 836 l 1
 779 836 l 1
 796 816 834 762 834 670 c 0
 834 488 681 352 418 323 c 0
 313 312 230 259 230 221 c 0xe3
 230 169 344 152 511 152 c 0
 706 152 994 130 994 -104 c 0
 994 -365 677 -499 409 -499 c 0
 212 -499 42 -427 42 -278 c 0xe880
 42 -182 122 -82 275 -30 c 1
 208 -12 126 84 126 172 c 0xe2
 126 266 184 300 302 341 c 1
EndSplineSet
EndChar

StartChar: h
Encoding: 104 104 73
Width: 1300
GlyphClass: 2
Flags: HMW
PickledData: "(dp1
S'spacing_anchors_slanted'
p2
I00
s."
HStem: 0 82<27 152 152 171 457 582 27 152 723 848 848 867 1153 1278> 842 156<722 799 722 801> 1358 98<25 139 25 25> 1442 41G<394 409>
VStem: 207 195<360 752> 903 195<360 608>
LayerCount: 3
Fore
SplineSet
24 1400 m 1
 352 1545 l 1
 396 1545 l 1
 396 750 l 1
 470 891 608 975 759 975 c 0
 1078 975 1096 671 1096 454 c 2
 1096 105 l 1
 1270 45 l 1
 1270 0 l 1
 745 0 l 1
 745 45 l 1
 908 105 l 1
 908 451 l 2
 908 604 894 838 671 838 c 0
 539 838 396 732 396 548 c 2
 396 105 l 1
 580 45 l 1
 580 0 l 1
 35 0 l 1
 35 45 l 1
 208 105 l 1
 208 1350 l 1
 25 1350 l 1
 24 1400 l 1
EndSplineSet
Validated: 1
EndChar

StartChar: i
Encoding: 105 105 74
Width: 589
GlyphClass: 2
Flags: HMW
PickledData: "(dp1
S'spacing_anchors_slanted'
p2
I00
s."
HStem: 0 82<27 147 147 167 453 565 27 147> 870 82<29 63 63 115 29 63> 938 41G<387 395> 1180 223<281 341 281 344>
VStem: 201 223<1262 1322> 203 195<416 600 600 614>
LayerCount: 3
Fore
SplineSet
24 840 m 1
 352 985 l 1
 396 985 l 1
 396 105 l 1
 570 45 l 1
 570 0 l 1
 25 0 l 1
 25 45 l 1
 208 105 l 1
 208 790 l 1
 25 790 l 1
 24 840 l 1
201 1292 m 0x98
 201 1351 250 1403 311 1403 c 0
 370 1403 424 1358 424 1292 c 0
 424 1231 377 1180 311 1180 c 0
 245 1180 201 1231 201 1292 c 0x98
EndSplineSet
Validated: 1
EndChar

StartChar: j
Encoding: 106 106 75
Width: 589
GlyphClass: 2
Flags: HMW
PickledData: "(dp1
S'spacing_anchors_slanted'
p2
I00
s."
HStem: 870 82<87 121 121 173 87 121> 938 41G<445 453> 1180 223<339 399 339 402>
VStem: 259 223<1262 1322> 261 201<96 97 96 600>
LayerCount: 3
Fore
SplineSet
21 -263 m 1
 60 -263 l 1
 200 -376 l 1
 246 -376 268 -237 268 -84 c 2
 268 790 l 1
 85 790 l 1
 84 840 l 1
 412 985 l 1
 456 985 l 1
 456 100 l 2
 456 -165.9296875 376.706054688 -346.973632812 264.866210938 -429 c 0
 225.811523438 -457.643554688 190 -479 127 -479 c 1
 21 -459 l 1
 21 -263 l 1
261 1292 m 0x98
 261 1351 310 1403 371 1403 c 0
 430 1403 484 1358 484 1292 c 0
 484 1231 437 1180 371 1180 c 0
 305 1180 261 1231 261 1292 c 0x98
EndSplineSet
Layer: 2
SplineSet
456 100 m 6
 456 -257.887317292 309.545411958 -479 119 -479 c 4
 80 -479 45 -469 21 -459 c 5
 21 -263 l 5
 60 -263 l 5
 200 -376 l 5
 246 -376 268 -237 268 -84 c 6
 268 790 l 5
 85 790 l 5
 84 840 l 5
 412 985 l 5
 456 985 l 5
 456 100 l 6
261 1292 m 4x98
 261 1351 310 1403 371 1403 c 4
 430 1403 484 1358 484 1292 c 4
 484 1231 437 1180 371 1180 c 4
 305 1180 261 1231 261 1292 c 4x98
21 -263 m 1
 60 -263 l 1
 200 -376 l 1
 246 -376 268 -237 268 -84 c 2
 268 790 l 1
 85 790 l 1
 84 840 l 1
 412 985 l 1
 456 985 l 1
 456 100 l 2
 456 -165.9296875 376.706054688 -346.973632812 264.866210938 -429 c 0
 225.811523438 -457.643554688 190 -479 127 -479 c 1
 21 -459 l 1
 21 -263 l 1
261 1292 m 0x98
 261 1351 310 1403 371 1403 c 0
 430 1403 484 1358 484 1292 c 0
 484 1231 437 1180 371 1180 c 0
 305 1180 261 1231 261 1292 c 0x98
EndSplineSet
EndChar

StartChar: k
Encoding: 107 107 76
Width: 1146
GlyphClass: 2
Flags: HMW
PickledData: "(dp1
S'spacing_anchors_slanted'
p2
I00
s."
HStem: 0 82<27 152 152 171 451 575 27 152 668 758 758 766 1130 1182> 870 82<659 737 659 1133 1028 1069 1069 1133> 1358 98<25 139 25 25> 1442 41G<394 409>
VStem: 207 195<563 696 563 971>
LayerCount: 3
Fore
SplineSet
724 835 m 1
 580 895 l 1
 580 940 l 1
 1035 940 l 1
 1035 895 l 1
 862 835 l 1
 540 568 l 1
 956 105 l 1
 1120 45 l 1
 1120 0 l 1
 795 0 l 1
 396 493 l 1
 396 105 l 1
 570 45 l 1
 570 0 l 1
 25 0 l 1
 25 45 l 1
 208 105 l 1
 208 1350 l 1
 25 1350 l 1
 24 1400 l 1
 352 1545 l 1
 396 1545 l 1
 396 539 l 1
 724 835 l 1
EndSplineSet
Validated: 1
EndChar

StartChar: l
Encoding: 108 108 77
Width: 606
GlyphClass: 2
Flags: HMW
PickledData: "(dp1
S'spacing_anchors_slanted'
p2
I00
s."
HStem: 0 82<27 152 152 171 457 582 27 152> 1358 98<25 139 25 25> 1442 41G<394 409>
VStem: 207 195<360 774>
LayerCount: 3
Fore
SplineSet
24 1400 m 1
 352 1545 l 1
 396 1545 l 1
 396 105 l 1
 570 45 l 1
 570 0 l 1
 25 0 l 1
 25 45 l 1
 208 105 l 1
 208 1350 l 1
 25 1350 l 1
 24 1400 l 1
EndSplineSet
Validated: 1
EndChar

StartChar: m
Encoding: 109 109 78
Width: 1944
GlyphClass: 2
Flags: W
PickledData: "(dp1
S'spacing_anchors_slanted'
p2
I00
s."
HStem: 0 21G<35 570 733 1228 1391 1906> 823 137<590.288 803.621 1249.99 1471.66>
VStem: 208 188<105 679.649> 208 156<659 790> 876 188<105 701.816> 1544 188<105 743.739>
LayerCount: 3
Fore
SplineSet
34 840 m 1xdc
 334 972 l 1
 364 972 l 1
 364 659 l 1xdc
 424 845 612 960 759 960 c 0
 962 960 1011 837 1043 692 c 1
 1086 825 1245 960 1427 960 c 0
 1727 960 1732 691 1732 479 c 2
 1732 105 l 1
 1906 45 l 1
 1906 0 l 1
 1391 0 l 1
 1391 45 l 1
 1544 105 l 1
 1544 504 l 2
 1544 649 1541 823 1339 823 c 0
 1165 823 1061 674 1061 574 c 0
 1061 548 1064 511 1064 439 c 2
 1064 105 l 1
 1228 45 l 1
 1228 0 l 1
 733 0 l 1
 733 45 l 1
 876 105 l 1
 876 481 l 2
 876 631 873 823 671 823 c 0
 548.222767713 823 396 698.33633681 396 533 c 2
 396 105 l 1
 570 45 l 1
 570 0 l 1
 35 0 l 1
 35 45 l 1
 208 105 l 1xec
 208 790 l 1
 35 790 l 1
 34 840 l 1xdc
EndSplineSet
Validated: 1
Layer: 2
SplineSet
34 840 m 1
 334 972 l 1
 364 972 l 1
 364 674 l 1
 424 860 612 975 759 975 c 0
 962 975 1023 852 1055 707 c 1
 1122 873 1305 975 1458 975 c 0
 1773 975 1775 678 1775 462 c 2
 1775 105 l 1
 1949 45 l 1
 1949 0 l 1
 1434 0 l 1
 1434 45 l 1
 1587 105 l 1
 1587 499 l 2
 1587 648 1582 838 1370 838 c 0
 1281 838 1168 790 1116 703 c 0
 1080 642 1073 625 1073 589 c 0
 1073 563 1076 526 1076 454 c 2
 1076 105 l 1
 1240 45 l 1
 1240 0 l 1
 735 0 l 1
 735 45 l 1
 888 105 l 1
 888 475 l 2
 888 627 883 838 671 838 c 0
 561 838 396 732 396 548 c 2
 396 105 l 1
 570 45 l 1
 570 0 l 1
 35 0 l 1
 35 45 l 1
 208 105 l 1
 208 790 l 1
 35 790 l 1
 34 840 l 1
EndSplineSet
EndChar

StartChar: n
Encoding: 110 110 79
Width: 1296
GlyphClass: 2
Flags: HMW
PickledData: "(dp1
S'spacing_anchors_slanted'
p2
I00
s."
HStem: 0 82<27 152 152 171 457 573 27 152 725 842 842 861 1147 1272> 838 145<679 697> 870 82<25 94 25 98>
VStem: 207 195<412 416 416 610 610 721> 897 195<414 641 641 666>
LayerCount: 3
Fore
SplineSet
34 840 m 1
 334 972 l 1
 364 972 l 1
 364 659 l 1
 424 845 582 960 759 960 c 0
 1078 960 1096 656 1096 439 c 2
 1096 105 l 1
 1270 45 l 1
 1270 0 l 1
 745 0 l 1
 745 45 l 1
 908 105 l 1
 908 436 l 2
 908 589 894 823 671 823 c 0
 539 823 396 717 396 533 c 2
 396 105 l 1
 560 45 l 1
 560 0 l 1
 35 0 l 1
 35 45 l 1
 208 105 l 1
 208 790 l 1
 35 790 l 1
 34 840 l 1
EndSplineSet
Validated: 1
Layer: 2
SplineSet
34 840 m 1
 334 972 l 1
 364 972 l 1
 364 674 l 1
 424 860 582 975 759 975 c 0
 1078 975 1096 671 1096 454 c 2
 1096 105 l 1
 1270 45 l 1
 1270 0 l 1
 745 0 l 1
 745 45 l 1
 908 105 l 1
 908 451 l 2
 908 604 894 838 671 838 c 0
 539 838 396 732 396 548 c 2
 396 105 l 1
 580 45 l 1
 580 0 l 1
 35 0 l 1
 35 45 l 1
 208 105 l 1
 208 790 l 1
 35 790 l 1
 34 840 l 1
EndSplineSet
EndChar

StartChar: o
Encoding: 111 111 80
Width: 1234
GlyphClass: 2
Flags: W
PickledData: "(dp1
S'spacing_anchors_slanted'
p2
I00
s."
HStem: -30 96<492.556 796.944> 874 98<409.825 719.376>
VStem: 77 190<311.905 651.869> 938 191<293.532 622.196>
LayerCount: 3
Fore
SplineSet
77 450 m 0
 77 742 330 972 626 972 c 0
 912 972 1129 756 1129 493 c 0
 1129 191 847 -30 594 -30 c 0
 319 -30 77 164 77 450 c 0
267 526 m 0
 267 307 405 66 663 66 c 0
 851 66 938 226 938 404 c 0
 938 625 803 874 560 874 c 0
 362 874 267 707 267 526 c 0
EndSplineSet
Validated: 1
Layer: 2
SplineSet
77 450 m 4
 77 742 330 972 626 972 c 4
 912 972 1129 756 1129 493 c 4
 1129 191 847 -30 594 -30 c 4
 319 -30 77 164 77 450 c 4
267 526 m 4
 267 307 405 66 663 66 c 4
 851 66 938 226 938 404 c 4
 938 625 803 874 560 874 c 4
 362 874 267 707 267 526 c 4
EndSplineSet
EndChar

StartChar: p
Encoding: 112 112 81
Width: 1175
GlyphClass: 2
Flags: HMW
PickledData: "(dp1
S'spacing_anchors_slanted'
p2
I00
s."
HStem: -442 82<25 152 152 173 451 592 25 152> -20 127<575 617> 836 160<651 696> 870 82<25 94 25 98> 938 41G<392 399>
VStem: 207 195<414 610 610 721> 930 184<478 518 518 520 478 592>
LayerCount: 3
Fore
SplineSet
395 10 m 1
 395 -350 l 1
 594 -410 l 1
 594 -455 l 1
 24 -455 l 1
 24 -410 l 1
 207 -350 l 1
 207 790 l 1
 24 790 l 1
 23 840 l 1
 351 985 l 1
 395 985 l 1
 395 837 l 1
 530 902 634 965 733 965 c 0
 991 965 1126 750 1126 521 c 0
 1126 259 949 -12 577 -12 c 0
 516 -12 395 10 395 10 c 1
625 838 m 0
 518 838 426 788 395 775 c 1
 395 116 l 1
 395 116 502 73 575 73 c 0
 832 73 948 256 948 449 c 0
 948 643 831 838 625 838 c 0
EndSplineSet
Validated: 1
Layer: 2
SplineSet
25 -360 m 5
 152 -360 l 6
 195 -360 201 -336 201 -299 c 4
 205 -61 207 176 207 414 c 6
 207 610 l 5
 207.002259727 631.674239641 l 6
 207.002259727 833.577784055 205.134453782 870 94 870 c 6
 25 870 l 5
 25 952 l 5
 98 952 l 6xd6
 264 952 389 979 395 979 c 4xce
 403 979 408 973 408 963 c 6
 408 891 l 5
 414 889 l 5
 582 989 l 5
 611 993 637 995 666 995 c 4
 860.507617188 995 1114 900 1114 520 c 6
 1114 518 l 6
 1114 438 1112 256 926 123 c 5
 787 25 652 -20 584 -20 c 4
 510 -20 434 19 401 37 c 5
 395 33 l 5
 395 -43 l 6
 395 -346.125 396.84453125 -360 451 -360 c 6
 592 -360 l 5
 592 -442 l 5
 25 -442 l 5
 25 -360 l 5
401 197 m 5
 458 136 538 106 612 106 c 4xe6
 739 106 930 201 930 477 c 4
 930 706 788 836 604 836 c 4
 534 836 462 817 401 780 c 5
 401 197 l 5
EndSplineSet
EndChar

StartChar: q
Encoding: 113 113 82
Width: 1031
GlyphClass: 2
Flags: HMW
PickledData: "(dp1
S'spacing_anchors_slanted'
p2
I00
s."
HStem: -442 82<608 735 735 755 1034 1165 608 735> -20 129<482 525> 870 125<575 635 575 635>
VStem: 61 201<435 526 526 528 435 608> 784 195<295 418 418 614>
LayerCount: 3
Fore
SplineSet
437 -13 m 0
 224 -13 26 149 26 435 c 0
 26 750 294 962 581 962 c 0
 672 962 765 941 852 894 c 1
 892 985 l 1
 942 985 l 1
 942 -350 l 1
 1125 -410 l 1
 1125 -455 l 1
 555 -455 l 1
 555 -410 l 1
 754 -350 l 1
 754 115 l 1
 654 60 570 -13 437 -13 c 0
207 521 m 0
 207 268 378 115 553 115 c 0
 623 115 693 139 754 191 c 1
 754 775 l 1
 672 847 586 880 507 880 c 0
 341 880 207 737 207 521 c 0
EndSplineSet
Validated: 1
Layer: 2
SplineSet
61 444 m 4
 61 772 377 993 633 995 c 5
 635 995 l 6
 780 995 865 932 877 932 c 4
 895 932 930 983 961 983 c 4
 971 983 987 977 987 948 c 4
 987 942 979 858 979 614 c 6
 979 418 l 6
 979 172 983 -302 987 -322 c 5
 991 -359 1016 -360 1034 -360 c 6
 1165 -360 l 5
 1165 -442 l 5
 608 -442 l 5
 608 -360 l 5
 735 -360 l 6
 774 -360 782 -342 784 -299 c 4
 788 -213 791 -129 791 -43 c 6
 791 63 l 5
 784 68 l 5
 608 -8 l 5
 575 -16 543 -20 508 -20 c 4
 268 -20 61 176 61 444 c 4
262 526 m 6
 262 344 371 109 594 109 c 4
 651 109 714 123 784 158 c 5
 784 797 l 5
 727 844 652 870 578 870 c 6
 575 870 l 5
 421 868 262 753 262 528 c 6
 262 526 l 6
EndSplineSet
EndChar

StartChar: r
Encoding: 114 114 83
Width: 875
GlyphClass: 2
Flags: HMW
PickledData: "(dp1
S'spacing_anchors_slanted'
p2
I00
s."
HStem: 0 82<27 152 152 171 457 582 27 152> 825 176<526 694> 870 82<25 94 25 98> 938 41G<392 399>
VStem: 207 195<414 610 610 674>
LayerCount: 3
Fore
SplineSet
34 840 m 1
 334 972 l 1
 364 972 l 1
 364 683 l 2
 364.013394448 683.049112974 505.596246055 961 668 961 c 0
 722 961 785 942 845 893 c 1
 741 699 l 1
 676 752 609 785 551 785 c 0
 462 785 396 708 396 512 c 2
 396 105 l 1
 580 45 l 1
 580 0 l 1
 35 0 l 1
 35 45 l 1
 208 105 l 1
 208 790 l 1
 35 790 l 1
 34 840 l 1
EndSplineSet
Validated: 1
Layer: 2
SplineSet
748 750 m 0
 656 750 677 829 583 829 c 0
 510 829 396 682 396 512 c 2
 396 105 l 1
 580 45 l 1
 580 0 l 1
 35 0 l 1
 35 45 l 1
 208 105 l 1
 208 790 l 1
 35 790 l 1
 34 840 l 1
 334 972 l 1
 364 972 l 1
 364 683 l 1
 415 873 588 971 713 971 c 0
 791 971 851 933 851 855 c 0
 851 802 813 750 748 750 c 0
EndSplineSet
EndChar

StartChar: s
Encoding: 115 115 84
Width: 812
GlyphClass: 2
Flags: W
HStem: -28 92<251.188 513.553> 872 98<256.156 504.318>
VStem: 66 50<255.841 302> 72 146<668.889 805.746> 563 164<133.419 295.537> 633 50<663 709.776>
LayerCount: 3
Fore
SplineSet
633 663 m 1xd4
 567 816 459 872 369 872 c 0
 283 872 218 815 218 750 c 0xd4
 218 559 727 575 727 282 c 0
 727 93 539 -28 345 -28 c 0
 163 -28 66 88 66 88 c 1
 66 302 l 1
 116 302 l 1
 208 91 305 64 385 64 c 0
 511 64 563 149 563 209 c 0xe8
 563 409 72 392 72 684 c 0
 72 806 230 970 408 970 c 0
 561 970 683 899 683 899 c 1
 683 663 l 1
 633 663 l 1xd4
EndSplineSet
Validated: 1
Layer: 2
SplineSet
86 674 m 4
 86 897.908203125 338.79453125 1004 465 1004 c 6
 475 1004 l 6
 557 1004 660 983 752 922 c 5
 752 662 l 5
 659 662 l 5xe4
 636 758 645 801 582 848 c 4
 545 875 499 891 442 891 c 4
 329 891 242 834 242 748 c 4
 242 693 279 639 383 608 c 4
 528 565 799 553 799 295 c 4xe8
 799 103.085087502 597.5783804 -33 399 -33 c 4
 299 -33 188 -8 90 66 c 5
 90 324 l 5
 164 324 l 5
 178.833934867 258.730686587 197.605005488 82 449 82 c 4
 594 82 635 172 635 233 c 4xd8
 635 450 250 338 123 537 c 4
 94 582 86 633 86 674 c 4
EndSplineSet
EndChar

StartChar: t
Encoding: 116 116 85
Width: 730
GlyphClass: 2
Flags: HMW
PickledData: "(dp1
S'spacing_anchors_slanted'
p2
I00
s."
HStem: -30 164<335 493> 842 104<360 360 360 627>
VStem: 166 197<239 264 264 297 239 842> 268 102<1286 1286>
LayerCount: 3
Fore
SplineSet
47 820 m 1
 47 870 l 1
 144 915 236 1026 308 1236 c 1
 368 1236 l 1
 368 930 l 1
 683 930 l 1
 683 820 l 1
 358 820 l 1
 358 303 l 2
 358 111 429 107 505 107 c 0
 555 107 607 131 642 170 c 1
 682 132 l 1
 581 15 504 -33 422 -33 c 0
 285 -33 170 39 170 289 c 2
 170 820 l 1
 47 820 l 1
EndSplineSet
Validated: 1
Layer: 2
SplineSet
47 820 m 5
 47 870 l 5
 132 922 236 1026 308 1236 c 5
 368 1236 l 5
 368 920 l 5
 683 920 l 5
 683 820 l 5
 358 820 l 5
 358 288 l 6
 358 151 437 94 512 94 c 4
 566 94 618 123 638 174 c 5
 698 144 l 5
 640 43 547 -28 438 -28 c 4
 348 -28 170 17 170 289 c 6
 170 820 l 5
 47 820 l 5
EndSplineSet
EndChar

StartChar: u
Encoding: 117 117 86
Width: 1220
GlyphClass: 2
Flags: HMW
PickledData: "(dp1
S'spacing_anchors_slanted'
p2
I00
s."
HStem: -16 156<499 645> 0 82<1101 1226 1101 1226> 870 82<45 104 104 116 45 104 671 743 743 774> 938 41G<405 412 1038 1042>
VStem: 215 195<323 359> 851 195<119 311 213 311 311 612>
LayerCount: 3
Fore
SplineSet
868 152 m 1
 719 45 655 -27 536 -27 c 0
 362 -27 203 98 203 342 c 2
 203 790 l 1
 20 790 l 1
 19 840 l 1
 347 965 l 1
 391 965 l 1
 391 407 l 2x1c
 391 195 497 123 613 123 c 0
 704 123 802 168 858 223 c 1
 858 790 l 1
 675 790 l 1
 674 840 l 1
 1002 985 l 1
 1046 985 l 1
 1046 105 l 1
 1198 45 l 9
 1198 0 l 25
 868 0 l 17
 868 152 l 1
EndSplineSet
Validated: 1
EndChar

StartChar: v
Encoding: 118 118 87
Width: 1177
GlyphClass: 2
Flags: HMW
PickledData: "(dp1
S'spacing_anchors_slanted'
p2
I00
s."
HStem: -43 43G<576 594> 870 82<45 133 45 538 423 428 428 538 718 847 1033 1052 1052 1122>
LayerCount: 3
Fore
SplineSet
1002 835 m 1
 626 -20 l 1
 552 -20 l 1
 184 835 l 1
 20 895 l 1
 20 940 l 1
 565 940 l 1
 565 895 l 1
 412 835 l 1
 642 221 l 1
 642 221 882.90625 832.2265625 884 835 c 1
 720 895 l 1
 720 940 l 1
 1155 940 l 1
 1155 895 l 1
 1002 835 l 1
EndSplineSet
Validated: 1
Layer: 2
SplineSet
25 870 m 5
 25 952 l 5
 518 952 l 5
 518 870 l 5
 408 870 l 6
 400 870 393 868 393 858 c 4
 393 850 410 803 424 766 c 6
 606 301 l 5
 616 301 l 5
 837 833 842 842 842 856 c 6
 842 858 l 6
 842 868 835 870 827 870 c 6
 698 870 l 5
 698 952 l 5
 1102 952 l 5
 1102 870 l 5
 1032 870 l 6
 993 870 985 866 950 786 c 4
 600 -35 608 -23 596 -33 c 4
 588 -39 579 -43 569 -43 c 4
 542 -43 532 -22 526 -8 c 4
 151 867 166 856 141 866 c 4
 133 870 127 870 113 870 c 6
 25 870 l 5
EndSplineSet
EndChar

StartChar: w
Encoding: 119 119 88
Width: 1794
GlyphClass: 2
Flags: HMW
PickledData: "(dp1
S'spacing_anchors_slanted'
p2
I00
s."
HStem: -23 43G<497 516 1120 1139> 870 82<15 111 15 490 373 377 377 490 682 793 1029 1037 1037 1106 1258 1379 1559 1575 1575 1669>
VStem: 821 176<831 834>
LayerCount: 3
Fore
SplineSet
1602 835 m 1
 1236 -20 l 1
 1162 -20 l 1
 895 675 l 1
 606 -20 l 1
 532 -20 l 1
 184 835 l 1
 20 895 l 1
 20 940 l 1
 565 940 l 1
 565 895 l 1
 412 835 l 1
 622 221 l 1
 849 796 l 1
 834 835 l 1
 690 895 l 1
 690 940 l 1
 1195 940 l 1
 1195 895 l 1
 1042 835 l 1
 1252 221 l 1
 1252 221 1483 832 1484 835 c 1
 1320 895 l 1
 1320 940 l 1
 1755 940 l 1
 1755 895 l 1
 1602 835 l 1
EndSplineSet
Validated: 1
EndChar

StartChar: x
Encoding: 120 120 89
Width: 1170
GlyphClass: 2
Flags: HMW
PickledData: "(dp1
S'spacing_anchors_slanted'
p2
I00
s."
HStem: 0 82<87 135 135 153 375 465 87 135 608 694 694 704 1001 1059> 870 82<116 199 116 558 453 458 458 558 667 747 926 942 942 1022>
LayerCount: 3
Fore
SplineSet
1010 105 m 1
 1148 45 l 1
 1148 0 l 1
 669 0 l 1
 669 45 l 1
 776 105 l 1
 556 382 l 1
 325 105 l 1
 500 45 l 1
 500 0 l 1
 17 0 l 1
 17 45 l 1
 177 105 l 1
 497 458 l 1
 171 835 l 1
 30 895 l 1
 30 940 l 1
 529 940 l 1
 529 895 l 1
 417 835 l 1
 612 580 l 1
 830 835 l 1
 662 895 l 1
 662 940 l 1
 1111 940 l 1
 1111 895 l 1
 972 835 l 1
 675 505 l 1
 1010 105 l 1
EndSplineSet
Validated: 1
EndChar

StartChar: y
Encoding: 121 121 90
Width: 1184
GlyphClass: 2
Flags: HMW
PickledData: "(dp1
S'spacing_anchors_slanted'
p2
I00
s."
HStem: -438 158<244 329> 870 82<25 117 25 535 412 420 420 535 709 827 1023 1040 1040 1151>
LayerCount: 3
Fore
SplineSet
226 -463 m 1
 194 -281 l 1
 231 -300 265 -308 295 -308 c 0
 425 -308 498 -157 562 -8 c 1
 194 835 l 1
 30 895 l 1
 30 940 l 1
 565 940 l 1
 565 895 l 1
 422 835 l 1
 660 220 l 1
 874 835 l 1
 720 895 l 1
 720 940 l 1
 1135 940 l 1
 1135 895 l 1
 992 835 l 1
 677 13 568 -482 316 -482 c 0
 288 -482 258 -475 226 -463 c 1
EndSplineSet
Validated: 1
Layer: 2
SplineSet
322 -429 m 5
 558 27 l 5
 194 835 l 5
 30 895 l 5
 30 940 l 5
 565 940 l 5
 565 895 l 5
 422 835 l 5
 651 201 l 5
 651 201 873 832 874 835 c 5
 720 895 l 5
 720 940 l 5
 1145 940 l 5
 1145 895 l 5
 992 835 l 5
 495 -459 l 5
 322 -429 l 5
523 -354 m 1
 707 -414 l 1
 707 -459 l 1
 222 -459 l 1
 222 -414 l 1
 395 -354 l 1
 561 34 l 1
 194 835 l 1
 30 895 l 1
 30 940 l 1
 565 940 l 1
 565 895 l 1
 422 835 l 1
 649 259 l 1
 649 259 873 832 874 835 c 1
 720 895 l 1
 720 940 l 1
 1145 940 l 1
 1145 895 l 1
 992 835 l 1
 695 139 l 1
 523 -354 l 1
EndSplineSet
EndChar

StartChar: z
Encoding: 122 122 91
Width: 962
GlyphClass: 2
Flags: HMW
HStem: 0 117<315 315 315 856> 864 109<253 283 283 639>
VStem: 102 78<651 952> 797 76<303 303>
LayerCount: 3
Fore
SplineSet
37 45 m 1
 593 830 l 1
 200 830 l 1
 120 643 l 1
 70 643 l 1
 70 945 l 1
 841 945 l 1
 855 902 l 1
 300 105 l 1
 720 105 l 1
 810 283 l 1
 860 283 l 1
 860 0 l 1
 49 0 l 1
 37 45 l 1
EndSplineSet
Validated: 1
Layer: 2
SplineSet
25 18 m 4
 25 28 33 39 37 45 c 6
 643 858 l 5
 639 864 l 5
 283 864 l 6
 224 864 207 831 180 651 c 5
 102 651 l 5
 102 952 l 6
 102 966 107 973 123 973 c 6
 901 973 l 6
 924 973 926 960 926 954 c 4
 926 944 919 936 915 930 c 6
 313 121 l 5
 315 117 l 5
 452 119 717 125 729 127 c 4
 776 131 772 162 797 303 c 5
 872 303 l 5
 878 76 881 47 881 18 c 4
 881 2 870 0 856 0 c 6
 49 0 l 6
 39 0 25 2 25 18 c 4
EndSplineSet
EndChar

StartChar: braceleft
Encoding: 123 123 92
Width: 614
GlyphClass: 2
Flags: HMW
HStem: 590 33<82 82>
VStem: 215 156<-6 52 -28 191> 254 156<346 409 279 437 804 867>
LayerCount: 3
Fore
SplineSet
82 590 m 1
 82 623 l 1
 178 637 254 721 254 823 c 0xa0
 254 911 215 953 215 1090 c 0
 215 1340.41837 346.82362644 1504.30095816 512 1563 c 1
 532 1501 l 1
 385 1423 371 1267 371 1212 c 0xc0
 371 1108 410 1003 410 864 c 0
 410 743 377 643 289 608 c 1
 289 604 l 1
 377 569 410 469 410 348 c 0xa0
 410 209 371 104 371 0 c 0
 371 -55 385 -211 532 -289 c 1
 512 -350 l 1
 352 -293 215 -135 215 123 c 0xc0
 215 260 254 303 254 389 c 0
 254 485 184 574 82 590 c 1
EndSplineSet
Validated: 1
EndChar

StartChar: bar
Encoding: 124 124 93
Width: 512
GlyphClass: 2
Flags: HMW
VStem: 203 106<-313 1530 -313 1530>
LayerCount: 3
Fore
SplineSet
203 -313 m 1
 203 1530 l 1
 309 1530 l 1
 309 -313 l 1
 203 -313 l 1
EndSplineSet
Validated: 1
EndChar

StartChar: braceright
Encoding: 125 125 94
Width: 614
GlyphClass: 2
Flags: HMW
HStem: 590 33<532 532>
VStem: 205 156<345 409 804 866> 244 156<-28 191 1160 1219> 326 207<604 608 608 608>
LayerCount: 3
Fore
SplineSet
82 -289 m 1
 229 -211 244 -55 244 0 c 0xa0
 244 104 205 209 205 348 c 0xc0
 205 469 238 569 326 604 c 1
 326 608 l 1x90
 238 643 205 743 205 864 c 0xc0
 205 1003 244 1108 244 1212 c 0
 244 1267 229 1423 82 1501 c 1
 102 1563 l 1
 262 1506 399 1348 399 1090 c 0xa0
 399 953 360 909 360 823 c 0xc0
 360 727 430 639 532 623 c 1
 532 590 l 1x90
 436 576 360 491 360 389 c 0xc0
 360 301 399 260 399 123 c 0
 399 -134.265883843 267.17637356 -291.300958156 102 -350 c 1
 82 -289 l 1
EndSplineSet
Validated: 1
EndChar

StartChar: asciitilde
Encoding: 126 126 95
Width: 1064
GlyphClass: 2
Flags: HMW
HStem: 436 106<676 788 676 808> 610 109<292 400>
VStem: 55 80<440 487> 938 74<666 705>
LayerCount: 3
Fore
SplineSet
55 487 m 1
 106 645 237 719 346 719 c 0
 536 719 600 543 752 543 c 0
 826 543 909 599 938 705 c 1
 1012 666 l 1
 987 537 876 436 739 436 c 0
 549 436 473 610 328 610 c 0
 252 610 166 551 135 440 c 1
 55 487 l 1
EndSplineSet
Validated: 1
EndChar

StartChar: exclamdown
Encoding: 161 161 97
Width: 614
GlyphClass: 2
Flags: HMW
HStem: -45 43G<255 302> 1186 279<248 322 246 324>
VStem: 154 262<53 145 44 158>
LayerCount: 3
Fore
SplineSet
145 1325 m 0
 145 1399 207 1464 285 1464 c 0
 359 1464 424 1403 424 1325 c 0
 424 1251 363 1186 285 1186 c 0
 211 1186 145 1247 145 1325 c 0
154 109 m 0
 154 207 197 399 244 1085 c 1
 326 1085 l 1
 361 473 416 183 416 109 c 0
 416 -20 322 -45 283 -45 c 0
 228 -45 154 -2 154 109 c 0
EndSplineSet
Validated: 1
EndChar

StartChar: cent
Encoding: 162 162 98
Width: 937
GlyphClass: 2
Flags: HMW
HStem: 29 114 832 108
VStem: 61 182<396 510> 463 86<-217 23 23 23 950 1135> 680 170
LayerCount: 3
Fore
SplineSet
61 434 m 0
 61 586 115 696 244 813 c 0
 307 869 379 919 463 940 c 1
 463 1135 l 1
 549 1135 l 1
 549 950 l 1
 647.12784713 948.933392966 850 894.706466191 850 745 c 0
 850 663 789 604 717 604 c 0
 672 604 666 633 666 647 c 0
 666 670 680 700 680 723 c 0
 680 766 626 816 549 831 c 1
 549 144 l 1
 553 144 557 143 561 143 c 0
 676 143 759 206 829 272 c 1
 877 225 l 1
 753 88 634 43 549 29 c 1
 549 -217 l 1
 463 -217 l 1
 463 23 l 1
 295 25 61 110 61 434 c 0
244 479 m 0
 244 312 343 200 463 160 c 1
 463 832 l 1
 308.235582342 804.541796867 244 611.247028574 244 479 c 0
EndSplineSet
Validated: 1
EndChar

StartChar: sterling
Encoding: 163 163 99
Width: 901
GlyphClass: 2
Flags: HMW
HStem: 0 117<258 258 258 817> 457 86<74 193 74 195 373 709> 899 96<564 574>
VStem: 193 178<428 457 457 457> 698 66<700 700> 743 72<303 303>
LayerCount: 3
Fore
SplineSet
49 18 m 0
 49 48.6657257828 193 113.786578248 193 428 c 2
 193 457 l 1
 74 457 l 1
 74 543 l 1
 195 543 l 1
 199 762 309 848 381 903 c 0
 442 950 514 995 614 995 c 0
 667 995 732 983 793 948 c 1
 764 700 l 1
 698 700 l 1xf8
 689.654629453 759.460765147 696.107175835 899 563 899 c 0
 491 899 408 848 385 721 c 0
 379 686 379 668 373 543 c 1
 709 543 l 1
 709 457 l 1
 371 457 l 1
 361 322 319 207 256 121 c 1
 258 117 l 1
 397 119 668 125 678 127 c 0
 727 133 720 160 743 303 c 1
 815 303 l 1
 817 0 l 1
 72 0 l 2xf4
 52 0 49 10 49 18 c 0
EndSplineSet
Validated: 1
EndChar

StartChar: section
Encoding: 167 167 100
Width: 1064
GlyphClass: 2
Flags: HMW
HStem: -502 100<469 580 469 621> 969 43G<733 785> 1255 96<499 590>
VStem: 94 137<571 593> 147 188<-274 -203 -274 -188> 188 168<1044 1114> 705 168<1094 1157> 723 166<-254 -165> 842 129<270 283>
LayerCount: 3
Fore
SplineSet
94 532 m 0xf1
 94 653 166 768 260 836 c 1
 215 887 188 956 188 1026 c 0
 188 1202 348 1352 549 1352 c 0
 723 1352 872 1237 872 1104 c 0
 872 1032 824 969 748 969 c 0
 719 969 686 977 686 1012 c 0
 686 1022 705 1073 705 1114 c 0xe6
 705 1200 635 1255 545 1255 c 0
 453 1255 356 1191 356 1087 c 0
 356 1001 418 944 504 872 c 2
 799 627 l 2
 888 552 971 467 971 330 c 0xe480
 971 211 903 101 807 35 c 1
 858 -18 889 -92 889 -168 c 0
 889 -340 733 -502 508 -502 c 0
 299 -502 147 -362 147 -227 c 0
 147 -149 201 -84 279 -84 c 0
 312 -84 367 -100 367 -133 c 0xe9
 367 -158 336 -172 336 -233 c 0xe9
 336 -315 409 -401 528 -401 c 0
 630 -401 723 -330 723 -221 c 0
 723 -108 635 -35 526 51 c 2
 252 268 l 2
 170 334 94 401 94 532 c 0xf1
231 618 m 0
 231 524 295 469 342 430 c 2
 758 86 l 1
 809 121 842 181 842 242 c 0xf080
 842 324 789 371 750 406 c 1
 315 774 l 1
 268 743 231 688 231 618 c 0
EndSplineSet
Validated: 1
EndChar

StartChar: dieresis
Encoding: 168 168 101
Width: 819
GlyphClass: 2
Flags: HMW
HStem: 1180 223<171 232 171 236 591 654>
VStem: 92 223<1262 1322> 512 223<1262 1322>
LayerCount: 3
Fore
SplineSet
92 1292 m 0
 92 1351 140 1403 203 1403 c 0
 262 1403 315 1358 315 1292 c 0
 315 1231 269 1180 203 1180 c 0
 137 1180 92 1231 92 1292 c 0
512 1292 m 0
 512 1351 560 1403 623 1403 c 0
 686 1403 735 1351 735 1292 c 0
 735 1231 689 1180 623 1180 c 0
 557 1180 512 1231 512 1292 c 0
EndSplineSet
Validated: 1
EndChar

StartChar: copyright
Encoding: 169 169 102
Width: 1720
GlyphClass: 2
Flags: HMW
HStem: -66 106<687 1039 687 1062> 274 119<858 901> 1004 104<872 893> 1346 104<858 860 858 858>
VStem: 102 106<504 892 504 901> 471 174<647 649 649 716> 1004 174<827 987 829 987> 1513 104<694 696 696 888>
LayerCount: 3
Fore
SplineSet
102 692 m 0
 102 1110 436 1446 854 1450 c 1
 860 1450 l 2
 1276 1450 1618 1116 1618 694 c 0
 1618 256 1263 -66 860 -66 c 0
 426 -66 102 286 102 692 c 0
209 696 m 0
 209 311 512 41 862 41 c 0
 1216 41 1511 317 1513 694 c 1
 1513 696 l 2
 1513 1079 1196 1346 860 1346 c 2
 858 1346 l 1
 528 1344 209 1087 209 696 c 0
471 647 m 2
 471 649 l 2
 471 782 522 885 635 983 c 0
 772 1102 846 1108 899 1108 c 0
 1008 1108 1178 1053 1178 922 c 0
 1178 850 1123 797 1055 797 c 0
 1035 797 1004 800 1004 827 c 2
 1004 829 l 2
 1004 841 1016 860 1016 893 c 0
 1016 969 923 1004 862 1004 c 0
 745 1004 645 895 645 702 c 0
 645 460 802 393 913 393 c 0
 1009 393 1065 432 1155 504 c 1
 1204 457 l 1
 1114 355 977 274 825 274 c 0
 612 274 471 432 471 647 c 2
EndSplineSet
Validated: 1
EndChar

StartChar: guillemotleft
Encoding: 171 171 103
Width: 827
GlyphClass: 2
Flags: HMW
VStem: 100 176<483 485 485 490 477 496> 418 176<483 485 485 490 477 496>
LayerCount: 3
Fore
SplineSet
100 483 m 2
 100 485 l 2
 100 505 107 506 340 840 c 1
 410 819 l 1
 279 495 276 497 276 483 c 0
 276 471 277 478 410 150 c 1
 340 129 l 1
 104 463 100 465 100 483 c 2
418 483 m 2
 418 485 l 2
 418 505 424 506 657 840 c 1
 727 819 l 1
 596 495 594 497 594 483 c 0
 594 471 594 478 727 150 c 1
 657 129 l 1
 421 463 418 465 418 483 c 2
EndSplineSet
Validated: 1
EndChar

StartChar: uni00AD
Encoding: 173 173 104
Width: 647
GlyphClass: 2
Flags: HMW
HStem: 442 172<68 580 68 580>
VStem: 68 512<442 614 442 614>
LayerCount: 3
Fore
SplineSet
68 442 m 1
 68 614 l 1
 580 614 l 1
 580 442 l 1
 68 442 l 1
EndSplineSet
Validated: 1
EndChar

StartChar: macron
Encoding: 175 175 105
Width: 819
GlyphClass: 2
Flags: HMW
HStem: 1184 106<141 690 141 690>
VStem: 141 549<1184 1290 1184 1290>
LayerCount: 3
Fore
SplineSet
141 1184 m 1
 141 1290 l 1
 690 1290 l 1
 690 1184 l 1
 141 1184 l 1
EndSplineSet
Validated: 1
EndChar

StartChar: degree
Encoding: 176 176 106
Width: 614
GlyphClass: 2
Flags: HMW
HStem: 858 106<258 328 258 356> 1229 106<258 328>
VStem: 57 104<1059 1133 1059 1163> 424 104<1059 1133>
LayerCount: 3
Fore
SplineSet
57 1096 m 0
 57 1231 166 1335 293 1335 c 0
 420 1335 528 1229 528 1096 c 0
 528 963 420 858 293 858 c 0
 166 858 57 963 57 1096 c 0
162 1096 m 0
 162 1022 223 965 293 965 c 0
 363 965 424 1022 424 1096 c 0
 424 1170 363 1229 293 1229 c 0
 223 1229 162 1170 162 1096 c 0
EndSplineSet
Validated: 1
EndChar

StartChar: plusminus
Encoding: 177 177 107
Width: 1064
GlyphClass: 2
Flags: HMW
HStem: 100 106<66 1001 66 1001> 682 106<66 479 66 479 586 1001>
VStem: 479 106<303 682 303 682 788 1163>
LayerCount: 3
Fore
SplineSet
66 100 m 1
 66 207 l 1
 1001 207 l 1
 1001 100 l 1
 66 100 l 1
66 682 m 1
 66 788 l 1
 479 788 l 1
 479 1163 l 1
 586 1163 l 1
 586 788 l 1
 1001 788 l 1
 1001 682 l 1
 586 682 l 1
 586 303 l 1
 479 303 l 1
 479 682 l 1
 66 682 l 1
EndSplineSet
Validated: 1
EndChar

StartChar: acute
Encoding: 180 180 108
Width: 819
GlyphClass: 2
Flags: HMW
HStem: 1110 317<309 571>
VStem: 289 354<1133 1353>
LayerCount: 3
Fore
SplineSet
289 1139 m 0
 289 1155 340 1218 477 1378 c 0
 491 1394 520 1427 553 1427 c 0
 590 1427 643 1376 643 1329 c 0
 643 1276 586 1248 377 1135 c 0
 365 1129 333 1110 317 1110 c 0
 301 1110 289 1127 289 1139 c 0
EndSplineSet
Validated: 1
EndChar

StartChar: paragraph
Encoding: 182 182 109
Width: 1064
GlyphClass: 2
Flags: HMW
HStem: 1245 106<741 860 702 967>
VStem: 98 604<728 964> 594 109<-492 369 369 369> 860 106<-492 1245 1245 1245>
LayerCount: 3
Fore
SplineSet
98 862 m 0xd0
 98 1065 223 1233 381 1305 c 1
 480.406779661 1349.08474576 577.57196208 1352.07354209 687.996762084 1352.07354209 c 0
 705.318299339 1352.07354209 722.966101695 1352 741 1352 c 2
 967 1352 l 1
 967 -492 l 1
 860 -492 l 1
 860 1245 l 1
 702 1245 l 1
 702 -492 l 1
 594 -492 l 1
 594 369 l 1
 590 369 l 2xb0
 314 369 98 594 98 862 c 0xd0
EndSplineSet
Validated: 1
EndChar

StartChar: periodcentered
Encoding: 183 183 110
Width: 512
GlyphClass: 2
Flags: HMW
HStem: 645 227<224 289 224 290>
VStem: 141 229<729 790>
LayerCount: 3
Fore
SplineSet
141 760 m 0
 141 819 193 872 256 872 c 0
 322 872 371 821 371 760 c 0
 371 699 324 645 256 645 c 0
 188 645 141 699 141 760 c 0
EndSplineSet
Validated: 1
EndChar

StartChar: cedilla
Encoding: 184 184 111
Width: 819
GlyphClass: 2
Flags: HMW
HStem: -434 68<365 403> -209 104<360 466>
VStem: 492 86<-305 -266>
LayerCount: 3
Fore
SplineSet
178 -342 m 0
 178 -309 198 -289 229 -289 c 0
 292 -289 324 -367 406 -367 c 0
 449 -367 492 -340 492 -293 c 0
 492 -240 434 -209 383 -209 c 0
 338 -209 313 -229 307 -229 c 0
 303 -229 301 -225 301 -221 c 0
 301 -213 324 -47 334 39 c 1
 389 35 l 1
 373 -111 l 1
 375 -113 l 1
 391 -107 410 -104 426 -104 c 0
 506 -104 578 -164 578 -250 c 0
 578 -361 463 -434 344 -434 c 0
 246 -434 178 -397 178 -342 c 0
EndSplineSet
Validated: 1
EndChar

StartChar: guillemotright
Encoding: 187 187 112
Width: 827
GlyphClass: 2
Flags: HMW
VStem: 231 178<477 481 481 483 472 490> 549 178<477 481 481 483 472 490>
LayerCount: 3
Fore
SplineSet
100 150 m 1
 231 474 231 471 231 483 c 0
 231 497 231 491 100 819 c 1
 170 840 l 1
 403 506 410 503 410 483 c 2
 410 481 l 2
 410 463 403 463 170 129 c 1
 100 150 l 1
418 150 m 1
 549 474 549 471 549 483 c 0
 549 497 549 491 418 819 c 1
 487 840 l 1
 720 506 727 503 727 483 c 2
 727 481 l 2
 727 463 720 463 487 129 c 1
 418 150 l 1
EndSplineSet
Validated: 1
EndChar

StartChar: questiondown
Encoding: 191 191 113
Width: 921
GlyphClass: 2
Flags: HMW
HStem: -53 129<401 496> 1100 281<408 481>
VStem: 53 199<212 254> 305 279<1201 1280> 408 98<755 1034> 610 205<181 394>
LayerCount: 3
Fore
SplineSet
53 238 m 0
 53 271 60 307 70 344 c 1
 152 618 408 698 408 1026 c 2
 408 1034 l 2
 408 1067 426 1069 446 1069 c 2
 459 1069 l 2xec
 490.3640625 1069 506 1065.4609375 506 907 c 0
 506 602 252 465 252 270 c 0
 252 153 349 76 455 76 c 0
 551 76 610 147 610 215 c 0
 610 250 596 282 596 319 c 2
 596 322 l 2
 596 388 647 469 719 469 c 0
 758 469 815 438 815 350 c 0
 815 188 627 -53 365 -53 c 0
 187 -53 53 68 53 238 c 0
305 1241 m 0
 305 1319 370 1380 444 1380 c 0
 518 1380 584 1319 584 1241 c 0xf4
 584 1161 518 1100 444 1100 c 0
 370 1100 305 1161 305 1241 c 0
EndSplineSet
Validated: 1
EndChar

StartChar: AE
Encoding: 198 198 114
Width: 2056
GlyphClass: 2
Flags: HMW
HStem: 0 94<39 143 143 177 422 549 39 143 911 1040 1040 1066> 0 133<911 1353> 461 106<647 1106 647 1106 573 1106> 719 109<1317 1720 1315 1729> 936 41G<1759 1847 1847 1847> 1292 119<1351 1362 1362 1382> 1317 94<786 944 786 1221>
VStem: 1106 209<360 461 461 461 567 719> 1761 86<569 684 684 694> 1876 86<1112 1397> 1911 78<362 362>
LayerCount: 3
Fore
SplineSet
39 0 m 1
 39 94 l 1
 143 94 l 2
 211 94 225 110 299 229 c 0
 956 1294 956 1293 956 1307 c 0
 956 1313 952 1317 944 1317 c 2
 786 1317 l 1
 786 1411 l 1
 1221 1411 l 2xbba0
 1799 1411 1870 1415 1944 1415 c 0
 1958 1415 1962 1407 1962 1397 c 2
 1962 1112 l 1
 1876 1112 l 1
 1870 1231 1873 1266 1810 1272 c 0
 1671 1286 1532 1292 1382 1292 c 2
 1362 1292 l 2x3dc0
 1339 1292 1317 1288 1317 1257 c 2
 1317 827 l 1
 1729 827 l 2
 1756 827 1759 843 1759 866 c 2
 1759 977 l 1
 1847 977 l 1
 1847 569 l 1
 1761 569 l 1
 1761 684 l 2
 1761 704 1755 719 1720 719 c 2
 1315 719 l 1
 1315 172 l 2
 1315 156 1317 133 1346 133 c 0x7dc0
 1360 133 1646 148 1796 156 c 0
 1876 160 1886 202 1911 362 c 1
 1989 362 l 1
 1989 14 l 2
 1989 2 1986 -4 1972 -4 c 0
 1896 -4 1823 0 1221 0 c 2
 911 0 l 1
 911 94 l 1
 1040 94 l 2
 1097.471875 94 1106 118.53125 1106 360 c 2
 1106 461 l 1
 573 461 l 1
 477 297 385 148 385 119 c 0
 385 96 408 94 422 94 c 2
 549 94 l 1
 549 0 l 1
 39 0 l 1
641 573 m 1
 647 567 l 1
 1106 567 l 1x3980
 1106 1315 l 1
 1090 1315 l 1
 641 573 l 1
EndSplineSet
Validated: 1
EndChar

StartChar: Ccedilla
Encoding: 199 199 115
Width: 1560
GlyphClass: 2
Flags: HMW
HStem: -432 68<918 956> -207 104<913 1019> -45 139 995 43G<1276 1376 1276 1276> 1327 119<794 992 665 993>
VStem: 109 250<544 878> 876 50 1044 86<-303 -264> 1276 100<995 1331> 1339 78<92 465>
LayerCount: 3
Fore
SplineSet
109 680 m 0
 109 1075 417 1446 911 1446 c 0
 1073 1446 1233 1405 1376 1331 c 1
 1376 995 l 1
 1276 995 l 1xff80
 1266 1224 1085 1327 901 1327 c 0
 686 1327 358 1161 358 731 c 0
 358 356 596 94 930 94 c 0
 1100 94 1250 166 1305 289 c 0
 1328 342 1333 418 1339 465 c 1
 1417 465 l 1
 1417 92 l 1
 1249 -3 1080 -40 933 -45 c 1
 926 -109 l 1
 928 -111 l 1
 944 -105 963 -102 979 -102 c 0xff40
 1059 -102 1130 -162 1130 -248 c 0
 1130 -359 1016 -432 897 -432 c 0
 799 -432 731 -395 731 -340 c 0
 731 -307 751 -287 782 -287 c 0
 845 -287 876 -365 958 -365 c 0
 1001 -365 1044 -338 1044 -291 c 0
 1044 -238 987 -207 936 -207 c 0
 891 -207 866 -227 860 -227 c 0
 856 -227 854 -223 854 -219 c 0
 854 -212 866 -125 876 -45 c 1
 455 -34 109 252 109 680 c 0
EndSplineSet
Validated: 1
EndChar

StartChar: Eth
Encoding: 208 208 116
Width: 1566
GlyphClass: 2
Flags: HMW
HStem: -8 117<677 749> 0 94<39 180 180 199 39 369 39 180> 651 106<39 233 39 233 444 745> 1290 121 1317 94<39 174 39 352>
VStem: 233 211<360 651 758 1024 1024 1028> 1231 227<636 743 743 745 607 828>
LayerCount: 3
Fore
SplineSet
39 0 m 1
 39 94 l 1
 180 94 l 2x66
 226.25228104 94 233 108.790944649 233 360 c 2
 233 651 l 1
 39 651 l 1
 39 758 l 1
 233 758 l 1
 233 1024 l 2
 233 1032 233 1270 229 1286 c 0
 221 1313 199 1317 174 1317 c 2
 39 1317 l 1
 39 1411 l 1
 352 1411 l 2
 458 1411 568 1417 674 1417 c 2
 680 1417 l 2
 938 1417 1142 1368 1294 1196 c 0
 1394 1083 1458 927 1458 745 c 2
 1458 743 l 2
 1458 471 1321 206 1100 82 c 0
 973 11 821 -8 676 -8 c 0xae
 574 -8 471 0 369 0 c 2
 39 0 l 1
444 182 m 2
 444 164 444 141 477 135 c 0
 557 119 635 109 719 109 c 0
 869 109 1065 145 1169 385 c 0
 1210 479 1231 584 1231 688 c 0
 1231 969 1084 1169 877 1247 c 0
 766 1288 645 1290 528 1290 c 2
 494 1290 l 2xb6
 453 1290 444 1272 444 1241 c 2
 444 758 l 1
 745 758 l 1
 745 651 l 1
 444 651 l 1
 444 182 l 2
EndSplineSet
Validated: 1
EndChar

StartChar: multiply
Encoding: 215 215 117
Width: 1064
GlyphClass: 2
Flags: HMW
HStem: 971 41G<172 172 891 891>
LayerCount: 3
Fore
SplineSet
96 936 m 1
 172 1012 l 1
 531 651 l 1
 891 1012 l 1
 967 936 l 1
 607 575 l 1
 965 217 l 1
 889 141 l 1
 531 500 l 1
 174 141 l 1
 98 217 l 1
 456 575 l 1
 96 936 l 1
EndSplineSet
Validated: 1
EndChar

StartChar: Oslash
Encoding: 216 216 118
Width: 1742
GlyphClass: 2
Flags: HMW
HStem: -45 129<874 1092> 1317 129
VStem: 109 242 1391 244
LayerCount: 3
Fore
SplineSet
109 672 m 2
 109 674 l 2
 109 1080 440 1446 911 1446 c 0
 1068 1446 1203 1402 1312 1330 c 1
 1454 1511 l 1
 1536 1446 l 1
 1395 1266 l 1
 1548 1127 1633 926 1634 725 c 1
 1634 721 l 2
 1634 332 1310 -45 872 -45 c 0
 733 -45 586 -8 458 66 c 1
 313 -119 l 1
 229 -53 l 1
 369 126 l 1
 216 245 109 428 109 672 c 2
350 735 m 0
 350 561 412 412 506 301 c 1
 1186 1169 l 1
 1089 1262 967 1317 844 1317 c 2
 840 1317 l 1
 588 1315 350 1077 350 735 c 0
582 225 m 1
 687 135 814 84 934 84 c 0
 1249 84 1391 412 1391 670 c 0
 1391 833 1338 977 1256 1088 c 1
 582 225 l 1
EndSplineSet
Validated: 1
EndChar

StartChar: Thorn
Encoding: 222 222 119
Width: 1216
GlyphClass: 2
Flags: HMW
HStem: 0 94 326 109 1061 100<520 627> 1317 94
VStem: 233 209 922 205<664 804 648 830>
LayerCount: 3
Fore
SplineSet
39 0 m 1
 39 94 l 1
 162 94 l 2
 215 94 225 110 227 143 c 0
 231 215 233 288 233 360 c 2
 233 1024 l 2
 233 1106 233 1186 231 1268 c 0
 231 1309 209 1317 170 1317 c 2
 39 1317 l 1
 39 1411 l 1
 639 1411 l 1
 639 1317 l 1
 508 1317 l 2
 457 1317 446 1299 446 1268 c 1
 444 1220 444 1185 443 1157 c 1
 503 1159 563 1161 623 1161 c 2
 627 1161 l 2
 873 1161 1011 1095 1085 948 c 0
 1110 899 1126 840 1126 768 c 0
 1126 528 926 326 672 326 c 0
 594 326 514 344 444 383 c 1
 440 380 l 1
 440 360 l 2
 440 111.7625 439.97265625 94 510 94 c 2
 635 94 l 1
 635 0 l 1
 39 0 l 1
442 475 m 1
 493 448 551 434 608 434 c 0
 788 434 922 572 922 756 c 0
 922 906 838 1018 711 1051 c 0
 672 1061 629 1061 588 1061 c 2
 520 1061 l 2
 483 1061 442 1056 442 997 c 2
 442 475 l 1
EndSplineSet
Validated: 33
EndChar

StartChar: germandbls
Encoding: 223 223 120
Width: 1146
GlyphClass: 2
Flags: HMW
HStem: -23 96<776 850 776 879> 0 82<25 113 113 135 424 518 25 113> 1378 98<569 641>
VStem: 174 195<414 991 991 1042> 553 168<866 867> 754 193<1197 1263> 922 158<221 229>
LayerCount: 3
Fore
SplineSet
25 0 m 1
 25 82 l 1
 113 82 l 2
 158 82 166 102 168 139 c 0
 172 231 174 322 174 414 c 2
 174 991 l 2x7c
 174 1402.24375 435.66796875 1477 606 1477 c 0
 876 1477 946 1345 946 1257 c 0
 946 1090.5 721 982.896484375 721 887 c 0
 721 846 755 809 778 782 c 0
 1005 506 1079 440 1079 295 c 0
 1079 148 977 -23 780 -23 c 0
 667 -23 569 37 569 117 c 0
 569 156 596 190 639 190 c 0
 719 190 733 74 819 74 c 0
 880 74 922 133 922 199 c 0xba
 922 260 885 311 856 350 c 0
 588 696 587 692 571 729 c 1
 559 749 553 776 553 801 c 0
 553 934 754 1047 754 1217 c 0
 754 1309 690 1378 592 1378 c 0
 543 1378 430 1357 391 1253 c 0
 371 1198 369 1106 369 1055 c 2
 369 414 l 2
 369 82.4859375 375.85 82 424 82 c 2
 518 82 l 1
 518 0 l 1
 25 0 l 1
EndSplineSet
Validated: 1
EndChar

StartChar: ae
Encoding: 230 230 121
Width: 1593
GlyphClass: 2
Flags: HMW
HStem: -29 154<311 495> -25 164<1092 1147> 530 98<852 852 852 1524 848 852> 848 145<430 580> 893 109<1128 1153>
VStem: 76 195<269 318> 676 172<313 328 328 530>
LayerCount: 3
Fore
SplineSet
76 229 m 0
 76 509.049583853 265.538124493 553.686330037 674 627 c 1
 674 672 l 2xa6
 674 777.6 621.55 848 475 848 c 0
 385 848 356 817 225 725 c 1
 170 793 l 1
 403 973 l 1
 442 987 483 993 524 993 c 0
 635 993 753 956 829 866 c 1
 962 1001 1116 1001 1141 1001 c 0
 1331 1001 1462 856 1503 713 c 0
 1513 680 1524 629 1524 545 c 2
 1524 530 l 1
 848 530 l 1
 848 328 l 2
 848 299 848 268 891 229 c 1
 963 166 1052 139 1130 139 c 0
 1267 139 1399 217 1477 330 c 1
 1532 287 l 1
 1421 111 1244 -25 1051 -25 c 0x76
 914 -25 785 45 709 160 c 1
 475 -20 l 1
 446 -26 416 -29 385 -29 c 0
 238 -29 76 22 76 229 c 0
270 305 m 0
 270 211.352734375 306.2 125 451 125 c 0xa6
 539 125 592 166 676 229 c 1
 676 541 l 1
 400 488 270 461 270 305 c 0
852 629 m 1
 1331 633 l 1
 1304 768 1229 893 1077 893 c 0x2e
 934 893 852 778 852 639 c 2
 852 629 l 1
EndSplineSet
Validated: 1
EndChar

StartChar: ccedilla
Encoding: 231 231 122
Width: 1028
GlyphClass: 2
Flags: HMW
HStem: -432 68 -227 334 -207 104 -28 135 872 129<550 604>
VStem: 61 203<364 510> 662 86<-303 -264> 748 188<728 780>
LayerCount: 3
Fore
SplineSet
61 426 m 0
 61 594 123 725 264 848 c 0
 405 971 506 1001 594 1001 c 0x9f
 699.487039176 1001 936 943.743013422 936 772 c 0
 936 684 868 616 786 616 c 0
 739 616 727 641 727 657 c 0
 727 673 748 708 748 743 c 0
 748 817 655 872 553 872 c 0
 330 872 264 616 264 483 c 0
 264 243 438 106 616 106 c 0
 735 106 823 164 913 250 c 1
 967 197 l 1
 800 14 645 -22 552 -28 c 1
 543 -109 l 1
 545 -111 l 1
 561 -105 580 -102 596 -102 c 0
 676 -102 748 -162 748 -248 c 0
 748 -359 633 -432 514 -432 c 0
 416 -432 348 -395 348 -340 c 0
 348 -307 368 -287 399 -287 c 0
 462 -287 493 -365 575 -365 c 0
 618 -365 662 -338 662 -291 c 0
 662 -238 604 -207 553 -207 c 0xbf
 508 -207 483 -227 477 -227 c 0xcf
 473 -227 471 -223 471 -219 c 0
 471 -213 484 -113 495 -28 c 1
 251 -20 61 133 61 426 c 0
EndSplineSet
Validated: 1
EndChar

StartChar: eth
Encoding: 240 240 123
Width: 1146
GlyphClass: 2
Flags: HMW
HStem: -35 104<520 625> 891 106<497 627 447 673> 1366 41G
VStem: 61 205 891 195
LayerCount: 3
Fore
SplineSet
61 451 m 0
 61 764 318 997 578 997 c 0
 676 997 776 962 852 899 c 1
 860 905 l 1
 817 1015 754 1113 678 1195 c 1
 403 1102 l 1
 334 1194 l 1
 599 1279 l 1
 601 1285 l 1
 536 1350 462 1407 381 1456 c 1
 512 1495 l 1
 594 1444 669 1387 740 1324 c 1
 1001 1407 l 1
 1063 1325 l 1
 823 1244 l 1
 819 1238 l 1
 852.402591165 1199.03031031 1085 946.8 1085 510 c 0
 1085 234 977 139 846 57 c 0
 750 -2 680 -35 569 -35 c 0
 344 -35 61 113 61 451 c 0
266 502 m 0
 266 279 421 70 618 70 c 0
 823 70 891 293 891 467 c 2
 891 471 l 1
 889 696 766 891 580 891 c 0
 414 891 266 727 266 502 c 0
EndSplineSet
Validated: 1
EndChar

StartChar: divide
Encoding: 247 247 124
Width: 1064
GlyphClass: 2
Flags: HMW
HStem: 168 229<502 563 499 566> 532 106<66 1001 66 1001> 774 229<502 563 499 566>
VStem: 418 229<252 313 858 920>
CounterMasks: 1 e0
LayerCount: 3
Fore
SplineSet
66 532 m 1
 66 639 l 1
 1001 639 l 1
 1001 532 l 1
 66 532 l 1
418 283 m 0
 418 344 464 397 532 397 c 0
 593 397 647 351 647 283 c 0
 647 222 600 168 532 168 c 0
 471 168 418 215 418 283 c 0
418 889 m 0
 418 950 464 1004 532 1004 c 0
 593 1004 647 957 647 889 c 0
 647 828 600 774 532 774 c 0
 471 774 418 821 418 889 c 0
EndSplineSet
Validated: 1
EndChar

StartChar: oslash
Encoding: 248 248 125
Width: 1206
GlyphClass: 2
Flags: HMW
HStem: -35 111<618 651> 881 117 993 41G<971 971>
VStem: 61 197 946 199<370 483>
LayerCount: 3
Fore
SplineSet
61 459 m 0
 61 760 322 997 627 997 c 2
 629 997 l 1xd8
 726 996 814 972 889 931 c 1
 971 1034 l 1xb8
 1051 971 l 1
 973 873 l 1
 1080 782 1145 650 1145 504 c 0
 1145 236 943 100 877 57 c 0
 791 2 709 -35 594 -35 c 0
 492 -35 395 -9 312 38 c 1
 201 -102 l 1
 121 -39 l 1
 228 96 l 1
 127 183 61 309 61 459 c 0
258 508 m 0
 258 401 292 312 344 243 c 1
 788 803 l 1
 729 852 656 881 573 881 c 0
 362 881 258 701 258 508 c 0
415 168 m 1
 489 108 578 76 657 76 c 0x98
 823 76 946 207 946 426 c 0
 946 541 914 646 858 727 c 1
 415 168 l 1
EndSplineSet
Validated: 1
EndChar

StartChar: thorn
Encoding: 254 254 126
Width: 1175
GlyphClass: 2
Flags: HMW
HStem: -442 82<25 143 143 159 459 592 25 143> -20 127<575 638> 836 160<651 696> 1358 98<25 139 25 25> 1442 41G<394 409>
VStem: 207 195<414 614 614 780 893 971 971 1040> 930 184<478 518 518 520 478 592>
LayerCount: 3
Fore
SplineSet
25 -360 m 1
 143 -360 l 2
 174 -360 201 -354 201 -313 c 0
 205 -71 207 172 207 414 c 2
 207 971 l 2
 207 1110 198 1288 190 1321 c 0
 182 1358 153 1358 139 1358 c 2
 25 1358 l 1
 25 1456 l 1xf6
 252 1460 385 1483 403 1483 c 0
 413 1483 420 1478 420 1468 c 0
 420 1411 401 1296 401 893 c 1
 406 887 l 1
 414 889 410 887 582 989 c 1
 611 993 637 995 666 995 c 0xee
 860.507617188 995 1114 900 1114 520 c 2
 1114 518 l 2
 1114 438 1112 256 926 123 c 0
 846 66 693 -20 584 -20 c 0
 510 -20 434 19 401 37 c 1
 395 33 l 1
 395 -131 l 2
 395 -350 400 -360 459 -360 c 2
 592 -360 l 1
 592 -442 l 1
 25 -442 l 1
 25 -360 l 1
401 197 m 1
 458 136 538 106 612 106 c 0
 739 106 930 201 930 477 c 0
 930 706 788 836 604 836 c 0
 534 836 462 817 401 780 c 1
 401 197 l 1
EndSplineSet
Validated: 1
EndChar

StartChar: Aogonek
Encoding: 260 260 127
Width: 1536
GlyphClass: 2
Flags: HMW
HStem: -438 147<1223 1286 1223 1291> 0 94<39 156 156 181 410 549 39 156 956 1079 1079 1086 1430 1497> 469 98<545 948 545 997 502 948> 1395 41G<788 803 803 806>
VStem: 1059 109
LayerCount: 3
Fore
SplineSet
39 0 m 1
 39 94 l 1
 156 94 l 2
 207 94 221 107 283 258 c 0
 756 1413 758 1421 762 1425 c 0
 768 1433 774 1436 788 1436 c 2
 803 1436 l 2
 809 1436 821 1433 825 1419 c 1
 1366 88 1348 112 1389 98 c 1
 1430 94 l 1
 1497 94 l 1
 1497 0 l 1
 1305 0 l 1
 1227 -47 1167 -101 1167 -178 c 2
 1167 -180 l 2
 1167 -233 1194 -291 1251 -291 c 0
 1321 -291 1332 -229 1350 -229 c 0
 1370 -229 1386 -289 1386 -322 c 0
 1386 -400 1329 -438 1253 -438 c 0
 1097 -438 1059 -289 1059 -215 c 2
 1059 -213 l 2
 1059 -111 1127 -55 1184 -4 c 1
 1181 0 l 1
 956 0 l 1
 956 94 l 1
 1079 94 l 2
 1093 94 1126 94 1126 123 c 0
 1126 156 1079 264 997 469 c 1
 502 469 l 1
 373 145 373 142 373 119 c 0
 373 99 387 94 410 94 c 2
 549 94 l 1
 549 0 l 1
 39 0 l 1
539 575 m 1
 545 567 l 1
 948 567 l 1
 954 573 l 1
 752 1096 l 1
 743 1096 l 1
 539 575 l 1
EndSplineSet
Validated: 1
EndChar

StartChar: aogonek
Encoding: 261 261 128
Width: 1064
GlyphClass: 2
Flags: HMW
HStem: -438 147<797 860 797 880> -29 154<311 495> 848 145<430 587>
VStem: 76 195<269 318> 633 109<-215 -160 -210 -167> 676 188<229 312 224 541>
LayerCount: 3
Fore
SplineSet
76 229 m 0
 76 509.049583853 265.538124493 553.686330037 674 627 c 1
 674 672 l 2
 674 777.6 621.55 848 475 848 c 0
 385 848 356 817 225 725 c 1
 170 793 l 1
 403 973 l 1
 442 987 485 993 526 993 c 0
 647 993 778 942 831 862 c 0
 868 807 870 741 870 690 c 0
 870 647 864 354 864 270 c 0
 864 178 872 141 911 141 c 0
 929 141 940 149 999 178 c 1
 1044 92 l 1xf4
 743.117155357 -57.1332360405 741 -123.148277369 741 -180 c 0
 741 -239 768 -291 825 -291 c 0
 895 -291 904 -229 924 -229 c 0
 944 -229 958 -291 958 -322 c 0
 958 -369 931 -438 827 -438 c 0
 698 -438 633 -336 633 -215 c 2
 633 -213 l 2xf8
 633 -121 674 -80 756 -4 c 1
 756 0 l 1
 688 37 680 102 680 129 c 2
 680 133 l 1
 674 133 l 1
 475 -20 l 1
 446 -26 416 -29 385 -29 c 0
 238 -29 76 22 76 229 c 0
270 305 m 0
 270 211.352734375 306.2 125 451 125 c 0
 539 125 592 166 676 229 c 1
 676 541 l 1xf4
 400 488 270 461 270 305 c 0
EndSplineSet
Validated: 1
EndChar

StartChar: Dcroat
Encoding: 272 272 129
Width: 1566
GlyphClass: 2
Flags: HMW
HStem: -8 117<677 749> 0 94<39 180 180 199 39 369 39 180> 651 106<39 233 39 233 444 745> 1290 121 1317 94<39 174 39 352>
VStem: 233 211<360 651 758 1024 1024 1028> 1231 227<636 743 743 745 607 828>
LayerCount: 3
Fore
SplineSet
39 0 m 1
 39 94 l 1
 180 94 l 2x66
 226.25228104 94 233 108.790944649 233 360 c 2
 233 651 l 1
 39 651 l 1
 39 758 l 1
 233 758 l 1
 233 1024 l 2
 233 1032 233 1270 229 1286 c 0
 221 1313 199 1317 174 1317 c 2
 39 1317 l 1
 39 1411 l 1
 352 1411 l 2
 458 1411 568 1417 674 1417 c 2
 680 1417 l 2
 938 1417 1142 1368 1294 1196 c 0
 1394 1083 1458 927 1458 745 c 2
 1458 743 l 2
 1458 471 1321 206 1100 82 c 0
 973 11 821 -8 676 -8 c 0xae
 574 -8 471 0 369 0 c 2
 39 0 l 1
444 182 m 2
 444 164 444 141 477 135 c 0
 557 119 635 109 719 109 c 0
 869 109 1065 145 1169 385 c 0
 1210 479 1231 584 1231 688 c 0
 1231 969 1084 1169 877 1247 c 0
 766 1288 645 1290 528 1290 c 2
 494 1290 l 2xb6
 453 1290 444 1272 444 1241 c 2
 444 758 l 1
 745 758 l 1
 745 651 l 1
 444 651 l 1
 444 182 l 2
EndSplineSet
Validated: 1
EndChar

StartChar: dcroat
Encoding: 273 273 130
Width: 1179
GlyphClass: 2
Flags: HMW
HStem: -35 143<396 610> 0 82<1032 1155 1032 1155> 862 123<458 625 551 625> 1116 106<481 773 481 777 481 773 982 1153> 1358 98<596 711 596 596> 1442 41G<966 980>
VStem: 61 182<418 545> 780 195<437 438 438 541 437 768>
LayerCount: 3
Fore
SplineSet
61 424 m 0
 61 666 183 784 236 827 c 0
 306.41635991 884.426934295 495.027996523 985 623 985 c 2
 625 985 l 2
 676 985 727 973 772 950 c 1
 778 954 l 1
 778 1012 l 2
 778 1034 778 1073 777 1116 c 1
 481 1116 l 1
 481 1223 l 1
 773 1223 l 1
 766.850172562 1345.99654876 753.018196463 1358 711 1358 c 2
 596 1358 l 1
 596 1456 l 1xbb
 823 1460 957 1483 975 1483 c 0
 985 1483 991 1476 991 1466 c 0
 991 1450 986 1383 982 1223 c 1
 1153 1223 l 1
 1153 1116 l 1
 980 1116 l 1
 977 978 975 791 975 541 c 2
 975 438 l 2
 975 436 975 136 983 109 c 1
 991 86 1009 82 1032 82 c 2
 1155 82 l 1
 1155 0 l 1
 782 0 l 1x77
 782 78 l 1
 776 80 l 1
 612 -18 l 1
 571 -28 530 -35 485 -35 c 0xb3
 307 -35 61 74 61 424 c 0
244 479 m 0x33
 244 195.828125 488.3546875 109 592 109 c 0
 629 109 686 117 780 168 c 1
 780 768 l 1
 737 809 653 862 553 862 c 2
 551 862 l 2
 365 862 244 688 244 479 c 0x33
EndSplineSet
Validated: 1
EndChar

StartChar: Eogonek
Encoding: 280 280 131
Width: 1183
GlyphClass: 2
Flags: HMW
HStem: -438 147<934 997 934 1002> 0 94<39 168 168 194 39 348 39 168> 0 133<39 481> 719 109<444 848 442 856> 936 41G<887 975 975 975> 1292 119 1317 94<39 193 39 348>
VStem: 233 209<360 719> 770 109<-215 -180 -207 -180 -180 -178 -207 -162> 889 86<569 684 684 694> 1004 86<1112 1397> 1038 78<362 362>
LayerCount: 3
Fore
SplineSet
39 0 m 1
 39 94 l 1
 168 94 l 2
 224.092578125 94 233 116.2234375 233 360 c 2
 233 1024 l 2xd9d0
 233 1287.21711364 239.631761884 1317 193 1317 c 2
 39 1317 l 1
 39 1411 l 1
 348 1411 l 2xdbd0
 588 1411 829 1411 1069 1415 c 1
 1071 1415 l 2
 1085 1415 1090 1407 1090 1397 c 2
 1090 1112 l 1
 1004 1112 l 1
 998 1231 1001 1266 938 1272 c 0
 799 1286 660 1292 510 1292 c 2
 489 1292 l 2
 466 1292 444 1288 444 1257 c 2
 444 827 l 1
 856 827 l 2
 885 827 887 843 887 870 c 2
 887 977 l 1
 975 977 l 1
 975 569 l 1
 889 569 l 1
 889 684 l 2
 889 704 883 719 848 719 c 2
 442 719 l 1
 442 172 l 2
 442 156 444 133 473 133 c 0xbde0
 489 133 774 148 924 156 c 0
 1008 161 1015 210 1038 362 c 1
 1116 362 l 1
 1116 14 l 2
 1116 2 1112 -4 1100 -4 c 0
 1076 -4 1052 -4 1011 -3 c 1
 935 -49 879 -103 879 -178 c 2
 879 -180 l 2
 879 -233 906 -291 963 -291 c 0
 1033 -291 1043 -229 1061 -229 c 0
 1081 -229 1098 -289 1098 -322 c 0
 1098 -400 1041 -438 965 -438 c 0
 809 -438 770 -289 770 -215 c 2
 770 -213 l 2
 770 -111 838 -55 895 -4 c 1
 890.665847472 0.334152528188 400.245586777 0 348 0 c 2
 39 0 l 1
EndSplineSet
Validated: 33
EndChar

StartChar: eogonek
Encoding: 281 281 132
Width: 1064
GlyphClass: 2
Flags: HMW
HStem: -438 147<794 846 794 865> -35 168<472 526> 520 96<256 256 256 977 250 256> 893 109<440 512 512 514>
VStem: 61 186<396 494 396 593> 618 109<-223 -186>
LayerCount: 3
Fore
SplineSet
61 430 m 0
 61 756 326 1001 555 1001 c 0
 731 1001 977 864 977 545 c 2
 977 520 l 1
 250 520 l 1
 250 510 248 499 248 487 c 0
 248 305 377 133 567 133 c 0
 645 133 768 162 954 332 c 1
 1004 274 l 1
 807 43 729 -51 727 -176 c 1
 727 -178 l 2
 727 -268 776 -291 811 -291 c 0
 881 -291 889 -229 909 -229 c 0
 929 -229 944 -291 944 -322 c 0
 944 -369 917 -438 813 -438 c 0
 680 -438 618 -327 618 -221 c 0
 618 -151 641 -66 696 8 c 1
 692 12 l 1
 629 -19 560 -35 494 -35 c 0
 271 -35 61 131 61 430 c 0
256 616 m 1
 772 621 l 1
 741 801 620 893 514 893 c 2
 512 893 l 2
 369 893 281 763 256 616 c 1
EndSplineSet
Validated: 1
EndChar

StartChar: Hbar
Encoding: 294 294 133
Width: 1673
GlyphClass: 2
Flags: HMW
HStem: 0 94<514 639 39 39 1034 1157 1157 1184 1509 1634> 719 106 1036 106<1440 1634 1440 1634 1440 1634> 1317 94<39 166 39 639 482 508 508 639 1034 1161 1478 1503 1503 1634>
VStem: 233 211<360 700 838 842 842 1024 1024 1025> 1229 211<360 705 705 711 844 1024 1024 1024 1024 1024>
LayerCount: 3
Fore
SplineSet
39 0 m 1
 39 94 l 1
 162 94 l 2
 215 94 225 110 227 143 c 0
 231 215 233 288 233 360 c 0
 233 585.333333333 233 810.666666667 233 1036 c 1
 39 1036 l 1
 39 1143 l 1
 233 1143 l 1
 230.698129358 1292.62159172 239.014386101 1317 166 1317 c 2
 39 1317 l 1
 39 1411 l 1
 639 1411 l 1
 639 1317 l 1
 508 1317 l 2
 457 1317 446 1299 446 1268 c 0
 445 1226 445 1184 445 1143 c 1
 1228 1143 l 1
 1225.74118597 1289.82291171 1237.39584104 1317 1161 1317 c 2
 1034 1317 l 1
 1034 1411 l 1
 1634 1411 l 1
 1634 1317 l 1
 1503 1317 l 2
 1452 1317 1442 1299 1442 1268 c 0
 1441 1226 1440 1184 1440 1143 c 1
 1634 1143 l 1
 1634 1036 l 1
 1440 1036 l 1
 1440 360 l 2
 1440 114.15546875 1437.07109375 94 1509 94 c 2
 1634 94 l 1
 1634 0 l 1
 1034 0 l 1
 1034 94 l 1
 1157 94 l 2
 1210 94 1221 110 1223 143 c 0
 1227 215 1229 288 1229 360 c 2
 1229 705 l 2
 1229 717 1226 719 1130 719 c 2
 625 719 l 2
 446.296875 719 444 721.952148438 444 700 c 2
 444 360 l 2
 444 111.7625 443.97265625 94 514 94 c 2
 639 94 l 1
 639 0 l 1
 39 0 l 1
444 842 m 2
 444 834 447 827 459 827 c 0
 514 825 570 825 625 825 c 2
 1049 825 l 2
 1228.98125 825 1229 820.88984375 1229 844 c 2
 1229 1036 l 1
 444 1036 l 1
 444 842 l 2
EndSplineSet
Validated: 33
EndChar

StartChar: hbar
Encoding: 295 295 134
Width: 1302
GlyphClass: 2
Flags: HMW
HStem: 0 82<27 152 152 171 457 582 27 152 723 848 848 867 1153 1278> 842 156<722 799 722 801> 1087 106<27 202 27 205 27 202 410 662> 1358 98<25 139 25 25> 1442 41G<394 409>
VStem: 207 201 903 195
LayerCount: 3
Fore
SplineSet
25 1358 m 1
 25 1456 l 1xf6
 252 1460 385 1483 403 1483 c 0
 413 1483 420 1476 420 1468 c 0
 420 1456 414 1348 410 1194 c 1
 662 1194 l 1
 662 1087 l 1
 408 1087 l 1
 408 866 l 1
 412 862 l 1
 645 989 l 1
 663 993 702 997 741 997 c 0
 1010.38556448 997 1079.32525612 864.952160356 1094 750 c 1
 1098 608 l 1
 1098 360 l 2
 1098 112 1100 82 1153 82 c 2
 1278 82 l 1
 1278 0 l 1
 723 0 l 1
 723 82 l 1
 848 82 l 2
 897.071875 82 903 97.6390625 903 360 c 2
 903 616 l 2
 903 692 901 842 700 842 c 0
 581 842 483 805 401 752 c 1
 401 360 l 2
 401 92 410 82 457 82 c 2
 582 82 l 1
 582 0 l 1
 27 0 l 1
 27 82 l 1
 152 82 l 2
 201.071875 82 207 97.6390625 207 360 c 2
 207 971 l 2
 207 1005 206 1045 205 1087 c 1
 27 1087 l 1
 27 1194 l 1
 202 1194 l 1xee
 194.756095348 1334.04882327 190.900708024 1358 139 1358 c 2
 25 1358 l 1
EndSplineSet
Validated: 1
EndChar

StartChar: Iogonek
Encoding: 302 302 135
Width: 677
GlyphClass: 2
Flags: HMW
HStem: -438 147<342 406 342 411> 0 94<39 162 162 188 39 300 39 162 514 639> 1317 94<39 170 39 639 482 508 508 639>
VStem: 178 109 233 211
LayerCount: 3
Fore
SplineSet
39 0 m 1
 39 94 l 1
 162 94 l 2
 215 94 225 110 227 143 c 0
 231 215 233 288 233 360 c 2
 233 1024 l 2
 233 1106 233 1186 231 1268 c 0
 231 1309 209 1317 170 1317 c 2
 39 1317 l 1
 39 1411 l 1
 639 1411 l 1
 639 1317 l 1
 508 1317 l 2
 457 1317 446 1299 446 1268 c 0
 444 1186 444 1106 444 1024 c 2
 444 360 l 2xe8
 444 111.7625 443.97265625 94 514 94 c 2
 639 94 l 1
 639 0 l 1
 424 0 l 1
 346 -47 287 -101 287 -178 c 2
 287 -180 l 2xf0
 287 -233 314 -291 371 -291 c 0
 441 -291 451 -229 469 -229 c 0
 489 -229 506 -289 506 -322 c 0
 506 -400 449 -438 373 -438 c 0
 217 -438 178 -289 178 -215 c 0xf0
 178 -113 246 -55 303 -4 c 1
 300 0 l 1
 39 0 l 1
EndSplineSet
Validated: 33
EndChar

StartChar: iogonek
Encoding: 303 303 136
Width: 589
GlyphClass: 2
Flags: HMW
HStem: -438 147<297 360 297 366> 0 82<27 147 147 167 27 255 27 147 453 565> 870 82<29 63 63 115 29 63> 938 41G<387 395> 1180 223<281 341 281 344>
VStem: 133 109 201 223 203 195
LayerCount: 3
Fore
SplineSet
27 0 m 1
 27 82 l 1
 147 82 l 2xdc
 200.117382812 82 203 96.65 203 416 c 2
 203 600 l 2
 203 868 201 870 115 870 c 2
 29 870 l 1
 29 952 l 1
 63 952 l 2xe9
 247 952 383 979 391 979 c 0
 399 979 403 975 403 965 c 0
 403 930 397 895 397 614 c 2
 397 412 l 2
 397 97 400 82 453 82 c 2
 565 82 l 1
 565 0 l 1
 379 0 l 1
 301 -47 242 -101 242 -178 c 2
 242 -180 l 2xdc
 242 -233 269 -291 326 -291 c 0
 396 -291 406 -229 424 -229 c 0xda
 444 -229 461 -289 461 -322 c 0
 461 -400 404 -438 328 -438 c 0
 172 -438 133 -289 133 -215 c 0
 133 -113 201 -55 258 -4 c 1
 255 0 l 1
 27 0 l 1
201 1292 m 0xca
 201 1351 250 1403 311 1403 c 0
 370 1403 424 1358 424 1292 c 0
 424 1231 377 1180 311 1180 c 0
 245 1180 201 1231 201 1292 c 0xca
EndSplineSet
Validated: 1
EndChar

StartChar: dotlessi
Encoding: 305 305 137
Width: 589
GlyphClass: 2
Flags: HMW
HStem: 0 82<27 147 147 167 453 565 27 147> 870 82<29 63 63 115 29 63> 938 41G<387 395>
VStem: 203 195<416 600 600 614>
LayerCount: 3
Fore
SplineSet
27 0 m 1
 27 82 l 1
 147 82 l 2xb0
 200.117382812 82 203 96.65 203 416 c 2
 203 600 l 2
 203 868 201 870 115 870 c 2
 29 870 l 1
 29 952 l 1
 63 952 l 2xd0
 247 952 383 979 391 979 c 0
 399 979 403 975 403 965 c 0
 403 930 397 895 397 614 c 2
 397 412 l 2
 397 97 400 82 453 82 c 2
 565 82 l 1
 565 0 l 1
 27 0 l 1
EndSplineSet
Validated: 1
EndChar

StartChar: kgreenlandic
Encoding: 312 312 138
Width: 1206
GlyphClass: 2
Flags: HMW
HStem: 0 82<25 131 131 158 465 573 25 131 666 754 754 760 1130 1180> 870 82<31 66 66 117 31 66 657 735 1029 1069 1069 1130> 938 41G<389 397>
VStem: 205 188<360 369 369 446 317 600>
LayerCount: 3
Fore
SplineSet
25 0 m 1
 25 82 l 1
 131 82 l 2
 184 82 197 100 199 135 c 0
 203 211 205 284 205 360 c 2
 205 600 l 2
 205 868 203 870 117 870 c 2
 31 870 l 1
 31 952 l 1
 66 952 l 2xd0
 250 952 385 979 393 979 c 0xb0
 401 979 406 975 406 965 c 0
 406 930 399 895 399 614 c 2
 399 563 l 1
 403 561 l 1
 747 805 774 817 774 846 c 0
 774 866 758 870 735 870 c 2
 657 870 l 1
 657 952 l 1
 1130 952 l 1
 1130 870 l 1
 1069 870 l 1
 1067.04988523 870.000067186 l 2
 989.075382962 870.000067186 992.245901639 869.016393443 659 629 c 1
 1038 84 1015 82 1130 82 c 2
 1180 82 l 1
 1180 0 l 1
 666 0 l 1
 666 82 l 1
 754 82 l 2
 766 82 788 81 788 104 c 0
 788 116 778 139 760 166 c 2
 508 530 l 1
 393 446 l 1
 393 369 l 2xd0
 393 95.3 390.947949219 82 465 82 c 2
 573 82 l 1
 573 0 l 1
 25 0 l 1
EndSplineSet
Validated: 33
EndChar

StartChar: Lslash
Encoding: 321 321 139
Width: 1179
GlyphClass: 2
Flags: HMW
HStem: 0 94<39 168 168 194 39 352 39 168> 0 123 911 41G<870 870> 1317 94<43 193 43 635 466 483 483 635>
VStem: 233 211<360 532 532 532 759 1024> 1026 86<346 346>
LayerCount: 3
Fore
SplineSet
39 0 m 1
 39 94 l 1
 168 94 l 2xbc
 224.092578125 94 233 116.2234375 233 360 c 2
 233 532 l 1
 230 535 l 1
 45 449 l 1
 45 569 l 1
 233 657 l 1
 233 1024 l 2
 233 1287.21711364 239.631761884 1317 193 1317 c 2
 43 1317 l 1
 43 1411 l 1
 635 1411 l 1
 635 1317 l 1
 483 1317 l 2
 448 1317 446 1297 446 1266 c 0
 444 1186 444 1104 444 1024 c 2
 444 759 l 1
 448 756 l 1
 870 952 l 1
 870 834 l 1
 444 635 l 1
 444 156 l 2
 444 125 452 123 487 123 c 2
 502 123 l 2x7c
 1013.68621924 123 1004.93972381 135.397238109 1026 346 c 1
 1112 346 l 1
 1112 14 l 2
 1112 2 1110 -4 1096 -4 c 0
 1022 -4 946 0 352 0 c 2
 39 0 l 1
EndSplineSet
Validated: 33
EndChar

StartChar: lslash
Encoding: 322 322 140
Width: 606
GlyphClass: 2
Flags: HMW
HStem: 0 82<27 152 152 171 457 582 27 152> 942 41G<582 582> 1358 98<25 139 25 25> 1442 41G<394 409>
VStem: 207 195<360 636 636 636>
LayerCount: 3
Fore
SplineSet
25 1358 m 1
 25 1456 l 1xe8
 252 1460 385 1483 403 1483 c 0
 413 1483 420 1478 420 1468 c 0
 420 1447 404 1306 402 884 c 1
 405 881 l 1
 582 983 l 1
 582 860 l 1
 401 755 l 1
 401 360 l 2
 401 92 410 82 457 82 c 2
 582 82 l 1
 582 0 l 1
 27 0 l 1
 27 82 l 1
 152 82 l 2xd8
 201.071875 82 207 97.6390625 207 360 c 2
 207 636 l 1
 203 639 l 1
 27 537 l 1
 27 664 l 1
 207 767 l 1
 207 971 l 2
 207 1086 200 1278 190 1319 c 1
 184 1348 170 1358 139 1358 c 2
 25 1358 l 1
EndSplineSet
Validated: 1
EndChar

StartChar: OE
Encoding: 338 338 141
Width: 1968
GlyphClass: 2
Flags: HMW
HStem: -10 100<864 877> 0 133<1070 1268 1118 1268> 719 109<1231 1634 1229 1642> 936 41G<1673 1761 1761 1761> 1292 119 1321 94<852 879 879 915 852 945>
VStem: 109 242<553 897> 1020 209<360 719> 1675 86<569 684 684 700> 1790 86<1112 1397> 1825 78<362 362>
LayerCount: 3
Fore
SplineSet
109 702 m 0
 109 1091 395 1409 852 1415 c 1
 879 1415 l 2xb7a0
 953 1415 1028 1411 1102 1411 c 2
 1135 1411 l 2x3ba0
 1375 1411 1615 1411 1855 1415 c 1
 1858 1415 l 2
 1872 1415 1876 1407 1876 1397 c 2
 1876 1112 l 1
 1790 1112 l 1x37c0
 1784 1231 1787 1266 1724 1272 c 0
 1585 1286 1446 1292 1296 1292 c 2
 1274 1292 l 2
 1254 1292 1231 1288 1231 1257 c 2
 1231 827 l 1
 1642 827 l 2
 1669 827 1673 843 1673 866 c 2
 1673 977 l 1
 1761 977 l 1
 1761 569 l 1
 1675 569 l 1
 1675 684 l 2
 1675 717 1654 719 1634 719 c 2
 1229 719 l 1
 1229 172 l 2
 1229 156 1231 133 1260 133 c 0
 1276 133 1560 148 1710 156 c 0
 1798 161 1807 229 1825 362 c 1
 1903 362 l 1
 1903 14 l 2
 1903 2 1900 -4 1888 -4 c 0
 1812 -4 1737 0 1135 0 c 2
 1118 0 l 2x7ba0
 1022 0 925 -10 827 -10 c 0
 405 -10 109 303 109 702 c 0
350 725 m 0
 350 358.944731917 601.527409362 90 889 90 c 0
 1025.12421875 90 1020 108.5890625 1020 360 c 2
 1020 1024 l 2
 1020 1294 1018 1291 1008 1303 c 0
 1000 1313 981 1321 909 1321 c 0
 592 1321 350 1087 350 725 c 0
EndSplineSet
Validated: 33
EndChar

StartChar: oe
Encoding: 339 339 142
Width: 1785
GlyphClass: 2
Flags: HMW
HStem: -33 166<1248 1371> -29 106<515 641> 520 96<1026 1026 1026 1724 1016 1026> 872 119<443 588 524 588> 893 109<1241 1348>
VStem: 61 193<380 607> 850 164<414 418 418 497 389 553>
LayerCount: 3
Fore
SplineSet
61 457 m 0
 61 758 305 991 586 991 c 2
 588 991 l 2x76
 742 991 874 918 949 805 c 1
 956 805 l 1
 1049 919 1175 1001 1307 1001 c 0
 1438 1001 1724 907 1724 528 c 2
 1724 520 l 1
 1016 520 l 1
 1016 510 1014 502 1014 492 c 0
 1014 287 1163 133 1333 133 c 0
 1468 133 1591 230 1671 330 c 1
 1724 287 l 1
 1661 189 1489 -33 1253 -33 c 0xae
 1118 -33 1000 41 927 145 c 1
 919 145 l 1
 837 42 723 -29 559 -29 c 0x66
 272 -29 61 178 61 457 c 0
254 514 m 0
 254 246 430 78 600 78 c 0x76
 709 78 850 156 850 414 c 2
 850 418 l 2
 850 688 702 872 526 872 c 2
 524 872 l 2
 362 872 254 721 254 514 c 0
1026 616 m 1
 1520 621 l 1
 1497 738 1421 893 1274 893 c 0x2e
 1153 893 1049 774 1026 616 c 1
EndSplineSet
Validated: 1
EndChar

StartChar: Scedilla
Encoding: 350 350 143
Width: 1062
GlyphClass: 2
Flags: HMW
HStem: -432 68 -227 326 -207 104 -45 143 983 43G<801 897 801 801> 1303 143<443 485 485 487>
VStem: 68 188 82 104 625 86 801 96 807 188
LayerCount: 3
Fore
SplineSet
68 1036 m 0
 68 1290 340 1446 547 1446 c 0
 682 1446 809 1382 897 1319 c 1
 897 983 l 1
 801 983 l 1xcec0
 785 1253 593 1303 487 1303 c 2
 485 1303 l 2
 329 1303 256 1194 256 1090 c 0
 256 996 321 952 356 932 c 0
 579.29620292 803.575758943 995 764.224869179 995 410 c 0
 995 185 795 -26 513 -44 c 1
 506 -109 l 1
 508 -111 l 1
 524 -105 543 -102 559 -102 c 0xaea0
 639 -102 711 -162 711 -248 c 0
 711 -359 596 -432 477 -432 c 0
 379 -432 311 -395 311 -340 c 0
 311 -307 331 -287 362 -287 c 0
 425 -287 457 -365 539 -365 c 0
 582 -365 625 -338 625 -291 c 0
 625 -238 567 -207 516 -207 c 0xaea0
 471 -207 446 -227 440 -227 c 0xcea0
 436 -227 434 -223 434 -219 c 0
 434 -213 446 -126 456 -45 c 1x9ea0
 233 -39 102 91 82 111 c 1
 82 442 l 1
 186 444 l 1
 196 301 202 244 274 193 c 1
 329 152 430 98 545 98 c 0
 721 98 807 225 807 334 c 0xcda0
 807 397 778 459 731 502 c 0
 649 578 555 580 367 664 c 0
 261 711 68 809 68 1036 c 0
EndSplineSet
Validated: 1
EndChar

StartChar: scedilla
Encoding: 351 351 144
Width: 890
GlyphClass: 2
Flags: HMW
HStem: -432 68 -227 309 -207 104 -32 114 891 113<465 471>
VStem: 86 156<720 754> 90 74<66 324 324 324> 547 86 635 164<203 342> 659 92<662 922>
LayerCount: 3
Fore
SplineSet
86 674 m 0x9d80
 86 897.908203125 338.79453125 1004 465 1004 c 2
 475 1004 l 2
 557 1004 660 983 752 922 c 1
 752 662 l 1
 659 662 l 1x9d40
 636 758 645 801 582 848 c 0
 545 875 499 891 442 891 c 0
 329 891 242 834 242 748 c 0
 242 693 279 639 383 608 c 0
 528 565 799 553 799 295 c 0
 799 102.709393799 602.934965192 -18.7085210969 437 -31 c 1
 428 -109 l 1
 430 -111 l 1
 446 -105 465 -102 481 -102 c 0
 561 -102 633 -162 633 -248 c 0
 633 -359 518 -432 399 -432 c 0
 301 -432 233 -395 233 -340 c 0
 233 -307 254 -287 285 -287 c 0
 348 -287 379 -365 461 -365 c 0
 504 -365 547 -338 547 -291 c 0
 547 -238 489 -207 438 -207 c 0xbd80
 393 -207 368 -227 362 -227 c 0xcd80
 358 -227 356 -223 356 -219 c 0
 356 -213 369 -116 380 -32 c 1
 285 -29 182 -3 90 66 c 1
 90 324 l 1
 164 324 l 1x9b80
 178.833934867 258.730686587 197.605005488 82 449 82 c 0
 594 82 635 172 635 233 c 0
 635 450 250 338 123 537 c 0
 94 582 86 633 86 674 c 0x9d80
EndSplineSet
Validated: 1
EndChar

StartChar: Tbar
Encoding: 358 358 145
Width: 1376
GlyphClass: 2
Flags: HMW
HStem: 2 92<346 514 514 525 854 1020 346 514> 662 106<252 578 252 578 788 1124> 1077 346<76 92 76 160 66 92 1288 1304> 1278 129<814 829 829 854>
VStem: 66 94<1077 1401> 578 211<360 662 768 1036> 1217 94<1077 1116 1116 1117>
LayerCount: 3
Fore
SplineSet
66 1077 m 1
 66 1401 l 2
 66 1415 70 1423 82 1423 c 0xee
 102 1423 362 1407 684 1407 c 2
 692 1407 l 2xde
 1016 1407 1278 1423 1298 1423 c 0xee
 1308 1423 1311 1417 1311 1407 c 2xde
 1311 1077 l 1
 1217 1077 l 1xee
 1217 1116 l 2
 1217 1118 1176 1264 1176 1264 c 1
 1100 1276 1022 1278 946 1278 c 2
 829 1278 l 2
 798 1278 791 1266 791 1237 c 0
 789 1169 788 1104 788 1036 c 2
 788 768 l 1
 1124 768 l 1
 1124 662 l 1
 788 662 l 1
 788 360 l 2
 788 102 788 94 854 94 c 2
 1020 94 l 1
 1020 2 l 1
 346 2 l 1
 346 94 l 1
 514 94 l 2
 537 94 567 96 571 139 c 1
 575 213 578 286 578 360 c 2
 578 662 l 1
 252 662 l 1
 252 768 l 1
 578 768 l 1
 578 1036 l 2xde
 578 1257.2921875 580.12109375 1278 541 1278 c 2
 420 1278 l 2xde
 303 1278 198 1267 182 1257 c 1
 159 1245 162 1231 160 1077 c 1
 66 1077 l 1
EndSplineSet
Validated: 33
EndChar

StartChar: tbar
Encoding: 359 359 146
Width: 657
GlyphClass: 2
Flags: HMW
HStem: -20 164<335 493> 479 106<25 166 25 166 362 362 362 580> 852 78<25 166 25 25> 852 104<360 360 360 627>
VStem: 166 196 268 102<1296 1296>
LayerCount: 3
Fore
SplineSet
25 479 m 1
 25 586 l 1
 166 586 l 1
 166 852 l 1xe8
 25 852 l 1
 25 930 l 1
 105 940 133 944 172 989 c 0
 211 1034 258 1142 268 1296 c 1xe4
 371 1296 l 1
 356 956 l 1
 627 956 l 1
 627 852 l 1
 360 852 l 1
 361 740 362 654 362 586 c 1
 580 586 l 1
 580 479 l 1
 362 479 l 1
 362 274 l 2
 362 223 371 143 467 143 c 0
 518 143 569 173 610 193 c 1
 653 111 l 1
 408 -12 l 1
 392 -18 372 -20 354 -20 c 0xd8
 315.484951905 -20 166 -0.629805524638 166 166 c 2
 166 479 l 1
 25 479 l 1
EndSplineSet
Validated: 1
EndChar

StartChar: Uogonek
Encoding: 370 370 147
Width: 1566
GlyphClass: 2
Flags: HMW
HStem: -438 147<870 934 870 939> -45 143 1317 94<39 182 39 639 476 496 496 639 1016 1141 1383 1403 1403 1528>
VStem: 233 211<655 1024 555 1165> 707 109 1210 123<483 518 518 1024>
LayerCount: 3
Fore
SplineSet
39 1317 m 1
 39 1411 l 1
 639 1411 l 1
 639 1317 l 1
 496 1317 l 2
 457 1317 446 1301 446 1270 c 0
 444 1188 444 1106 444 1024 c 2
 444 555 l 1
 455 381 l 1
 492 174 659 98 854 98 c 0
 1202 98 1210 350 1210 483 c 2
 1210 1024 l 2
 1210 1302.9965193 1212.96824348 1317 1141 1317 c 2
 1016 1317 l 1
 1016 1411 l 1
 1528 1411 l 1
 1528 1317 l 1
 1403 1317 l 2
 1364 1317 1341 1309 1339 1266 c 0
 1335 1186 1333 1104 1333 1024 c 2
 1333 518 l 2
 1333 360 1330 109 1047 -2 c 0
 998 -22 947 -34 894 -40 c 1
 847 -78 815 -122 815 -178 c 2
 815 -180 l 2
 815 -233 842 -291 899 -291 c 0
 969 -291 979 -229 997 -229 c 0
 1017 -229 1034 -289 1034 -322 c 0
 1034 -400 977 -438 901 -438 c 0
 745 -438 707 -289 707 -215 c 2
 707 -213 l 2
 707 -139 747 -82 782 -49 c 1
 780 -45 l 1
 462.204114475 -32.4554255714 246.018140815 153.238085751 240 406 c 1
 233 655 l 1
 233 1024 l 2
 233 1302.06875 243.17265625 1317 182 1317 c 2
 39 1317 l 1
EndSplineSet
Validated: 33
EndChar

StartChar: uogonek
Encoding: 371 371 148
Width: 1230
GlyphClass: 2
Flags: HMW
HStem: -438 147<859 919 859 928> -16 156<479 625> 0 82<1081 1085 1085 1206> 870 82<25 84 84 96 25 84 651 723 723 754> 938 41G<385 392 1018 1022>
VStem: 195 195<323 359> 696 109<-206 -193> 831 195<45 311 102 311 213 311 311 612>
LayerCount: 3
Fore
SplineSet
25 870 m 1
 25 952 l 1
 84 952 l 2xd7
 252 952 383 979 387 979 c 0x8f
 397 979 399 971 399 965 c 0
 399 844 389 486 389 367 c 0
 389 184.6 525.9265625 139 623 139 c 2
 625 139 l 2
 727 139 798 186 831 213 c 1
 831 618 l 2
 831 835 826 870 754 870 c 2
 651 870 l 1
 651 952 l 1
 723 952 l 2x97
 889 952 1016 979 1020 979 c 0
 1024 979 1032 977 1032 965 c 0
 1032 930 1026 895 1026 612 c 2
 1026 311 l 2
 1026 98 1028 82 1081 82 c 2
 1206 82 l 1
 1206 0 l 1
 1085 0 l 2
 981 0 897 -4 838 -84 c 0
 822 -107 805 -141 805 -180 c 0
 805 -231 830 -291 889 -291 c 0xaf
 955.796875 -291 971.5390625 -229 989 -229 c 0
 1007 -229 1024 -291 1024 -322 c 0
 1024 -400 965 -438 891 -438 c 0
 735 -438 696 -293 696 -215 c 0
 696 -170 707 -103 799 -23 c 0
 826 0 831 4 831 45 c 2
 831 102 l 2
 831 112 829 119 821 119 c 0
 815 119 813 115 623 -10 c 1
 594 -14 564 -16 535 -16 c 0
 263 -16 195 176.4921875 195 344 c 0
 195 375 199 592 199 655 c 0
 199 835 192 870 96 870 c 2
 25 870 l 1
EndSplineSet
Validated: 1
EndChar

StartChar: longs
Encoding: 383 383 149
Width: 653
GlyphClass: 2
Flags: HMW
HStem: 0 82<25 150 150 169 455 580 25 150> 1255 221<642 707> 1362 115<523 639>
VStem: 205 195<414 991 991 1055>
LayerCount: 3
Fore
SplineSet
25 0 m 1
 25 82 l 1
 150 82 l 2xb0
 201.73984375 82 205 94.8609375 205 414 c 2
 205 991 l 2
 205 1214 268 1311 397 1397 c 0
 458 1438 537 1477 635 1477 c 2
 639 1477 l 2xb0
 776 1477 805 1413 805 1370 c 0
 805 1300 737 1255 676 1255 c 0xd0
 608 1255 645 1298 600 1343 c 0
 598 1345 582 1362 551 1362 c 0
 496 1362 442 1304 422 1253 c 0
 408 1216 399 1153 399 1055 c 2
 399 414 l 2
 399 103 400 82 455 82 c 2
 580 82 l 1
 580 0 l 1
 25 0 l 1
EndSplineSet
Validated: 1
EndChar

StartChar: uni0237
Encoding: 567 567 150
Width: 581
GlyphClass: 2
Flags: HMW
HStem: 870 82<27 61 61 113 27 61> 938 41G<385 393>
VStem: 201 201<96 97 96 600>
LayerCount: 3
Fore
SplineSet
27 870 m 1
 27 952 l 1
 61 952 l 2xa0
 245 952 381 979 389 979 c 0x60
 397 979 401 975 401 965 c 0
 401 930 395 895 395 614 c 2
 395 412 l 1
 395 412 401 98 401 96 c 0
 396.302621801 -293.88239053 355.060155642 -310.422490272 84 -420 c 1
 35 -326 l 1
 82 -301 172 -268 195 -170 c 1
 201 -74 l 1
 201 600 l 2
 201 868 199 870 113 870 c 2
 27 870 l 1
EndSplineSet
Validated: 1
EndChar

StartChar: uni02BB
Encoding: 699 699 151
Width: 819
GlyphClass: 2
Flags: HMW
VStem: 293 182
LayerCount: 3
Fore
SplineSet
293 1198 m 2
 293 1202 l 2
 293 1220 297 1224 420 1464 c 0
 440 1503 448 1526 471 1526 c 0
 472.66796875 1526 541 1516.171875 541 1481 c 0
 541 1471 498 1282 475 1184 c 0
 471 1168 463 1116 410 1116 c 0
 394 1116 331 1133 311 1153 c 0
 305 1159 293 1175 293 1198 c 2
EndSplineSet
Validated: 1
EndChar

StartChar: afii57929
Encoding: 700 700 152
Width: 819
GlyphClass: 2
Flags: HMW
HStem: 1079 408
VStem: 358 182
LayerCount: 3
Fore
SplineSet
293 1122 m 0
 293 1132 335 1321 358 1419 c 0
 362 1435 371 1487 424 1487 c 0
 425.755247588 1487 541 1475.21797076 541 1405 c 2
 541 1401 l 2
 541 1385 537 1379 414 1139 c 0
 394 1100 385 1077 362 1077 c 0
 360.208884466 1077 293 1086.91425199 293 1122 c 0
EndSplineSet
Validated: 1
EndChar

StartChar: uni02C0
Encoding: 704 704 153
Width: 819
GlyphClass: 2
Flags: HMW
HStem: 1343 115<354 387 387 389>
VStem: 360 59<1138 1167 1126 1187> 455 94<1265 1308>
LayerCount: 3
Fore
SplineSet
272 1360 m 0
 272 1423 317 1458 389 1458 c 0
 516 1458 549 1368 549 1315 c 0
 549 1206 420 1198 420 1137 c 0
 420 1117 434 1106 434 1102 c 0
 434 1098 432 1092 426 1092 c 0
 393 1092 360 1120 360 1155 c 0
 360 1218 455 1239 455 1290 c 0
 455 1325 418 1343 389 1343 c 2
 387 1343 l 2
 321 1343 319 1288 301 1288 c 0
 285 1288 272 1335 272 1360 c 0
EndSplineSet
Validated: 1
EndChar

StartChar: circumflex
Encoding: 710 710 154
Width: 819
GlyphClass: 2
Flags: HMW
HStem: 1094 362<172 442 373 645>
VStem: 133 551<1112 1112>
LayerCount: 3
Fore
SplineSet
133 1112 m 1
 373 1456 l 1
 442 1456 l 1
 684 1112 l 1
 645 1094 l 1
 408 1276 l 1
 172 1094 l 1
 133 1112 l 1
EndSplineSet
Validated: 1
EndChar

StartChar: caron
Encoding: 711 711 155
Width: 819
GlyphClass: 2
Flags: HMW
HStem: 1094 362<168 440 168 371>
VStem: 129 551<1438 1438>
LayerCount: 3
Fore
SplineSet
129 1438 m 1
 168 1456 l 1
 406 1274 l 1
 641 1456 l 1
 680 1438 l 1
 440 1094 l 1
 371 1094 l 1
 129 1438 l 1
EndSplineSet
Validated: 1
EndChar

StartChar: uni02CD
Encoding: 717 717 157
Width: 819
GlyphClass: 2
Flags: HMW
HStem: -313 106<135 684 135 684>
VStem: 135 549<-313 -207 -313 -207>
LayerCount: 3
Fore
SplineSet
135 -207 m 1
 684 -207 l 1
 684 -313 l 1
 135 -313 l 1
 135 -207 l 1
EndSplineSet
Validated: 1
EndChar

StartChar: breve
Encoding: 728 728 158
Width: 819
GlyphClass: 2
Flags: HMW
HStem: 1130 139<353 457 353 497> 1368 41<129 188 188 188 623 682 682 682>
VStem: 129 553<1409 1409>
LayerCount: 3
Fore
SplineSet
129 1409 m 1
 188 1409 l 1
 221 1337 302 1270 406 1270 c 0
 508 1270 590 1337 623 1409 c 1
 682 1409 l 1
 678 1325 588 1130 406 1130 c 0
 230 1130 133 1319 129 1409 c 1
EndSplineSet
Validated: 1
EndChar

StartChar: dotaccent
Encoding: 729 729 159
Width: 819
GlyphClass: 2
Flags: HMW
HStem: 1180 223<372 433 372 436>
VStem: 293 223<1262 1322>
LayerCount: 3
Fore
SplineSet
293 1292 m 0
 293 1351 340 1403 403 1403 c 0
 462 1403 516 1358 516 1292 c 0
 516 1231 469 1180 403 1180 c 0
 337 1180 293 1231 293 1292 c 0
EndSplineSet
Validated: 1
EndChar

StartChar: ring
Encoding: 730 730 160
Width: 819
GlyphClass: 2
Flags: HMW
HStem: 1112 82<383 429 383 451> 1368 82<383 429>
VStem: 238 82<1255 1306 1255 1327> 492 82<1256 1306>
LayerCount: 3
Fore
SplineSet
238 1280 m 0
 238 1374 316 1450 406 1450 c 0
 496 1450 573 1376 573 1280 c 0
 573 1186 496 1112 406 1112 c 0
 316 1112 238 1186 238 1280 c 0
319 1280 m 0
 319 1231 361 1194 406 1194 c 0
 453 1194 492 1233 492 1280 c 0
 492 1331 453 1368 406 1368 c 0
 361 1368 319 1331 319 1280 c 0
EndSplineSet
Validated: 1
EndChar

StartChar: ogonek
Encoding: 731 731 161
Width: 819
GlyphClass: 2
Flags: HMW
HStem: -438 147<406 469 406 474>
VStem: 242 109<-207 -180 -180 -178 -207 -164>
LayerCount: 3
Fore
SplineSet
242 -215 m 0
 242 -113 310 -55 367 -4 c 1
 356 10 l 1
 516 16 l 1
 424 -35 350 -92 350 -178 c 2
 350 -180 l 2
 350 -233 377 -291 434 -291 c 0
 504 -291 514 -229 532 -229 c 0
 552 -229 569 -289 569 -322 c 0
 569 -400 512 -438 436 -438 c 0
 280 -438 242 -289 242 -215 c 0
EndSplineSet
Validated: 1
EndChar

StartChar: tilde
Encoding: 732 732 162
Width: 819
GlyphClass: 2
Flags: HMW
HStem: 1186 133<501 538> 1280 135<302 329>
VStem: 117 598<1214 1386>
LayerCount: 3
Fore
SplineSet
117 1214 m 1
 217 1351 262 1415 342 1415 c 0x60
 432 1415 461 1319 541 1319 c 0xa0
 594 1319 623 1358 678 1415 c 1x60
 715 1386 l 1
 645 1280 582 1186 494 1186 c 0xa0
 408 1186 369 1280 289 1280 c 0x60
 236 1280 201 1237 154 1186 c 1xa0
 117 1214 l 1
EndSplineSet
Validated: 1
EndChar

StartChar: hungarumlaut
Encoding: 733 733 163
Width: 819
GlyphClass: 2
Flags: HMW
HStem: 1094 350<221 270 268 522>
LayerCount: 3
Fore
SplineSet
158 1139 m 0
 158 1141 201 1388 211 1413 c 1
 219 1427 235 1444 268 1444 c 2
 270 1444 l 2
 285.525 1444 387 1428 387 1364 c 2
 387 1358 l 2
 387 1342 383 1333 260 1118 c 1
 256 1108 245 1094 225 1094 c 0
 217 1094 158 1106 158 1139 c 0
444 1139 m 0
 444 1141 488 1388 498 1413 c 1
 506 1427 522 1444 555 1444 c 2
 557 1444 l 2
 572.55625 1444 674 1428 674 1364 c 2
 674 1358 l 2
 674 1342 670 1333 547 1118 c 1
 543 1108 532 1094 512 1094 c 0
 504 1094 444 1106 444 1139 c 0
EndSplineSet
Validated: 1
EndChar

StartChar: gravecomb
Encoding: 768 768 164
Width: 0
GlyphClass: 2
Flags: HM
HStem: 1110 317<-459 -197>
VStem: -530 354<1133 1353>
LayerCount: 3
Fore
SplineSet
-530 1329 m 0
 -530 1376 -477 1427 -440 1427 c 0
 -407 1427 -379 1394 -365 1378 c 0
 -228 1218 -176 1155 -176 1139 c 0
 -176 1127 -189 1110 -205 1110 c 0
 -221 1110 -252 1129 -264 1135 c 0
 -473 1248 -530 1276 -530 1329 c 0
EndSplineSet
Validated: 1
EndChar

StartChar: acutecomb
Encoding: 769 769 165
Width: 0
GlyphClass: 2
Flags: HM
HStem: 1110 317<-510 -248>
VStem: -530 354<1133 1353>
LayerCount: 3
Fore
SplineSet
-530 1139 m 0
 -530 1155 -479 1218 -342 1378 c 0
 -328 1394 -299 1427 -266 1427 c 0
 -229 1427 -176 1376 -176 1329 c 0
 -176 1276 -233 1248 -442 1135 c 0
 -454 1129 -486 1110 -502 1110 c 0
 -518 1110 -530 1127 -530 1139 c 0
EndSplineSet
Validated: 1
EndChar

StartChar: uni0302
Encoding: 770 770 166
Width: 0
GlyphClass: 2
Flags: HM
HStem: 1094 362<-647 -377 -446 -174>
VStem: -686 551<1112 1112>
LayerCount: 3
Fore
SplineSet
-686 1112 m 1
 -446 1456 l 1
 -377 1456 l 1
 -135 1112 l 1
 -174 1094 l 1
 -412 1276 l 1
 -647 1094 l 1
 -686 1112 l 1
EndSplineSet
Validated: 1
EndChar

StartChar: tildecomb
Encoding: 771 771 167
Width: 0
GlyphClass: 2
Flags: HM
HStem: 1186 133<-318 -282> 1280 135<-517 -490>
VStem: -702 598<1214 1386>
LayerCount: 3
Fore
SplineSet
-702 1214 m 1
 -602 1351 -557 1415 -477 1415 c 0x60
 -387 1415 -359 1319 -279 1319 c 0xa0
 -226 1319 -196 1358 -141 1415 c 1x60
 -104 1386 l 1
 -174 1280 -238 1186 -326 1186 c 0xa0
 -412 1186 -450 1280 -530 1280 c 0x60
 -583 1280 -619 1237 -666 1186 c 1xa0
 -702 1214 l 1
EndSplineSet
Validated: 1
EndChar

StartChar: uni0304
Encoding: 772 772 168
Width: 0
GlyphClass: 2
Flags: HM
HStem: 1184 106<-678 -129 -678 -129>
VStem: -678 549<1184 1290 1184 1290>
LayerCount: 3
Fore
SplineSet
-678 1184 m 1
 -678 1290 l 1
 -129 1290 l 1
 -129 1184 l 1
 -678 1184 l 1
EndSplineSet
Validated: 1
EndChar

StartChar: uni0306
Encoding: 774 774 169
Width: 0
GlyphClass: 2
Flags: HM
HStem: 1130 139<-466 -362 -466 -323> 1368 41G<-690 -631 -631 -631 -197 -137 -137 -137>
VStem: -690 59<1409 1409> -197 59<1409 1409>
LayerCount: 3
Fore
SplineSet
-690 1409 m 1
 -631 1409 l 1
 -598 1337 -518 1270 -414 1270 c 0
 -312 1270 -230 1337 -197 1409 c 1
 -137 1409 l 1
 -141 1325 -232 1130 -414 1130 c 0
 -590 1130 -686 1319 -690 1409 c 1
EndSplineSet
Validated: 1
EndChar

StartChar: uni0307
Encoding: 775 775 170
Width: 0
GlyphClass: 2
Flags: HM
HStem: 1180 223<-447 -386 -447 -383>
VStem: -526 223<1262 1322>
LayerCount: 3
Fore
SplineSet
-526 1292 m 0
 -526 1351 -479 1403 -416 1403 c 0
 -357 1403 -303 1358 -303 1292 c 0
 -303 1231 -350 1180 -416 1180 c 0
 -482 1180 -526 1231 -526 1292 c 0
EndSplineSet
Validated: 1
EndChar

StartChar: uni0308
Encoding: 776 776 171
Width: 0
GlyphClass: 2
Flags: HM
HStem: 1180 223<-648 -587 -648 -584 -228 -165>
VStem: -727 223<1262 1322> -307 223<1262 1322>
LayerCount: 3
Fore
SplineSet
-727 1292 m 0
 -727 1351 -679 1403 -616 1403 c 0
 -557 1403 -504 1358 -504 1292 c 0
 -504 1231 -550 1180 -616 1180 c 0
 -682 1180 -727 1231 -727 1292 c 0
-307 1292 m 0
 -307 1351 -260 1403 -197 1403 c 0
 -134 1403 -84 1351 -84 1292 c 0
 -84 1231 -131 1180 -197 1180 c 0
 -263 1180 -307 1231 -307 1292 c 0
EndSplineSet
Validated: 1
EndChar

StartChar: hookabovecomb
Encoding: 777 777 172
Width: 0
GlyphClass: 2
Flags: HM
HStem: 1343 115<-465 -432 -432 -430>
VStem: -459 59<1138 1167 1126 1187> -365 94<1265 1308>
LayerCount: 3
Fore
SplineSet
-547 1360 m 0
 -547 1423 -502 1458 -430 1458 c 0
 -303 1458 -270 1368 -270 1315 c 0
 -270 1206 -399 1198 -399 1137 c 0
 -399 1117 -385 1106 -385 1102 c 0
 -385 1098 -387 1092 -393 1092 c 0
 -426 1092 -459 1120 -459 1155 c 0
 -459 1218 -365 1239 -365 1290 c 0
 -365 1325 -401 1343 -430 1343 c 2
 -432 1343 l 2
 -498 1343 -500 1288 -518 1288 c 0
 -534 1288 -547 1335 -547 1360 c 0
EndSplineSet
Validated: 1
EndChar

StartChar: uni030A
Encoding: 778 778 173
Width: 0
GlyphClass: 2
Flags: HM
HStem: 1112 82<-436 -390 -436 -369> 1368 82<-436 -390>
VStem: -582 82<1255 1306 1255 1327> -328 82<1256 1306>
LayerCount: 3
Fore
SplineSet
-582 1280 m 0
 -582 1374 -504 1450 -414 1450 c 0
 -324 1450 -246 1376 -246 1280 c 0
 -246 1186 -324 1112 -414 1112 c 0
 -504 1112 -582 1186 -582 1280 c 0
-500 1280 m 0
 -500 1231 -459 1194 -414 1194 c 0
 -367 1194 -328 1233 -328 1280 c 0
 -328 1331 -367 1368 -414 1368 c 0
 -459 1368 -500 1331 -500 1280 c 0
EndSplineSet
Validated: 1
EndChar

StartChar: uni030B
Encoding: 779 779 174
Width: 0
GlyphClass: 2
Flags: HM
HStem: 1094 350<-598 -549 -551 -297>
VStem: -662 229<1122 1358> -608 176 -375 229<1122 1358> -322 176
LayerCount: 3
Fore
SplineSet
-662 1139 m 0xc0
 -662 1141 -618 1388 -608 1413 c 1xa0
 -600 1427 -584 1444 -551 1444 c 2
 -549 1444 l 2
 -533.475 1444 -432 1428 -432 1364 c 2
 -432 1358 l 2xa0
 -432 1342 -436 1333 -559 1118 c 1
 -563 1108 -574 1094 -594 1094 c 0
 -602 1094 -662 1106 -662 1139 c 0xc0
-375 1139 m 0x90
 -375 1141 -332 1388 -322 1413 c 1
 -314 1427 -297 1444 -264 1444 c 2
 -262 1444 l 2x88
 -243.85 1444 -145 1425.80625 -145 1364 c 2
 -145 1358 l 2
 -145 1342 -149 1333 -272 1118 c 1
 -276 1108 -287 1094 -307 1094 c 0
 -315 1094 -375 1106 -375 1139 c 0x90
EndSplineSet
Validated: 1
EndChar

StartChar: uni030C
Encoding: 780 780 175
Width: 0
GlyphClass: 2
Flags: HM
HStem: 1094 362<-651 -379 -651 -449>
VStem: -690 551<1438 1438>
LayerCount: 3
Fore
SplineSet
-690 1438 m 1
 -651 1456 l 1
 -414 1274 l 1
 -178 1456 l 1
 -139 1438 l 1
 -379 1094 l 1
 -449 1094 l 1
 -690 1438 l 1
EndSplineSet
Validated: 1
EndChar

StartChar: uni030F
Encoding: 783 783 176
Width: 0
GlyphClass: 2
Flags: HM
HStem: 1094 350<-601 -544 -601 -257>
VStem: -711 229<1126 1395>
LayerCount: 3
Fore
SplineSet
-711 1364 m 0
 -711 1425 -610 1444 -592 1444 c 0
 -541 1444 -530 1409 -524 1376 c 0
 -510 1296 -481 1147 -481 1139 c 0
 -481 1101.06875 -546.984765625 1094 -547 1094 c 0
 -570 1094 -578 1108 -584 1118 c 0
 -709 1341 -711 1341 -711 1364 c 0
-424 1364 m 0
 -424 1420.48054297 -332.607567223 1444 -305 1444 c 0
 -254 1444 -244 1409 -238 1376 c 2
 -195 1139 l 1
 -195 1101.578125 -259.990234375 1094 -260 1094 c 0
 -283 1094 -291 1108 -297 1118 c 0
 -422 1341 -424 1341 -424 1364 c 0
EndSplineSet
Validated: 1
EndChar

StartChar: uni0311
Encoding: 785 785 177
Width: 0
GlyphClass: 2
Flags: HM
HStem: 1272 139<-465 -361>
VStem: -690 59<1133 1133> -197 59<1133 1133>
LayerCount: 3
Fore
SplineSet
-690 1133 m 1
 -686 1217 -596 1411 -414 1411 c 0
 -238 1411 -141 1223 -137 1133 c 1
 -197 1133 l 1
 -230 1205 -310 1272 -414 1272 c 0
 -516 1272 -598 1205 -631 1133 c 1
 -690 1133 l 1
EndSplineSet
Validated: 1
EndChar

StartChar: uni0312
Encoding: 786 786 178
Width: 0
GlyphClass: 2
Flags: HM
VStem: -526 182
LayerCount: 3
Fore
SplineSet
-526 1198 m 2
 -526 1202 l 2
 -526 1220 -522 1224 -399 1464 c 0
 -379 1503 -371 1526 -348 1526 c 0
 -346.208884466 1526 -279 1516.08574801 -279 1481 c 0
 -279 1471 -321 1282 -344 1184 c 0
 -348 1168 -357 1116 -410 1116 c 0
 -426 1116 -488 1133 -508 1153 c 0
 -514 1159 -526 1175 -526 1198 c 2
EndSplineSet
Validated: 1
EndChar

StartChar: uni0315
Encoding: 789 789 179
Width: 0
GlyphClass: 2
Flags: HM
HStem: 1077 410<-461 -387>
VStem: -461 182
LayerCount: 3
Fore
SplineSet
-526 1122 m 0
 -526 1132 -484 1321 -461 1419 c 0
 -457 1435 -448 1487 -395 1487 c 0
 -379 1487 -317 1470 -297 1450 c 0
 -291 1444 -279 1428 -279 1405 c 2
 -279 1401 l 2
 -279 1385 -283 1379 -406 1139 c 0
 -426 1100 -434 1077 -457 1077 c 0
 -458.791115534 1077 -526 1086.91425199 -526 1122 c 0
EndSplineSet
Validated: 1
EndChar

StartChar: uni031B
Encoding: 795 795 180
Width: 0
GlyphClass: 2
Flags: HM
HStem: 797 61<-307 -307>
VStem: -59 147<973 1033>
LayerCount: 3
Fore
SplineSet
-307 797 m 1
 -307 858 l 1
 -110 870 -59 944 -59 1001 c 0
 -59 1064 -125 1096 -127 1098 c 0
 -131 1100 -133 1106 -133 1112 c 0
 -133 1130 -80 1161 -37 1161 c 0
 41 1161 88 1086 88 1018 c 0
 88 885 -71 801 -307 797 c 1
EndSplineSet
Validated: 1
EndChar

StartChar: dotbelowcomb
Encoding: 803 803 181
Width: 0
GlyphClass: 2
Flags: HM
HStem: -389 223<-441 -382 -441 -379>
VStem: -522 223<-307 -246>
LayerCount: 3
Fore
SplineSet
-522 -276 m 0
 -522 -215 -471 -166 -412 -166 c 0
 -353 -166 -299 -210 -299 -276 c 0
 -299 -337 -346 -389 -412 -389 c 0
 -478 -389 -522 -337 -522 -276 c 0
EndSplineSet
Validated: 1
EndChar

StartChar: uni0324
Encoding: 804 804 182
Width: 0
GlyphClass: 2
Flags: HM
HStem: -389 223<-646 -587 -646 -584 -226 -165>
VStem: -727 223<-307 -246> -307 223<-307 -247 -307 -246>
LayerCount: 3
Fore
SplineSet
-727 -276 m 0
 -727 -215 -675 -166 -616 -166 c 0
 -557 -166 -504 -210 -504 -276 c 0
 -504 -337 -550 -389 -616 -389 c 0
 -682 -389 -727 -337 -727 -276 c 0
-307 -276 m 0
 -307 -215 -256 -166 -197 -166 c 0
 -134 -166 -84 -217 -84 -276 c 0
 -84 -337 -131 -389 -197 -389 c 0
 -263 -389 -307 -337 -307 -276 c 0
EndSplineSet
Validated: 1
EndChar

StartChar: uni0325
Encoding: 805 805 183
Width: 0
GlyphClass: 2
Flags: HM
HStem: -442 82<-436 -390 -436 -369> -186 82<-436 -390>
VStem: -582 82<-299 -249 -299 -227> -328 82<-298 -249>
LayerCount: 3
Fore
SplineSet
-582 -274 m 0
 -582 -180 -504 -104 -414 -104 c 0
 -324 -104 -246 -178 -246 -274 c 0
 -246 -368 -324 -442 -414 -442 c 0
 -504 -442 -582 -368 -582 -274 c 0
-500 -274 m 0
 -500 -323 -459 -360 -414 -360 c 0
 -367 -360 -328 -321 -328 -274 c 0
 -328 -223 -367 -186 -414 -186 c 0
 -459 -186 -500 -223 -500 -274 c 0
EndSplineSet
Validated: 1
EndChar

StartChar: uni0326
Encoding: 806 806 184
Width: 819
GlyphClass: 2
Flags: HMW
HStem: -502 410<350 424>
VStem: 350 182
LayerCount: 3
Fore
SplineSet
285 -457 m 0
 285 -447 327 -258 350 -160 c 0
 354 -144 363 -92 416 -92 c 0
 432 -92 494 -109 514 -129 c 0
 520 -135 532 -151 532 -174 c 2
 532 -178 l 2
 532 -194 529 -200 406 -440 c 0
 386 -479 377 -502 354 -502 c 0
 352.208884466 -502 285 -492.085748015 285 -457 c 0
EndSplineSet
Validated: 1
EndChar

StartChar: uni0327
Encoding: 807 807 185
Width: 0
GlyphClass: 2
Flags: HM
HStem: -434 68<-455 -416> -209 104<-459 -353>
VStem: -328 86<-305 -266>
LayerCount: 3
Fore
SplineSet
-641 -342 m 0
 -641 -309 -621 -289 -590 -289 c 0
 -527 -289 -496 -367 -414 -367 c 0
 -371 -367 -328 -340 -328 -293 c 0
 -328 -240 -385 -209 -436 -209 c 0
 -481 -209 -506 -229 -512 -229 c 0
 -516 -229 -518 -225 -518 -221 c 0
 -518 -213 -495 -47 -485 39 c 1
 -430 35 l 1
 -446 -111 l 1
 -444 -113 l 1
 -428 -107 -409 -104 -393 -104 c 0
 -313 -104 -242 -164 -242 -250 c 0
 -242 -361 -356 -434 -475 -434 c 0
 -573 -434 -641 -397 -641 -342 c 0
EndSplineSet
Validated: 1
EndChar

StartChar: uni0328
Encoding: 808 808 186
Width: 0
GlyphClass: 2
Flags: HM
HStem: -438 147<-414 -350 -414 -345>
VStem: -578 109<-207 -180 -180 -178 -207 -164>
LayerCount: 3
Fore
SplineSet
-578 -215 m 0
 -578 -113 -510 -55 -453 -4 c 1
 -463 10 l 1
 -303 16 l 1
 -395 -35 -469 -92 -469 -178 c 2
 -469 -180 l 2
 -469 -233 -442 -291 -385 -291 c 0
 -315 -291 -305 -229 -287 -229 c 0
 -267 -229 -250 -289 -250 -322 c 0
 -250 -400 -307 -438 -383 -438 c 0
 -539 -438 -578 -289 -578 -215 c 0
EndSplineSet
Validated: 1
EndChar

StartChar: uni032C
Encoding: 812 812 187
Width: 0
GlyphClass: 2
Flags: HM
HStem: -424 299<-645 -373 -645 -442>
VStem: -674 532<-150 -150>
LayerCount: 3
Fore
SplineSet
-674 -150 m 1
 -645 -125 l 1
 -408 -260 l 1
 -170 -125 l 1
 -141 -150 l 1
 -373 -424 l 1
 -442 -424 l 1
 -674 -150 l 1
EndSplineSet
Validated: 1
EndChar

StartChar: uni032D
Encoding: 813 813 188
Width: 0
GlyphClass: 2
Flags: HM
HStem: -424 299<-645 -373 -442 -170>
VStem: -674 532<-399 -399>
LayerCount: 3
Fore
SplineSet
-674 -399 m 1
 -442 -125 l 1
 -373 -125 l 1
 -141 -399 l 1
 -170 -424 l 1
 -408 -289 l 1
 -645 -424 l 1
 -674 -399 l 1
EndSplineSet
Validated: 1
EndChar

StartChar: uni032E
Encoding: 814 814 189
Width: 0
GlyphClass: 2
Flags: HM
HStem: -422 139<-454 -350 -454 -310>
VStem: -678 59<-143 -143> -184 59<-143 -143>
LayerCount: 3
Fore
SplineSet
-678 -143 m 1
 -618 -143 l 1
 -585 -215 -505 -283 -401 -283 c 0
 -299 -283 -217 -215 -184 -143 c 1
 -125 -143 l 1
 -129 -227 -219 -422 -401 -422 c 0
 -577 -422 -674 -233 -678 -143 c 1
EndSplineSet
Validated: 1
EndChar

StartChar: uni0330
Encoding: 816 816 190
Width: 0
GlyphClass: 2
Flags: HM
HStem: -381 141<-300 -265> -281 141<-504 -472>
LayerCount: 3
Fore
SplineSet
-684 -350 m 1
 -600 -231 -547 -139 -461 -139 c 0x40
 -371 -139 -340 -240 -260 -240 c 0x80
 -207 -240 -178 -200 -123 -139 c 1x40
 -86 -170 l 1
 -162 -289 -221 -381 -309 -381 c 0x80
 -401 -381 -432 -281 -512 -281 c 0x40
 -567 -281 -600 -328 -647 -381 c 1x80
 -684 -350 l 1
EndSplineSet
Validated: 1
EndChar

StartChar: uni0331
Encoding: 817 817 191
Width: 0
GlyphClass: 2
Flags: HM
HStem: -313 106<-684 -135 -684 -135>
VStem: -684 549<-313 -207 -313 -207>
LayerCount: 3
Fore
SplineSet
-684 -207 m 1
 -135 -207 l 1
 -135 -313 l 1
 -684 -313 l 1
 -684 -207 l 1
EndSplineSet
Validated: 1
EndChar

StartChar: uni2010
Encoding: 8208 8208 201
Width: 647
GlyphClass: 2
Flags: HMW
HStem: 442 172<68 580 68 580>
VStem: 68 512<442 614 442 614>
LayerCount: 3
Fore
SplineSet
68 442 m 1
 68 614 l 1
 580 614 l 1
 580 442 l 1
 68 442 l 1
EndSplineSet
Validated: 1
EndChar

StartChar: uni2011
Encoding: 8209 8209 202
Width: 647
GlyphClass: 2
Flags: HMW
HStem: 442 172<68 580 68 580>
VStem: 68 512<442 614 442 614>
LayerCount: 3
Fore
SplineSet
68 442 m 1
 68 614 l 1
 580 614 l 1
 580 442 l 1
 68 442 l 1
EndSplineSet
Validated: 1
EndChar

StartChar: figuredash
Encoding: 8210 8210 203
Width: 1024
GlyphClass: 2
Flags: HMW
HStem: 453 137<10 1014 10 1014>
LayerCount: 3
Fore
SplineSet
10 453 m 1
 10 590 l 1
 1014 590 l 1
 1014 453 l 1
 10 453 l 1
EndSplineSet
Validated: 1
EndChar

StartChar: endash
Encoding: 8211 8211 204
Width: 1024
GlyphClass: 2
Flags: HMW
HStem: 453 137<10 1014 10 1014>
LayerCount: 3
Fore
SplineSet
10 453 m 1
 10 590 l 1
 1014 590 l 1
 1014 453 l 1
 10 453 l 1
EndSplineSet
Validated: 1
EndChar

StartChar: emdash
Encoding: 8212 8212 205
Width: 2048
GlyphClass: 2
Flags: HM
HStem: 483 90<61 1987 61 1987>
LayerCount: 3
Fore
SplineSet
61 483 m 1
 61 573 l 1
 1987 573 l 1
 1987 483 l 1
 61 483 l 1
EndSplineSet
Validated: 1
EndChar

StartChar: afii00208
Encoding: 8213 8213 206
Width: 2048
GlyphClass: 2
Flags: HM
HStem: 483 90<61 1987 61 1987>
LayerCount: 3
Fore
SplineSet
61 483 m 1
 61 573 l 1
 1987 573 l 1
 1987 483 l 1
 61 483 l 1
EndSplineSet
Validated: 1
EndChar

StartChar: quoteleft
Encoding: 8216 8216 207
Width: 512
GlyphClass: 2
Flags: HMW
HStem: 993 229<218 307>
VStem: 111 125<1202 1211>
LayerCount: 3
Fore
SplineSet
111 1153 m 0
 111 1270 213 1399 348 1448 c 1
 385 1376 l 1
 346 1358 236 1306 236 1202 c 1
 246 1200 l 1
 262 1214 285 1223 305 1223 c 2
 307 1223 l 2
 360 1223 401 1177 401 1120 c 0
 401 1044 338 993 262 993 c 0
 174 993 111 1061 111 1153 c 0
EndSplineSet
Validated: 1
EndChar

StartChar: quoteright
Encoding: 8217 8217 208
Width: 512
GlyphClass: 2
Flags: HMW
HStem: 993 43G<164 164> 1219 229<178 293 205 293>
VStem: 111 291<1230 1359> 276 125<1230 1239>
LayerCount: 3
Fore
SplineSet
111 1321 m 0xe0
 111 1397 174 1448 250 1448 c 0
 336 1448 401 1382 401 1290 c 2
 401 1288 l 2xe0
 401 1171 299 1042 164 993 c 1
 127 1065 l 1
 166 1083 276 1135 276 1239 c 1xd0
 266 1241 l 1
 250 1227 227 1219 207 1219 c 2
 205 1219 l 2
 152 1219 111 1264 111 1321 c 0xe0
EndSplineSet
Validated: 1
EndChar

StartChar: quotesinglbase
Encoding: 8218 8218 209
Width: 512
GlyphClass: 2
Flags: HMW
HStem: -23 229<212 217>
VStem: 111 291<-11 118> 276 125<-11 -2>
LayerCount: 3
Fore
SplineSet
111 80 m 0
 111 156 174 207 250 207 c 0xc0
 336 207 401 141 401 49 c 2
 401 47 l 2xc0
 401 -70 299 -199 164 -248 c 1
 127 -176 l 1
 166 -158 276 -106 276 -2 c 1xa0
 266 0 l 1
 250 -14 227 -23 207 -23 c 0
 152 -23 111 23 111 80 c 0
EndSplineSet
Validated: 1
EndChar

StartChar: quotereversed
Encoding: 8219 8219 210
Width: 512
GlyphClass: 2
Flags: HMW
HStem: 993 43G<348 348> 1219 229<295 299 217 305 217 307>
VStem: 111 125<1227 1239 1191 1334>
LayerCount: 3
Fore
SplineSet
111 1288 m 0
 111 1380 172 1448 262 1448 c 0
 336 1448 401 1397 401 1321 c 0
 401 1264 360 1219 307 1219 c 2
 305 1219 l 2
 285 1219 262 1227 246 1241 c 1
 236 1239 l 1
 236 1143 330 1090 385 1065 c 1
 348 993 l 1
 217 1040 111 1165 111 1288 c 0
EndSplineSet
Validated: 1
EndChar

StartChar: quotedblleft
Encoding: 8220 8220 211
Width: 829
GlyphClass: 2
Flags: HMW
HStem: 993 229<218 307>
VStem: 111 125<1202 1211> 428 125<1151 1254 1202 1211> 428 291<1082 1153 1082 1211>
LayerCount: 3
Fore
SplineSet
111 1153 m 0
 111 1270 213 1399 348 1448 c 1
 385 1376 l 1
 346 1358 236 1306 236 1202 c 1
 246 1200 l 1
 262 1214 285 1223 305 1223 c 2
 307 1223 l 2
 358 1223 401 1177 401 1120 c 0
 401 1044 338 993 262 993 c 0xc0
 174 993 111 1061 111 1153 c 0
428 1151 m 2
 428 1153 l 2xd0
 428 1270 531 1399 666 1448 c 1
 702 1376 l 1
 663 1358 553 1306 553 1202 c 1xe0
 563 1200 l 1
 579 1214 603 1223 623 1223 c 2
 625 1223 l 2
 678 1223 719 1177 719 1120 c 0xd0
 719 1044 656 993 580 993 c 0
 494 993 428 1059 428 1151 c 2
EndSplineSet
Validated: 1
EndChar

StartChar: quotedblright
Encoding: 8221 8221 212
Width: 829
GlyphClass: 2
Flags: HMW
HStem: 993 43G<164 164 481 481> 1219 229<179 293 205 293 212 522>
VStem: 111 291<1230 1359> 276 125<1230 1239> 428 291<1230 1359> 594 125<1230 1239>
LayerCount: 3
Fore
SplineSet
111 1321 m 0
 111 1397 174 1448 250 1448 c 0xe0
 336 1448 401 1382 401 1290 c 2
 401 1288 l 2xe0
 401 1171 299 1042 164 993 c 1
 127 1065 l 1
 166 1083 276 1135 276 1239 c 1xd0
 266 1241 l 1
 250 1227 227 1219 207 1219 c 2
 205 1219 l 2
 154 1219 111 1264 111 1321 c 0
428 1321 m 0xc8
 428 1397 491 1448 567 1448 c 0
 653 1448 719 1382 719 1290 c 2
 719 1288 l 2xc8
 719 1171 616 1042 481 993 c 1
 444 1065 l 1
 483 1083 594 1135 594 1239 c 1xc4
 584 1241 l 1
 568 1227 544 1219 524 1219 c 2
 522 1219 l 2
 469 1219 428 1264 428 1321 c 0xc8
EndSplineSet
Validated: 1
EndChar

StartChar: quotedblbase
Encoding: 8222 8222 213
Width: 829
GlyphClass: 2
Flags: HMW
HStem: -23 229<212 217 529 535>
VStem: 111 291<-11 118> 276 125<-11 -2> 428 291<-11 118> 594 125<-11 -2>
LayerCount: 3
Fore
SplineSet
111 80 m 0
 111 156 174 207 250 207 c 0xc0
 336 207 401 141 401 49 c 2
 401 47 l 2xc0
 401 -70 299 -199 164 -248 c 1
 127 -176 l 1
 166 -158 276 -106 276 -2 c 1xa0
 266 0 l 1
 250 -14 227 -23 207 -23 c 0
 152 -23 111 23 111 80 c 0
428 80 m 0x90
 428 156 491 207 567 207 c 0
 653 207 719 141 719 49 c 2
 719 47 l 2x90
 719 -70 616 -199 481 -248 c 1
 444 -176 l 1
 483 -158 594 -106 594 -2 c 1x88
 584 0 l 1
 568 -14 544 -23 524 -23 c 0
 469 -23 428 23 428 80 c 0x90
EndSplineSet
Validated: 1
EndChar

StartChar: uni201F
Encoding: 8223 8223 214
Width: 829
GlyphClass: 2
Flags: HMW
HStem: 993 43G<348 348 666 666> 1219 229<295 299 217 305 217 307 612 616>
VStem: 111 125<1227 1239 1191 1334> 428 125<1191 1290 1191 1335> 428 291<1288 1359 1292 1335>
LayerCount: 3
Fore
SplineSet
111 1288 m 0xe0
 111 1380 172 1448 262 1448 c 0
 336 1448 401 1397 401 1321 c 0
 401 1264 360 1219 307 1219 c 2
 305 1219 l 2
 285 1219 262 1227 246 1241 c 1
 236 1239 l 1
 236 1143 330 1090 385 1065 c 1
 348 993 l 1
 217 1040 111 1165 111 1288 c 0xe0
428 1288 m 2
 428 1290 l 2xe8
 428 1380 492 1448 580 1448 c 0
 654 1448 719 1397 719 1321 c 0xe8
 719 1264 678 1219 625 1219 c 2
 623 1219 l 2
 603 1219 579 1227 563 1241 c 1
 553 1239 l 1xf0
 553 1143 647 1090 702 1065 c 1
 666 993 l 1
 535 1040 428 1165 428 1288 c 2
EndSplineSet
Validated: 1
EndChar

StartChar: dagger
Encoding: 8224 8224 215
Width: 1064
GlyphClass: 2
Flags: HMW
HStem: 662 217<156 158 158 173 911 913 913 947>
VStem: 420 229<1198 1204 1204 1210 1183 1260>
LayerCount: 3
Fore
SplineSet
41 768 m 0
 41 829 86 879 156 879 c 2
 158 879 l 2
 191 879 228 867 500 799 c 1
 506 807 l 1
 424 1151 420 1169 420 1198 c 2
 420 1210 l 2
 420 1308 490 1341 535 1341 c 0
 580 1341 649 1308 649 1210 c 2
 649 1204 l 2
 649 1161 647 1165 563 807 c 1
 569 799 l 1
 841 867 878 879 911 879 c 2
 913 879 l 2
 981 879 1024 829 1024 768 c 0
 1024 731 1001 662 915 662 c 0
 882 662 845 672 573 735 c 1
 565 729 l 1
 655 -168 662 -198 662 -264 c 0
 662 -346 637 -492 535 -492 c 0
 433 -492 408 -346 408 -264 c 2
 408 -258 l 2
 408 -217 410 -223 504 729 c 1
 496 735 l 1
 254 680 193 662 154 662 c 0
 64 662 41 731 41 768 c 0
EndSplineSet
Validated: 1
EndChar

StartChar: daggerdbl
Encoding: 8225 8225 216
Width: 1064
GlyphClass: 2
Flags: HMW
HStem: 104 217<123 171 111 174 896 946> 672 217<109 158 154 158 911 913 913 915>
VStem: 414 242<-398 -285> 461 147<457 539>
LayerCount: 3
Fore
SplineSet
41 778 m 0
 41 839 88 889 156 889 c 2
 158 889 l 2
 191 889 228 877 500 809 c 1
 506 817 l 1
 424 1161 420 1179 420 1208 c 2
 420 1221 l 2xd0
 420 1319 490 1352 535 1352 c 0
 580 1352 649 1319 649 1221 c 2
 649 1214 l 2
 649 1171 647 1175 563 817 c 1
 569 809 l 1
 841 877 878 889 911 889 c 2
 913 889 l 2
 981 889 1024 839 1024 778 c 0
 1024 741 1001 672 915 672 c 2
 913 672 l 2
 880 672 843 682 569 748 c 1
 561 739 l 1
 592 663 608 580 608 498 c 0xd0
 608 416 592 332 561 256 c 1
 567 246 l 1
 813 303 876 322 915 322 c 0
 1005 322 1028 252 1028 215 c 0
 1028 154 981 104 911 104 c 0
 878 104 841 116 569 184 c 1
 563 176 l 1
 635 -170 655 -248 655 -322 c 0
 655 -476 582 -512 535 -512 c 0
 488 -512 414 -476 414 -322 c 0xe0
 414 -248 434 -170 506 176 c 1
 500 184 l 1
 228 116 191 104 158 104 c 0
 88 104 45 156 45 215 c 0
 45 252 68 322 154 322 c 0
 189 322 226 312 502 246 c 1
 508 256 l 1
 477 332 461 416 461 498 c 0
 461 580 477 663 508 739 c 1
 500 748 l 1
 226 682 189 672 156 672 c 2
 154 672 l 2
 64 672 41 741 41 778 c 0
EndSplineSet
Validated: 1
EndChar

StartChar: bullet
Encoding: 8226 8226 217
Width: 819
GlyphClass: 2
Flags: HMW
HStem: 209 520<376 443>
VStem: 150 520<435 503>
LayerCount: 3
Fore
SplineSet
150 469 m 0
 150 630.614806314 283.52505667 729 410 729 c 0
 539.33984375 729 670 625.66015625 670 469 c 0
 670 312.467132922 539.456310633 209 410 209 c 0
 284.275417743 209 150 306.687014617 150 469 c 0
EndSplineSet
Validated: 1
EndChar

StartChar: uni2023
Encoding: 8227 8227 218
Width: 737
GlyphClass: 2
Flags: HMW
HStem: 211 512<174 174>
VStem: 174 453<467 467 467 723 467 723>
LayerCount: 3
Fore
SplineSet
174 211 m 1
 174 723 l 1
 627 467 l 1
 174 211 l 1
EndSplineSet
Validated: 1
EndChar

StartChar: onedotenleader
Encoding: 8228 8228 219
Width: 1024
GlyphClass: 2
Flags: HMW
HStem: -53 281<475 550>
VStem: 373 281<47 126>
LayerCount: 3
Fore
SplineSet
373 86 m 0
 373 166 438 227 512 227 c 0
 588 227 653 166 653 86 c 0
 653 8 588 -53 512 -53 c 0
 438 -53 373 8 373 86 c 0
EndSplineSet
Validated: 1
EndChar

StartChar: twodotenleader
Encoding: 8229 8229 220
Width: 1024
GlyphClass: 2
Flags: HMW
HStem: -53 281<217 292 731 806>
VStem: 115 281<47 126> 629 281<47 126>
LayerCount: 3
Fore
SplineSet
115 86 m 0
 115 166 180 227 254 227 c 0
 330 227 395 166 395 86 c 0
 395 8 330 -53 254 -53 c 0
 180 -53 115 8 115 86 c 0
629 86 m 0
 629 166 694 227 768 227 c 0
 844 227 909 166 909 86 c 0
 909 8 844 -53 768 -53 c 0
 694 -53 629 8 629 86 c 0
EndSplineSet
Validated: 1
EndChar

StartChar: ellipsis
Encoding: 8230 8230 221
Width: 2048
GlyphClass: 2
Flags: HM
HStem: -53 281<303 378 987 1062 1669 1744>
VStem: 201 281<47 126> 885 281<47 126> 1567 281<47 126>
LayerCount: 3
Fore
SplineSet
201 86 m 0
 201 166 266 227 340 227 c 0
 416 227 481 166 481 86 c 0
 481 8 416 -53 340 -53 c 0
 266 -53 201 8 201 86 c 0
885 86 m 0
 885 166 950 227 1024 227 c 0
 1100 227 1165 166 1165 86 c 0
 1165 8 1100 -53 1024 -53 c 0
 950 -53 885 8 885 86 c 0
1567 86 m 0
 1567 166 1632 227 1706 227 c 0
 1782 227 1847 166 1847 86 c 0
 1847 8 1782 -53 1706 -53 c 0
 1632 -53 1567 8 1567 86 c 0
EndSplineSet
Validated: 1
EndChar

StartChar: guilsinglleft
Encoding: 8249 8249 223
Width: 512
GlyphClass: 2
Flags: HMW
VStem: 100 176<483 485 485 490 477 496>
LayerCount: 3
Fore
SplineSet
100 483 m 2
 100 485 l 2
 100 505 107 506 340 840 c 1
 410 819 l 1
 279 495 276 497 276 483 c 0
 276 471 277 478 410 150 c 1
 340 129 l 1
 104 463 100 465 100 483 c 2
EndSplineSet
Validated: 1
EndChar

StartChar: guilsinglright
Encoding: 8250 8250 224
Width: 512
GlyphClass: 2
Flags: HMW
VStem: 231 178<477 481 481 483 472 490>
LayerCount: 3
Fore
SplineSet
100 150 m 1
 231 474 231 471 231 483 c 0
 231 497 231 491 100 819 c 1
 170 840 l 1
 403 506 410 503 410 483 c 2
 410 481 l 2
 410 463 403 463 170 129 c 1
 100 150 l 1
EndSplineSet
Validated: 1
EndChar

StartChar: Euro
Encoding: 8364 8364 226
Width: 1150
GlyphClass: 2
Flags: HMW
HStem: -45 96 338 90 516 90<61 174 25 193> 907 82<636 711 711 713>
VStem: 170 186 193 178
LayerCount: 3
Fore
SplineSet
25 338 m 1
 61 428 l 1
 170 428 l 1
 170 435 170 442 170 449 c 0xf8
 170 472 171 494 174 516 c 1
 25 516 l 1
 61 606 l 1
 193 606 l 1
 258 825 456 989 729 989 c 0
 840 989 951 962 1051 913 c 1
 989 762 l 1
 928 850 822 907 713 907 c 2
 711 907 l 2
 561 907 416 808 371 606 c 1
 928 606 l 1xf4
 891 516 l 1
 358 516 l 1
 357 501 356 485 356 469 c 0
 356 455 357 441 358 428 c 1
 856 428 l 1
 819 338 l 1
 370 338 l 1
 423 112 612 51 729 51 c 0
 860 51 970 113 1042 174 c 1
 1090 104 l 1
 992 12 854 -45 694 -45 c 0
 441 -45 232 105 182 338 c 1
 25 338 l 1
EndSplineSet
Validated: 1
EndChar

StartChar: minus
Encoding: 8722 8722 227
Width: 1064
GlyphClass: 2
Flags: HMW
HStem: 532 106<66 1001 66 1001>
LayerCount: 3
Fore
SplineSet
66 532 m 1
 66 639 l 1
 1001 639 l 1
 1001 532 l 1
 66 532 l 1
EndSplineSet
Validated: 1
EndChar

StartChar: dotmath
Encoding: 8901 8901 228
Width: 512
GlyphClass: 2
Flags: HMW
HStem: 471 229<225 286 222 289>
VStem: 141 227<555 616>
LayerCount: 3
Fore
SplineSet
141 586 m 0
 141 647 188 700 256 700 c 0
 315 700 369 652 369 586 c 0
 369 525 322 471 256 471 c 0
 195 471 141 518 141 586 c 0
EndSplineSet
Validated: 1
EndChar
